<svg xmlns="http://www.w3.org/2000/svg" xmlns:xlink="http://www.w3.org/1999/xlink" id="processonSvg1000" viewBox="-9.5 16.75 365.0 283.5" width="365.0" height="283.5"><defs id="ProcessOnDefs1001"/><g id="ProcessOnG1002"><path id="ProcessOnPath1003" d="M-9.5 16.75H355.5V300.25H-9.5V16.75Z" fill="none"/><g id="ProcessOnG1004"><g id="ProcessOnG1005" transform="matrix(1.0,0.0,0.0,1.0,159.5,36.75)" opacity="1.0"><path id="ProcessOnPath1006" d="M0.0 0.0L176.0 0.0L176.0 203.5L0.0 203.5Z" stroke="#323232" stroke-width="2.0" stroke-dasharray="none" opacity="1.0" fill="#ffffff"/></g><g id="ProcessOnG1007" transform="matrix(1.0,0.0,0.0,1.0,180.5,64.25)" opacity="1.0"><path id="ProcessOnPath1008" d="M0.0 0.0L100.0 0.0L100.0 70.0L0.0 70.0Z" stroke="#323232" stroke-width="2.0" stroke-dasharray="none" opacity="1.0" fill="#ffffff"/></g><g id="ProcessOnG1009" transform="matrix(1.0,0.0,0.0,1.0,287.5,89.25)" opacity="1.0"><path id="ProcessOnPath1010" d="M0.0 10.0C0.0 -3.3333333333333335 20.0 -3.3333333333333335 20.0 10.0C20.0 23.333333333333332 0.0 23.333333333333332 0.0 10.0Z" stroke="#323232" stroke-width="2.0" stroke-dasharray="none" opacity="1.0" fill="#ff6666"/></g><g id="ProcessOnG1011" transform="matrix(1.0,0.0,0.0,1.0,220.5,159.75)" opacity="1.0"><path id="ProcessOnPath1012" d="M0.0 0.0L100.0 0.0L100.0 70.0L0.0 70.0Z" stroke="#323232" stroke-width="2.0" stroke-dasharray="none" opacity="1.0" fill="#ffffff"/></g><g id="ProcessOnG1013" transform="matrix(1.0,0.0,0.0,1.0,190.5,188.25)" opacity="1.0"><path id="ProcessOnPath1014" d="M0.0 10.0C0.0 -3.3333333333333335 20.0 -3.3333333333333335 20.0 10.0C20.0 23.333333333333332 0.0 23.333333333333332 0.0 10.0Z" stroke="#323232" stroke-width="2.0" stroke-dasharray="none" opacity="1.0" fill="#ff6666"/></g><g id="ProcessOnG1015" transform="matrix(1.0,0.0,0.0,1.0,80.5,129.75)" opacity="1.0"><path id="ProcessOnPath1016" d="M0.0 10.0C0.0 -3.3333333333333335 20.0 -3.3333333333333335 20.0 10.0C20.0 23.333333333333332 0.0 23.333333333333332 0.0 10.0Z" stroke="#323232" stroke-width="2.0" stroke-dasharray="none" opacity="1.0" fill="#ff6666"/></g><g id="ProcessOnG1017" transform="matrix(1.0,0.0,0.0,1.0,175.5,240.25)" opacity="1.0"><path id="ProcessOnPath1018" d="M0.0 0.0L160.0 0.0L160.0 40.0L0.0 40.0Z" stroke="none" stroke-width="0.0" stroke-dasharray="none" opacity="1.0" fill="none"/><g id="ProcessOnG1019" transform="matrix(1.0,0.0,0.0,1.0,0.0,10.0)"><text id="ProcessOnText1020" fill="#000000" font-size="16" x="79.0" y="16.4" font-family="微软雅黑" font-weight="normal" font-style="normal" text-decoration="none" family="微软雅黑" text-anchor="middle" size="16">Worker node</text></g></g><g id="ProcessOnG1021" transform="matrix(1.0,0.0,0.0,1.0,114.5,36.75)" opacity="1.0"><path id="ProcessOnPath1022" d="M0.0 0.0L160.0 0.0L160.0 40.0L0.0 40.0Z" stroke="none" stroke-width="0.0" stroke-dasharray="none" opacity="1.0" fill="none"/><g id="ProcessOnG1023" transform="matrix(1.0,0.0,0.0,1.0,0.0,11.875)"><text id="ProcessOnText1024" fill="#000000" font-size="13" x="79.0" y="13.325" font-family="微软雅黑" font-weight="normal" font-style="normal" text-decoration="none" family="微软雅黑" text-anchor="middle" size="13">Executor</text></g></g><g id="ProcessOnG1025" transform="matrix(1.0,0.0,0.0,1.0,153.5,129.75)" opacity="1.0"><path id="ProcessOnPath1026" d="M0.0 0.0L160.0 0.0L160.0 40.0L0.0 40.0Z" stroke="none" stroke-width="0.0" stroke-dasharray="none" opacity="1.0" fill="none"/><g id="ProcessOnG1027" transform="matrix(1.0,0.0,0.0,1.0,0.0,11.875)"><text id="ProcessOnText1028" fill="#000000" font-size="13" x="79.0" y="13.325" font-family="微软雅黑" font-weight="normal" font-style="normal" text-decoration="none" family="微软雅黑" text-anchor="middle" size="13">Executor</text></g></g><g id="ProcessOnG1029" transform="matrix(1.0,0.0,0.0,1.0,10.5,144.25)" opacity="1.0"><path id="ProcessOnPath1030" d="M0.0 0.0L160.0 0.0L160.0 40.0L0.0 40.0Z" stroke="none" stroke-width="0.0" stroke-dasharray="none" opacity="1.0" fill="none"/><g id="ProcessOnG1031" transform="matrix(1.0,0.0,0.0,1.0,0.0,11.25)"><text id="ProcessOnText1032" fill="#000000" font-size="14" x="79.0" y="14.350000000000001" font-family="微软雅黑" font-weight="normal" font-style="normal" text-decoration="none" family="微软雅黑" text-anchor="middle" size="14">Broadcast Variables</text></g></g></g></g></svg>