<svg xmlns="http://www.w3.org/2000/svg" xmlns:xlink="http://www.w3.org/1999/xlink" id="processonSvg1000" viewBox="-43.0 15.5 365.0 283.5" width="365.0" height="283.5"><defs id="ProcessOnDefs1001"/><g id="ProcessOnG1002"><path id="ProcessOnPath1003" d="M-43.0 15.5H322.0V299.0H-43.0V15.5Z" fill="none"/><g id="ProcessOnG1004"><g id="ProcessOnG1005" transform="matrix(1.0,0.0,0.0,1.0,126.0,35.5)" opacity="1.0"><path id="ProcessOnPath1006" d="M0.0 0.0L176.0 0.0L176.0 203.5L0.0 203.5Z" stroke="#323232" stroke-width="2.0" stroke-dasharray="none" opacity="1.0" fill="#ffffff"/></g><g id="ProcessOnG1007" transform="matrix(1.0,0.0,0.0,1.0,147.0,63.0)" opacity="1.0"><path id="ProcessOnPath1008" d="M0.0 0.0L100.0 0.0L100.0 70.0L0.0 70.0Z" stroke="#323232" stroke-width="2.0" stroke-dasharray="none" opacity="1.0" fill="#ffffff"/></g><g id="ProcessOnG1009" transform="matrix(1.0,0.0,0.0,1.0,160.0,81.0)" opacity="1.0"><path id="ProcessOnPath1010" d="M0.0 10.0C0.0 -3.3333333333333335 20.0 -3.3333333333333335 20.0 10.0C20.0 23.333333333333332 0.0 23.333333333333332 0.0 10.0Z" stroke="#323232" stroke-width="2.0" stroke-dasharray="none" opacity="1.0" fill="#99ffff"/></g><g id="ProcessOnG1011" transform="matrix(1.0,0.0,0.0,1.0,212.0,75.5)" opacity="1.0"><path id="ProcessOnPath1012" d="M0.0 10.0C0.0 -3.3333333333333335 20.0 -3.3333333333333335 20.0 10.0C20.0 23.333333333333332 0.0 23.333333333333332 0.0 10.0Z" stroke="#323232" stroke-width="2.0" stroke-dasharray="none" opacity="1.0" fill="#99ffff"/></g><g id="ProcessOnG1013" transform="matrix(1.0,0.0,0.0,1.0,187.0,103.5)" opacity="1.0"><path id="ProcessOnPath1014" d="M0.0 10.0C0.0 -3.3333333333333335 20.0 -3.3333333333333335 20.0 10.0C20.0 23.333333333333332 0.0 23.333333333333332 0.0 10.0Z" stroke="#323232" stroke-width="2.0" stroke-dasharray="none" opacity="1.0" fill="#99ffff"/></g><g id="ProcessOnG1015" transform="matrix(1.0,0.0,0.0,1.0,187.0,158.5)" opacity="1.0"><path id="ProcessOnPath1016" d="M0.0 0.0L100.0 0.0L100.0 70.0L0.0 70.0Z" stroke="#323232" stroke-width="2.0" stroke-dasharray="none" opacity="1.0" fill="#ffffff"/></g><g id="ProcessOnG1017" transform="matrix(1.0,0.0,0.0,1.0,227.0,171.0)" opacity="1.0"><path id="ProcessOnPath1018" d="M0.0 10.0C0.0 -3.3333333333333335 20.0 -3.3333333333333335 20.0 10.0C20.0 23.333333333333332 0.0 23.333333333333332 0.0 10.0Z" stroke="#323232" stroke-width="2.0" stroke-dasharray="none" opacity="1.0" fill="#99ffff"/></g><g id="ProcessOnG1019" transform="matrix(1.0,0.0,0.0,1.0,251.0,194.0)" opacity="1.0"><path id="ProcessOnPath1020" d="M0.0 10.0C0.0 -3.3333333333333335 20.0 -3.3333333333333335 20.0 10.0C20.0 23.333333333333332 0.0 23.333333333333332 0.0 10.0Z" stroke="#323232" stroke-width="2.0" stroke-dasharray="none" opacity="1.0" fill="#99ffff"/></g><g id="ProcessOnG1021" transform="matrix(1.0,0.0,0.0,1.0,207.0,199.0)" opacity="1.0"><path id="ProcessOnPath1022" d="M0.0 10.0C0.0 -3.3333333333333335 20.0 -3.3333333333333335 20.0 10.0C20.0 23.333333333333332 0.0 23.333333333333332 0.0 10.0Z" stroke="#323232" stroke-width="2.0" stroke-dasharray="none" opacity="1.0" fill="#99ffff"/></g><g id="ProcessOnG1023" transform="matrix(1.0,0.0,0.0,1.0,47.0,128.5)" opacity="1.0"><path id="ProcessOnPath1024" d="M0.0 10.0C0.0 -3.3333333333333335 20.0 -3.3333333333333335 20.0 10.0C20.0 23.333333333333332 0.0 23.333333333333332 0.0 10.0Z" stroke="#323232" stroke-width="2.0" stroke-dasharray="none" opacity="1.0" fill="#99ffff"/></g><g id="ProcessOnG1025" transform="matrix(1.0,0.0,0.0,1.0,142.0,239.0)" opacity="1.0"><path id="ProcessOnPath1026" d="M0.0 0.0L160.0 0.0L160.0 40.0L0.0 40.0Z" stroke="none" stroke-width="0.0" stroke-dasharray="none" opacity="1.0" fill="none"/><g id="ProcessOnG1027" transform="matrix(1.0,0.0,0.0,1.0,0.0,10.0)"><text id="ProcessOnText1028" fill="#000000" font-size="16" x="79.0" y="16.4" font-family="微软雅黑" font-weight="normal" font-style="normal" text-decoration="none" family="微软雅黑" text-anchor="middle" size="16">Worker node</text></g></g><g id="ProcessOnG1029" transform="matrix(1.0,0.0,0.0,1.0,81.0,35.5)" opacity="1.0"><path id="ProcessOnPath1030" d="M0.0 0.0L160.0 0.0L160.0 40.0L0.0 40.0Z" stroke="none" stroke-width="0.0" stroke-dasharray="none" opacity="1.0" fill="none"/><g id="ProcessOnG1031" transform="matrix(1.0,0.0,0.0,1.0,0.0,11.875)"><text id="ProcessOnText1032" fill="#000000" font-size="13" x="79.0" y="13.325" font-family="微软雅黑" font-weight="normal" font-style="normal" text-decoration="none" family="微软雅黑" text-anchor="middle" size="13">Executor</text></g></g><g id="ProcessOnG1033" transform="matrix(1.0,0.0,0.0,1.0,120.0,128.5)" opacity="1.0"><path id="ProcessOnPath1034" d="M0.0 0.0L160.0 0.0L160.0 40.0L0.0 40.0Z" stroke="none" stroke-width="0.0" stroke-dasharray="none" opacity="1.0" fill="none"/><g id="ProcessOnG1035" transform="matrix(1.0,0.0,0.0,1.0,0.0,11.875)"><text id="ProcessOnText1036" fill="#000000" font-size="13" x="79.0" y="13.325" font-family="微软雅黑" font-weight="normal" font-style="normal" text-decoration="none" family="微软雅黑" text-anchor="middle" size="13">Executor</text></g></g><g id="ProcessOnG1037" transform="matrix(1.0,0.0,0.0,1.0,-23.0,143.0)" opacity="1.0"><path id="ProcessOnPath1038" d="M0.0 0.0L160.0 0.0L160.0 40.0L0.0 40.0Z" stroke="none" stroke-width="0.0" stroke-dasharray="none" opacity="1.0" fill="none"/><g id="ProcessOnG1039" transform="matrix(1.0,0.0,0.0,1.0,0.0,11.25)"><text id="ProcessOnText1040" fill="#000000" font-size="14" x="79.0" y="14.350000000000001" font-family="微软雅黑" font-weight="normal" font-style="normal" text-decoration="none" family="微软雅黑" text-anchor="middle" size="14">Variables</text></g></g></g></g></svg>