<svg xmlns="http://www.w3.org/2000/svg" xmlns:xlink="http://www.w3.org/1999/xlink" id="processonSvg1000" viewBox="17.0 34.0 928.5 475.5" width="928.5" height="475.5"><defs id="ProcessOnDefs1001"><marker id="ProcessOnMarker1045" markerUnits="userSpaceOnUse" orient="auto" markerWidth="16.23606797749979" markerHeight="10.550836550532098" viewBox="-1.0 -1.3763819204711736 16.23606797749979 10.550836550532098" refX="15.23606797749979" refY="3.8990363547948754"><path id="ProcessOnPath1046" d="M12.0 3.8990363547948754L0.0 7.798072709589751V0.0Z" stroke="#323232" stroke-width="2.0" fill="#323232" transform="matrix(-1.0,1.2246467991473532E-16,-1.2246467991473532E-16,-1.0,14.23606797749979,7.798072709589751)"/></marker><marker id="ProcessOnMarker1047" markerUnits="userSpaceOnUse" orient="auto" markerWidth="16.23606797749979" markerHeight="10.550836550532098" viewBox="-1.0 -1.3763819204711736 16.23606797749979 10.550836550532098" refX="-1.0" refY="3.8990363547948754"><path id="ProcessOnPath1048" d="M12.0 3.8990363547948754L0.0 7.798072709589751V0.0Z" stroke="#323232" stroke-width="2.0" fill="#323232" transform="matrix(1.0,0.0,0.0,1.0,0.0,0.0)"/></marker><marker id="ProcessOnMarker1075" markerUnits="userSpaceOnUse" orient="auto" markerWidth="16.23606797749979" markerHeight="10.550836550532098" viewBox="-1.0 -1.3763819204711736 16.23606797749979 10.550836550532098" refX="15.23606797749979" refY="3.8990363547948754"><path id="ProcessOnPath1076" d="M12.0 3.8990363547948754L0.0 7.798072709589751V0.0Z" stroke="#323232" stroke-width="2.0" fill="#323232" transform="matrix(-1.0,1.2246467991473532E-16,-1.2246467991473532E-16,-1.0,14.23606797749979,7.798072709589751)"/></marker><marker id="ProcessOnMarker1077" markerUnits="userSpaceOnUse" orient="auto" markerWidth="16.23606797749979" markerHeight="10.550836550532098" viewBox="-1.0 -1.3763819204711736 16.23606797749979 10.550836550532098" refX="-1.0" refY="3.8990363547948754"><path id="ProcessOnPath1078" d="M12.0 3.8990363547948754L0.0 7.798072709589751V0.0Z" stroke="#323232" stroke-width="2.0" fill="#323232" transform="matrix(1.0,0.0,0.0,1.0,0.0,0.0)"/></marker><marker id="ProcessOnMarker1081" markerUnits="userSpaceOnUse" orient="auto" markerWidth="16.23606797749979" markerHeight="10.550836550532098" viewBox="-1.0 -1.3763819204711736 16.23606797749979 10.550836550532098" refX="15.23606797749979" refY="3.8990363547948754"><path id="ProcessOnPath1082" d="M12.0 3.8990363547948754L0.0 7.798072709589751V0.0Z" stroke="#323232" stroke-width="2.0" fill="#323232" transform="matrix(-1.0,1.2246467991473532E-16,-1.2246467991473532E-16,-1.0,14.23606797749979,7.798072709589751)"/></marker><marker id="ProcessOnMarker1083" markerUnits="userSpaceOnUse" orient="auto" markerWidth="16.23606797749979" markerHeight="10.550836550532098" viewBox="-1.0 -1.3763819204711736 16.23606797749979 10.550836550532098" refX="-1.0" refY="3.8990363547948754"><path id="ProcessOnPath1084" d="M12.0 3.8990363547948754L0.0 7.798072709589751V0.0Z" stroke="#323232" stroke-width="2.0" fill="#323232" transform="matrix(1.0,0.0,0.0,1.0,0.0,0.0)"/></marker><marker id="ProcessOnMarker1087" markerUnits="userSpaceOnUse" orient="auto" markerWidth="16.23606797749979" markerHeight="10.550836550532098" viewBox="-1.0 -1.3763819204711736 16.23606797749979 10.550836550532098" refX="15.23606797749979" refY="3.8990363547948754"><path id="ProcessOnPath1088" d="M12.0 3.8990363547948754L0.0 7.798072709589751V0.0Z" stroke="#323232" stroke-width="2.0" fill="#323232" transform="matrix(-1.0,1.2246467991473532E-16,-1.2246467991473532E-16,-1.0,14.23606797749979,7.798072709589751)"/></marker><marker id="ProcessOnMarker1089" markerUnits="userSpaceOnUse" orient="auto" markerWidth="16.23606797749979" markerHeight="10.550836550532098" viewBox="-1.0 -1.3763819204711736 16.23606797749979 10.550836550532098" refX="-1.0" refY="3.8990363547948754"><path id="ProcessOnPath1090" d="M12.0 3.8990363547948754L0.0 7.798072709589751V0.0Z" stroke="#323232" stroke-width="2.0" fill="#323232" transform="matrix(1.0,0.0,0.0,1.0,0.0,0.0)"/></marker><marker id="ProcessOnMarker1093" markerUnits="userSpaceOnUse" orient="auto" markerWidth="16.23606797749979" markerHeight="10.550836550532098" viewBox="-1.0 -1.3763819204711736 16.23606797749979 10.550836550532098" refX="15.23606797749979" refY="3.8990363547948754"><path id="ProcessOnPath1094" d="M12.0 3.8990363547948754L0.0 7.798072709589751V0.0Z" stroke="#323232" stroke-width="2.0" fill="#323232" transform="matrix(-1.0,1.2246467991473532E-16,-1.2246467991473532E-16,-1.0,14.23606797749979,7.798072709589751)"/></marker><marker id="ProcessOnMarker1095" markerUnits="userSpaceOnUse" orient="auto" markerWidth="16.23606797749979" markerHeight="10.550836550532098" viewBox="-1.0 -1.3763819204711736 16.23606797749979 10.550836550532098" refX="-1.0" refY="3.8990363547948754"><path id="ProcessOnPath1096" d="M12.0 3.8990363547948754L0.0 7.798072709589751V0.0Z" stroke="#323232" stroke-width="2.0" fill="#323232" transform="matrix(1.0,0.0,0.0,1.0,0.0,0.0)"/></marker><marker id="ProcessOnMarker1099" markerUnits="userSpaceOnUse" orient="auto" markerWidth="16.23606797749979" markerHeight="10.550836550532098" viewBox="-1.0 -1.3763819204711736 16.23606797749979 10.550836550532098" refX="15.23606797749979" refY="3.8990363547948754"><path id="ProcessOnPath1100" d="M12.0 3.8990363547948754L0.0 7.798072709589751V0.0Z" stroke="#323232" stroke-width="2.0" fill="#323232" transform="matrix(-1.0,1.2246467991473532E-16,-1.2246467991473532E-16,-1.0,14.23606797749979,7.798072709589751)"/></marker><marker id="ProcessOnMarker1101" markerUnits="userSpaceOnUse" orient="auto" markerWidth="16.23606797749979" markerHeight="10.550836550532098" viewBox="-1.0 -1.3763819204711736 16.23606797749979 10.550836550532098" refX="-1.0" refY="3.8990363547948754"><path id="ProcessOnPath1102" d="M12.0 3.8990363547948754L0.0 7.798072709589751V0.0Z" stroke="#323232" stroke-width="2.0" fill="#323232" transform="matrix(1.0,0.0,0.0,1.0,0.0,0.0)"/></marker></defs><g id="ProcessOnG1002"><path id="ProcessOnPath1003" d="M17.0 34.0H945.5V509.5H17.0V34.0Z" fill="none"/><g id="ProcessOnG1004"><g id="ProcessOnG1005" transform="matrix(1.0,0.0,0.0,1.0,55.0,204.0)" opacity="1.0"><path id="ProcessOnPath1006" d="M0.0 0.0L238.0 0.0L238.0 147.0L0.0 147.0Z" stroke="#323232" stroke-width="2.0" stroke-dasharray="none" opacity="1.0" fill="#ffffff"/></g><g id="ProcessOnG1007" transform="matrix(1.0,0.0,0.0,1.0,81.0,243.0)" opacity="1.0"><path id="ProcessOnPath1008" d="M0.0 0.0L168.0 0.0L168.0 77.0L0.0 77.0Z" stroke="#323232" stroke-width="2.0" stroke-dasharray="none" opacity="1.0" fill="#ffb366"/><g id="ProcessOnG1009" transform="matrix(1.0,0.0,0.0,1.0,10.0,30.375)"><text id="ProcessOnText1010" fill="#000000" font-size="13" x="73.0" y="13.325" font-family="微软雅黑" font-weight="normal" font-style="normal" text-decoration="none" family="微软雅黑" text-anchor="middle" size="13">SparkContext</text></g></g><g id="ProcessOnG1011" transform="matrix(1.0,0.0,0.0,1.0,37.0,204.0)" opacity="1.0"><path id="ProcessOnPath1012" d="M0.0 0.0L160.0 0.0L160.0 40.0L0.0 40.0Z" stroke="none" stroke-width="0.0" stroke-dasharray="none" opacity="1.0" fill="none"/><g id="ProcessOnG1013" transform="matrix(1.0,0.0,0.0,1.0,0.0,10.0)"><text id="ProcessOnText1014" fill="#000000" font-size="16" x="79.0" y="16.4" font-family="微软雅黑" font-weight="normal" font-style="normal" text-decoration="none" family="微软雅黑" text-anchor="middle" size="16">Driver Program</text></g></g><g id="ProcessOnG1015" transform="matrix(1.0,0.0,0.0,1.0,405.0,243.0)" opacity="1.0"><path id="ProcessOnPath1016" d="M0.0 0.0L186.0 0.0L186.0 70.75L0.0 70.75Z" stroke="#323232" stroke-width="2.0" stroke-dasharray="none" opacity="1.0" fill="#ffffff"/><g id="ProcessOnG1017" transform="matrix(1.0,0.0,0.0,1.0,10.0,27.25)"><text id="ProcessOnText1018" fill="#000000" font-size="13" x="82.0" y="13.325" font-family="微软雅黑" font-weight="normal" font-style="normal" text-decoration="none" family="微软雅黑" text-anchor="middle" size="13">Cluster Manager</text></g></g><g id="ProcessOnG1019" transform="matrix(1.0,0.0,0.0,1.0,684.5,54.0)" opacity="1.0"><path id="ProcessOnPath1020" d="M0.0 0.0L241.0 0.0L241.0 179.0L0.0 179.0Z" stroke="#323232" stroke-width="2.0" stroke-dasharray="none" opacity="1.0" fill="#ffffff"/></g><g id="ProcessOnG1021" transform="matrix(1.0,0.0,0.0,1.0,699.0,104.0)" opacity="1.0"><path id="ProcessOnPath1022" d="M0.0 0.0L212.0 0.0L212.0 111.0L0.0 111.0Z" stroke="#323232" stroke-width="2.0" stroke-dasharray="none" opacity="1.0" fill="#ffb366"/></g><g id="ProcessOnG1023" transform="matrix(1.0,0.0,0.0,1.0,819.0,104.0)" opacity="1.0"><path id="ProcessOnPath1024" d="M0.0 0.0L92.0 0.0L92.0 47.0L0.0 47.0Z" stroke="#323232" stroke-width="2.0" stroke-dasharray="none" opacity="1.0" fill="#ffcc99"/><g id="ProcessOnG1025" transform="matrix(1.0,0.0,0.0,1.0,10.0,15.375)"><text id="ProcessOnText1026" fill="#000000" font-size="13" x="35.0" y="13.325" font-family="微软雅黑" font-weight="normal" font-style="normal" text-decoration="none" family="微软雅黑" text-anchor="middle" size="13">Cache</text></g></g><g id="ProcessOnG1027" transform="matrix(1.0,0.0,0.0,1.0,716.75,165.0)" opacity="1.0"><path id="ProcessOnPath1028" d="M0.0 0.0L81.0 0.0L81.0 39.0L0.0 39.0Z" stroke="#323232" stroke-width="2.0" stroke-dasharray="none" opacity="1.0" fill="#ff8000"/><g id="ProcessOnG1029" transform="matrix(1.0,0.0,0.0,1.0,10.0,11.375)"><text id="ProcessOnText1030" fill="#000000" font-size="13" x="29.5" y="13.325" font-family="微软雅黑" font-weight="normal" font-style="normal" text-decoration="none" family="微软雅黑" text-anchor="middle" size="13">Task</text></g></g><g id="ProcessOnG1031" transform="matrix(1.0,0.0,0.0,1.0,675.5,113.5)" opacity="1.0"><path id="ProcessOnPath1032" d="M0.0 0.0L160.0 0.0L160.0 40.0L0.0 40.0Z" stroke="none" stroke-width="0.0" stroke-dasharray="none" opacity="1.0" fill="none"/><g id="ProcessOnG1033" transform="matrix(1.0,0.0,0.0,1.0,0.0,6.875)"><text id="ProcessOnText1034" fill="#000000" font-size="21" x="79.0" y="21.525" font-family="微软雅黑" font-weight="normal" font-style="normal" text-decoration="none" family="微软雅黑" text-anchor="middle" size="21">Executor</text></g></g><g id="ProcessOnG1035" transform="matrix(1.0,0.0,0.0,1.0,684.5,59.0)" opacity="1.0"><path id="ProcessOnPath1036" d="M0.0 0.0L160.0 0.0L160.0 40.0L0.0 40.0Z" stroke="none" stroke-width="0.0" stroke-dasharray="none" opacity="1.0" fill="none"/><g id="ProcessOnG1037" transform="matrix(1.0,0.0,0.0,1.0,0.0,6.875)"><text id="ProcessOnText1038" fill="#000000" font-size="21" x="79.0" y="21.525" font-family="微软雅黑" font-weight="normal" font-style="normal" text-decoration="none" family="微软雅黑" text-anchor="middle" size="21">Worker Mode</text></g></g><g id="ProcessOnG1039" transform="matrix(1.0,0.0,0.0,1.0,812.25,165.0)" opacity="1.0"><path id="ProcessOnPath1040" d="M0.0 0.0L81.0 0.0L81.0 39.0L0.0 39.0Z" stroke="#323232" stroke-width="2.0" stroke-dasharray="none" opacity="1.0" fill="#ff8000"/><g id="ProcessOnG1041" transform="matrix(1.0,0.0,0.0,1.0,10.0,11.375)"><text id="ProcessOnText1042" fill="#000000" font-size="13" x="29.5" y="13.325" font-family="微软雅黑" font-weight="normal" font-style="normal" text-decoration="none" family="微软雅黑" text-anchor="middle" size="13">Task</text></g></g><g id="ProcessOnG1043"><path id="ProcessOnPath1044" d="M178.47281001291284 235.88514527407975C432.0 102.0 617.0 128.0 669.6504104372783 140.0900942485602" stroke="#323232" stroke-width="2.0" stroke-dasharray="none" fill="none" marker-start="url(#ProcessOnMarker1045)" marker-end="url(#ProcessOnMarker1047)"/></g><g id="ProcessOnG1049" transform="matrix(1.0,0.0,0.0,1.0,684.5,310.5)" opacity="1.0"><path id="ProcessOnPath1050" d="M0.0 0.0L241.0 0.0L241.0 179.0L0.0 179.0Z" stroke="#323232" stroke-width="2.0" stroke-dasharray="none" opacity="1.0" fill="#ffffff"/></g><g id="ProcessOnG1051" transform="matrix(1.0,0.0,0.0,1.0,699.0,361.5)" opacity="1.0"><path id="ProcessOnPath1052" d="M0.0 0.0L212.0 0.0L212.0 111.0L0.0 111.0Z" stroke="#323232" stroke-width="2.0" stroke-dasharray="none" opacity="1.0" fill="#ffb366"/></g><g id="ProcessOnG1053" transform="matrix(1.0,0.0,0.0,1.0,819.0,361.5)" opacity="1.0"><path id="ProcessOnPath1054" d="M0.0 0.0L92.0 0.0L92.0 47.0L0.0 47.0Z" stroke="#323232" stroke-width="2.0" stroke-dasharray="none" opacity="1.0" fill="#ffcc99"/><g id="ProcessOnG1055" transform="matrix(1.0,0.0,0.0,1.0,10.0,15.375)"><text id="ProcessOnText1056" fill="#000000" font-size="13" x="35.0" y="13.325" font-family="微软雅黑" font-weight="normal" font-style="normal" text-decoration="none" family="微软雅黑" text-anchor="middle" size="13">Cache</text></g></g><g id="ProcessOnG1057" transform="matrix(1.0,0.0,0.0,1.0,716.75,422.5)" opacity="1.0"><path id="ProcessOnPath1058" d="M0.0 0.0L81.0 0.0L81.0 39.0L0.0 39.0Z" stroke="#323232" stroke-width="2.0" stroke-dasharray="none" opacity="1.0" fill="#ff8000"/><g id="ProcessOnG1059" transform="matrix(1.0,0.0,0.0,1.0,10.0,11.375)"><text id="ProcessOnText1060" fill="#000000" font-size="13" x="29.5" y="13.325" font-family="微软雅黑" font-weight="normal" font-style="normal" text-decoration="none" family="微软雅黑" text-anchor="middle" size="13">Task</text></g></g><g id="ProcessOnG1061" transform="matrix(1.0,0.0,0.0,1.0,675.5,371.0)" opacity="1.0"><path id="ProcessOnPath1062" d="M0.0 0.0L160.0 0.0L160.0 40.0L0.0 40.0Z" stroke="none" stroke-width="0.0" stroke-dasharray="none" opacity="1.0" fill="none"/><g id="ProcessOnG1063" transform="matrix(1.0,0.0,0.0,1.0,0.0,6.875)"><text id="ProcessOnText1064" fill="#000000" font-size="21" x="79.0" y="21.525" font-family="微软雅黑" font-weight="normal" font-style="normal" text-decoration="none" family="微软雅黑" text-anchor="middle" size="21">Executor</text></g></g><g id="ProcessOnG1065" transform="matrix(1.0,0.0,0.0,1.0,684.5,316.5)" opacity="1.0"><path id="ProcessOnPath1066" d="M0.0 0.0L160.0 0.0L160.0 40.0L0.0 40.0Z" stroke="none" stroke-width="0.0" stroke-dasharray="none" opacity="1.0" fill="none"/><g id="ProcessOnG1067" transform="matrix(1.0,0.0,0.0,1.0,0.0,6.875)"><text id="ProcessOnText1068" fill="#000000" font-size="21" x="79.0" y="21.525" font-family="微软雅黑" font-weight="normal" font-style="normal" text-decoration="none" family="微软雅黑" text-anchor="middle" size="21">Worker Mode</text></g></g><g id="ProcessOnG1069" transform="matrix(1.0,0.0,0.0,1.0,812.25,422.5)" opacity="1.0"><path id="ProcessOnPath1070" d="M0.0 0.0L81.0 0.0L81.0 39.0L0.0 39.0Z" stroke="#323232" stroke-width="2.0" stroke-dasharray="none" opacity="1.0" fill="#ff8000"/><g id="ProcessOnG1071" transform="matrix(1.0,0.0,0.0,1.0,10.0,11.375)"><text id="ProcessOnText1072" fill="#000000" font-size="13" x="29.5" y="13.325" font-family="微软雅黑" font-weight="normal" font-style="normal" text-decoration="none" family="微软雅黑" text-anchor="middle" size="13">Task</text></g></g><g id="ProcessOnG1073"><path id="ProcessOnPath1074" d="M178.78386321999764 326.49175493586984C475.0 466.0 658.0 390.0 670.2451086102009 394.6207957019626" stroke="#323232" stroke-width="2.0" stroke-dasharray="none" fill="none" marker-start="url(#ProcessOnMarker1075)" marker-end="url(#ProcessOnMarker1077)"/></g><g id="ProcessOnG1079"><path id="ProcessOnPath1080" d="M511.82884385493 320.1453768498001L670.67115614507 393.6046231501999" stroke="#323232" stroke-width="2.0" stroke-dasharray="none" fill="none" marker-start="url(#ProcessOnMarker1081)" marker-end="url(#ProcessOnMarker1083)"/></g><g id="ProcessOnG1085"><path id="ProcessOnPath1086" d="M511.4425916390878 235.82821518450808L671.0574083609122 150.6717848154919" stroke="#323232" stroke-width="2.0" stroke-dasharray="none" fill="none" marker-start="url(#ProcessOnMarker1087)" marker-end="url(#ProcessOnMarker1089)"/></g><g id="ProcessOnG1091"><path id="ProcessOnPath1092" d="M308.2360679774998 277.5C337.801367166639 277.5 360.198632833361 278.375 389.7639320225002 278.375" stroke="#323232" stroke-width="2.0" stroke-dasharray="none" fill="none" marker-start="url(#ProcessOnMarker1093)" marker-end="url(#ProcessOnMarker1095)"/></g><g id="ProcessOnG1097"><path id="ProcessOnPath1098" d="M805.0 230.2360679774998C805.0 273.6 805.0 302.9 805.0 346.2639320225002" stroke="#323232" stroke-width="2.0" stroke-dasharray="none" fill="none" marker-start="url(#ProcessOnMarker1099)" marker-end="url(#ProcessOnMarker1101)"/></g></g></g></svg>