<svg xmlns="http://www.w3.org/2000/svg" xmlns:xlink="http://www.w3.org/1999/xlink" id="processonSvg1000" viewBox="9.5 43.5 1046.0 322.0" width="1046.0" height="322.0"><defs id="ProcessOnDefs1001"><marker id="ProcessOnMarker1007" markerUnits="userSpaceOnUse" orient="auto" markerWidth="16.23606797749979" markerHeight="10.550836550532098" viewBox="-1.0 -1.3763819204711736 16.23606797749979 10.550836550532098" refX="-1.0" refY="3.8990363547948754"><path id="ProcessOnPath1008" d="M12.0 3.8990363547948754L0.0 7.798072709589751V0.0Z" stroke="#323232" stroke-width="2.0" fill="#323232" transform="matrix(1.0,0.0,0.0,1.0,0.0,0.0)"/></marker><marker id="ProcessOnMarker1031" markerUnits="userSpaceOnUse" orient="auto" markerWidth="16.23606797749979" markerHeight="10.550836550532098" viewBox="-1.0 -1.3763819204711736 16.23606797749979 10.550836550532098" refX="-1.0" refY="3.8990363547948754"><path id="ProcessOnPath1032" d="M12.0 3.8990363547948754L0.0 7.798072709589751V0.0Z" stroke="#323232" stroke-width="2.0" fill="#323232" transform="matrix(1.0,0.0,0.0,1.0,0.0,0.0)"/></marker><marker id="ProcessOnMarker1047" markerUnits="userSpaceOnUse" orient="auto" markerWidth="16.23606797749979" markerHeight="10.550836550532098" viewBox="-1.0 -1.3763819204711736 16.23606797749979 10.550836550532098" refX="-1.0" refY="3.8990363547948754"><path id="ProcessOnPath1048" d="M12.0 3.8990363547948754L0.0 7.798072709589751V0.0Z" stroke="#323232" stroke-width="2.0" fill="#323232" transform="matrix(1.0,0.0,0.0,1.0,0.0,0.0)"/></marker><marker id="ProcessOnMarker1068" markerUnits="userSpaceOnUse" orient="auto" markerWidth="16.23606797749979" markerHeight="10.550836550532098" viewBox="-1.0 -1.3763819204711736 16.23606797749979 10.550836550532098" refX="15.23606797749979" refY="3.8990363547948754"><path id="ProcessOnPath1069" d="M12.0 3.8990363547948754L0.0 7.798072709589751V0.0Z" stroke="#323232" stroke-width="2.0" fill="#323232" transform="matrix(-1.0,1.2246467991473532E-16,-1.2246467991473532E-16,-1.0,14.23606797749979,7.798072709589751)"/></marker><marker id="ProcessOnMarker1070" markerUnits="userSpaceOnUse" orient="auto" markerWidth="16.23606797749979" markerHeight="10.550836550532098" viewBox="-1.0 -1.3763819204711736 16.23606797749979 10.550836550532098" refX="-1.0" refY="3.8990363547948754"><path id="ProcessOnPath1071" d="M12.0 3.8990363547948754L0.0 7.798072709589751V0.0Z" stroke="#323232" stroke-width="2.0" fill="#323232" transform="matrix(1.0,0.0,0.0,1.0,0.0,0.0)"/></marker><marker id="ProcessOnMarker1079" markerUnits="userSpaceOnUse" orient="auto" markerWidth="16.23606797749979" markerHeight="10.550836550532098" viewBox="-1.0 -1.3763819204711736 16.23606797749979 10.550836550532098" refX="-1.0" refY="3.8990363547948754"><path id="ProcessOnPath1080" d="M12.0 3.8990363547948754L0.0 7.798072709589751V0.0Z" stroke="#323232" stroke-width="2.0" fill="#323232" transform="matrix(1.0,0.0,0.0,1.0,0.0,0.0)"/></marker><marker id="ProcessOnMarker1086" markerUnits="userSpaceOnUse" orient="auto" markerWidth="16.23606797749979" markerHeight="10.550836550532098" viewBox="-1.0 -1.3763819204711736 16.23606797749979 10.550836550532098" refX="-1.0" refY="3.8990363547948754"><path id="ProcessOnPath1087" d="M12.0 3.8990363547948754L0.0 7.798072709589751V0.0Z" stroke="#323232" stroke-width="2.0" fill="#323232" transform="matrix(1.0,0.0,0.0,1.0,0.0,0.0)"/></marker><marker id="ProcessOnMarker1093" markerUnits="userSpaceOnUse" orient="auto" markerWidth="16.23606797749979" markerHeight="10.550836550532098" viewBox="-1.0 -1.3763819204711736 16.23606797749979 10.550836550532098" refX="-1.0" refY="3.8990363547948754"><path id="ProcessOnPath1094" d="M12.0 3.8990363547948754L0.0 7.798072709589751V0.0Z" stroke="#323232" stroke-width="2.0" fill="#323232" transform="matrix(1.0,0.0,0.0,1.0,0.0,0.0)"/></marker></defs><g id="ProcessOnG1002"><path id="ProcessOnPath1003" d="M9.5 43.5H1055.5V365.5H9.5V43.5Z" fill="none"/><g id="ProcessOnG1004"><g id="ProcessOnG1005"><path id="ProcessOnPath1006" d="M850.0 268.0L940.0 268.0L940.0 73.0L865.2360679774998 73.0" stroke="#323232" stroke-width="2.0" stroke-dasharray="none" fill="none" marker-end="url(#ProcessOnMarker1007)"/><g id="ProcessOnG1009" transform="matrix(1.0,0.0,0.0,1.0,940.0,137.49303398874991)"><path id="ProcessOnPath1010" d="M0 0H191.0V81.25H0Z" fill="#fff" transform="matrix(1.0,0.0,0.0,1.0,-95.5,0.0)"/><text id="ProcessOnText1011" fill="#000000" font-size="13" x="0.0" y="13.325" font-family="微软雅黑" font-weight="normal" font-style="normal" text-decoration="none" family="微软雅黑" text-anchor="middle" size="13"></text><text id="ProcessOnText1012" fill="#000000" font-size="13" x="0.0" y="29.575" font-family="微软雅黑" font-weight="normal" font-style="normal" text-decoration="none" family="微软雅黑" text-anchor="middle" size="13"></text><text id="ProcessOnText1013" fill="#000000" font-size="13" x="0.0" y="45.825" font-family="微软雅黑" font-weight="normal" font-style="normal" text-decoration="none" family="微软雅黑" text-anchor="middle" size="13"></text><text id="ProcessOnText1014" fill="#000000" font-size="13" x="0.0" y="62.075" font-family="微软雅黑" font-weight="normal" font-style="normal" text-decoration="none" family="微软雅黑" text-anchor="middle" size="13"></text><text id="ProcessOnText1015" fill="#000000" font-size="13" x="0.0" y="78.325" font-family="微软雅黑" font-weight="normal" font-style="normal" text-decoration="none" family="微软雅黑" text-anchor="middle" size="13">⑥ Issue application commands</text></g></g><g id="ProcessOnG1016" transform="matrix(1.0,0.0,0.0,1.0,29.5,266.5)" opacity="1.0"><path id="ProcessOnPath1017" d="M0.0 0.0L151.0 0.0L151.0 44.0L0.0 44.0Z" stroke="#323232" stroke-width="2.0" stroke-dasharray="none" opacity="1.0" fill="#007fff"/><g id="ProcessOnG1018" transform="matrix(1.0,0.0,0.0,1.0,10.0,13.875)"><text id="ProcessOnText1019" fill="#000000" font-size="13" x="64.5" y="13.325" font-family="微软雅黑" font-weight="normal" font-style="normal" text-decoration="none" family="微软雅黑" text-anchor="middle" size="13">YARN Client</text></g></g><g id="ProcessOnG1020" transform="matrix(1.0,0.0,0.0,1.0,29.5,223.5)" opacity="1.0"><path id="ProcessOnPath1021" d="M0.0 0.0L151.0 0.0L151.0 43.0L0.0 43.0Z" stroke="#323232" stroke-width="2.0" stroke-dasharray="none" opacity="1.0" fill="#ffffff"/><g id="ProcessOnG1022" transform="matrix(1.0,0.0,0.0,1.0,10.0,13.375)"><text id="ProcessOnText1023" fill="#000000" font-size="13" x="64.5" y="13.325" font-family="微软雅黑" font-weight="normal" font-style="normal" text-decoration="none" family="微软雅黑" text-anchor="middle" size="13">User Program</text></g></g><g id="ProcessOnG1024" transform="matrix(1.0,0.0,0.0,1.0,718.5,237.5)" opacity="1.0"><path id="ProcessOnPath1025" d="M0.0 0.0L132.0 0.0L132.0 39.0L0.0 39.0Z" stroke="#323232" stroke-width="2.0" stroke-dasharray="none" opacity="1.0" fill="#ffffff"/><g id="ProcessOnG1026" transform="matrix(1.0,0.0,0.0,1.0,10.0,3.25)"><text id="ProcessOnText1027" fill="#000000" font-size="13" x="55.0" y="13.325" font-family="微软雅黑" font-weight="normal" font-style="normal" text-decoration="none" family="微软雅黑" text-anchor="middle" size="13">Spark Context/Dr</text><text id="ProcessOnText1028" fill="#000000" font-size="13" x="55.0" y="29.575" font-family="微软雅黑" font-weight="normal" font-style="normal" text-decoration="none" family="微软雅黑" text-anchor="middle" size="13">iver</text></g></g><g id="ProcessOnG1029"><path id="ProcessOnPath1030" d="M180.5 245.0L333.3026514446304 255.9144751031879" stroke="#323232" stroke-width="2.0" stroke-dasharray="none" fill="none" marker-end="url(#ProcessOnMarker1031)"/><g id="ProcessOnG1033" transform="matrix(1.0,0.0,0.0,1.0,256.90132572231516,234.20723755159395)"><path id="ProcessOnPath1034" d="M0 0H157.0V32.5H0Z" fill="#fff" transform="matrix(1.0,0.0,0.0,1.0,-78.5,0.0)"/><text id="ProcessOnText1035" fill="#000000" font-size="13" x="0.0" y="13.325" font-family="微软雅黑" font-weight="normal" font-style="normal" text-decoration="none" family="微软雅黑" text-anchor="middle" size="13">① Request to </text><text id="ProcessOnText1036" fill="#000000" font-size="13" x="0.0" y="29.575" font-family="微软雅黑" font-weight="normal" font-style="normal" text-decoration="none" family="微软雅黑" text-anchor="middle" size="13">launch ApplicationMaster</text></g></g><g id="ProcessOnG1037" transform="matrix(1.0,0.0,0.0,1.0,348.5,225.25)" opacity="1.0"><path id="ProcessOnPath1038" d="M0.0 0.0L204.0 0.0L204.0 63.5L0.0 63.5Z" stroke="#323232" stroke-width="2.0" stroke-dasharray="none" opacity="1.0" fill="#007fff"/><g id="ProcessOnG1039" transform="matrix(1.0,0.0,0.0,1.0,10.0,23.625)"><text id="ProcessOnText1040" fill="#000000" font-size="13" x="91.0" y="13.325" font-family="微软雅黑" font-weight="normal" font-style="normal" text-decoration="none" family="微软雅黑" text-anchor="middle" size="13">ResourceManager</text></g></g><g id="ProcessOnG1041" transform="matrix(1.0,0.0,0.0,1.0,718.5,100.5)" opacity="1.0"><path id="ProcessOnPath1042" d="M0.0 0.0L132.0 0.0L132.0 32.0L0.0 32.0Z" stroke="#323232" stroke-width="2.0" stroke-dasharray="none" opacity="1.0" fill="#007fff"/><g id="ProcessOnG1043" transform="matrix(1.0,0.0,0.0,1.0,10.0,7.875)"><text id="ProcessOnText1044" fill="#000000" font-size="13" x="55.0" y="13.325" font-family="微软雅黑" font-weight="normal" font-style="normal" text-decoration="none" family="微软雅黑" text-anchor="middle" size="13">Node Manager</text></g></g><g id="ProcessOnG1045"><path id="ProcessOnPath1046" d="M550.447879140046 287.86184427528457L703.7111132659281 325.8357679410567" stroke="#323232" stroke-width="2.0" stroke-dasharray="none" fill="none" marker-end="url(#ProcessOnMarker1047)"/><g id="ProcessOnG1049" transform="matrix(1.0,0.0,0.0,1.0,627.079496202987,290.5988061081706)"><path id="ProcessOnPath1050" d="M0 0H112.0V32.5H0Z" fill="#fff" transform="matrix(1.0,0.0,0.0,1.0,-56.0,0.0)"/><text id="ProcessOnText1051" fill="#000000" font-size="13" x="0.0" y="13.325" font-family="微软雅黑" font-weight="normal" font-style="normal" text-decoration="none" family="微软雅黑" text-anchor="middle" size="13">② Launch</text><text id="ProcessOnText1052" fill="#000000" font-size="13" x="0.0" y="29.575" font-family="微软雅黑" font-weight="normal" font-style="normal" text-decoration="none" family="微软雅黑" text-anchor="middle" size="13">ApplicationMaster</text></g></g><g id="ProcessOnG1053" transform="matrix(1.0,0.0,0.0,1.0,718.5,63.5)" opacity="1.0"><path id="ProcessOnPath1054" d="M0.0 0.0L132.0 0.0L132.0 37.0L0.0 37.0Z" stroke="#323232" stroke-width="2.0" stroke-dasharray="none" opacity="1.0" fill="#ffffff"/><g id="ProcessOnG1055" transform="matrix(1.0,0.0,0.0,1.0,10.0,10.375)"><text id="ProcessOnText1056" fill="#000000" font-size="13" x="55.0" y="13.325" font-family="微软雅黑" font-weight="normal" font-style="normal" text-decoration="none" family="微软雅黑" text-anchor="middle" size="13">Spark Executor</text></g></g><g id="ProcessOnG1057" transform="matrix(1.0,0.0,0.0,1.0,718.5,313.5)" opacity="1.0"><path id="ProcessOnPath1058" d="M0.0 0.0L132.0 0.0L132.0 32.0L0.0 32.0Z" stroke="#323232" stroke-width="2.0" stroke-dasharray="none" opacity="1.0" fill="#007fff"/><g id="ProcessOnG1059" transform="matrix(1.0,0.0,0.0,1.0,10.0,7.875)"><text id="ProcessOnText1060" fill="#000000" font-size="13" x="55.0" y="13.325" font-family="微软雅黑" font-weight="normal" font-style="normal" text-decoration="none" family="微软雅黑" text-anchor="middle" size="13">NodeManager</text></g></g><g id="ProcessOnG1061" transform="matrix(1.0,0.0,0.0,1.0,718.5,276.5)" opacity="1.0"><path id="ProcessOnPath1062" d="M0.0 0.0L132.0 0.0L132.0 37.0L0.0 37.0Z" stroke="#323232" stroke-width="2.0" stroke-dasharray="none" opacity="1.0" fill="#ffffff"/><g id="ProcessOnG1063" transform="matrix(1.0,0.0,0.0,1.0,10.0,2.25)"><text id="ProcessOnText1064" fill="#000000" font-size="13" x="55.0" y="13.325" font-family="微软雅黑" font-weight="normal" font-style="normal" text-decoration="none" family="微软雅黑" text-anchor="middle" size="13">ApplicationMaste</text><text id="ProcessOnText1065" fill="#000000" font-size="13" x="55.0" y="29.575" font-family="微软雅黑" font-weight="normal" font-style="normal" text-decoration="none" family="微软雅黑" text-anchor="middle" size="13">r</text></g></g><g id="ProcessOnG1066"><path id="ProcessOnPath1067" d="M704.3989020262679 289.229661764662L563.8803686646789 231.72779436820497" stroke="#323232" stroke-width="2.0" stroke-dasharray="none" fill="none" marker-start="url(#ProcessOnMarker1068)" marker-end="url(#ProcessOnMarker1070)"/><g id="ProcessOnG1072" transform="matrix(1.0,0.0,0.0,1.0,634.1396353454734,236.10372806643352)"><path id="ProcessOnPath1073" d="M0 0H165.0V48.75H0Z" fill="#fff" transform="matrix(1.0,0.0,0.0,1.0,-82.5,0.0)"/><text id="ProcessOnText1074" fill="#000000" font-size="13" x="0.0" y="13.325" font-family="微软雅黑" font-weight="normal" font-style="normal" text-decoration="none" family="微软雅黑" text-anchor="middle" size="13">③ Request to  </text><text id="ProcessOnText1075" fill="#000000" font-size="13" x="0.0" y="29.575" font-family="微软雅黑" font-weight="normal" font-style="normal" text-decoration="none" family="微软雅黑" text-anchor="middle" size="13">allocate YARN containers /</text><text id="ProcessOnText1076" fill="#000000" font-size="13" x="0.0" y="45.825" font-family="微软雅黑" font-weight="normal" font-style="normal" text-decoration="none" family="微软雅黑" text-anchor="middle" size="13">Reply</text></g></g><g id="ProcessOnG1077"><path id="ProcessOnPath1078" d="M784.5 237.5L784.5 147.7360679774998" stroke="#323232" stroke-width="2.0" stroke-dasharray="none" fill="none" marker-end="url(#ProcessOnMarker1079)"/><g id="ProcessOnG1081" transform="matrix(1.0,0.0,0.0,1.0,784.5,184.49303398874991)"><path id="ProcessOnPath1082" d="M0 0H159.0V16.25H0Z" fill="#fff" transform="matrix(1.0,0.0,0.0,1.0,-79.5,0.0)"/><text id="ProcessOnText1083" fill="#000000" font-size="13" x="0.0" y="13.325" font-family="微软雅黑" font-weight="normal" font-style="normal" text-decoration="none" family="微软雅黑" text-anchor="middle" size="13">④ Launch Spark executor</text></g></g><g id="ProcessOnG1084"><path id="ProcessOnPath1085" d="M850.5 82.0L901.5 82.0L901.5 246.0L865.2360679774998 246.0" stroke="#323232" stroke-width="2.0" stroke-dasharray="none" fill="none" marker-end="url(#ProcessOnMarker1086)"/><g id="ProcessOnG1088" transform="matrix(1.0,0.0,0.0,1.0,901.5,148.50696601125009)"><path id="ProcessOnPath1089" d="M0 0H159.0V16.25H0Z" fill="#fff" transform="matrix(1.0,0.0,0.0,1.0,-79.5,0.0)"/><text id="ProcessOnText1090" fill="#000000" font-size="13" x="0.0" y="13.325" font-family="微软雅黑" font-weight="normal" font-style="normal" text-decoration="none" family="微软雅黑" text-anchor="middle" size="13">⑤ Register with the driver</text></g></g><g id="ProcessOnG1091"><path id="ProcessOnPath1092" d="M718.766044443119 238.64278760968654L688.766044443119 238.64278760968654L688.766044443119 195.25L450.5 195.25L450.5 210.0139320225002" stroke="#323232" stroke-width="2.0" stroke-dasharray="none" fill="none" marker-end="url(#ProcessOnMarker1093)"/><g id="ProcessOnG1095" transform="matrix(1.0,0.0,0.0,1.0,598.9474500151526,187.125)"><path id="ProcessOnPath1096" d="M0 0H221.0V16.25H0Z" fill="#fff" transform="matrix(1.0,0.0,0.0,1.0,-110.5,0.0)"/><text id="ProcessOnText1097" fill="#000000" font-size="13" x="0.0" y="13.325" font-family="微软雅黑" font-weight="normal" font-style="normal" text-decoration="none" family="微软雅黑" text-anchor="middle" size="13">⑦ Unregister the ApplicationMaster</text></g></g></g></g></svg>