<svg xmlns="http://www.w3.org/2000/svg" xmlns:xlink="http://www.w3.org/1999/xlink" id="processonSvg1000" viewBox="47.0 1.5 688.0 674.0" width="688.0" height="674.0"><defs id="ProcessOnDefs1001"><marker id="ProcessOnMarker1073" markerUnits="userSpaceOnUse" orient="auto" markerWidth="16.23606797749979" markerHeight="10.550836550532098" viewBox="-1.0 -1.3763819204711736 16.23606797749979 10.550836550532098" refX="-1.0" refY="3.8990363547948754"><path id="ProcessOnPath1074" d="M12.0 3.8990363547948754L0.0 7.798072709589751V0.0Z" stroke="#323232" stroke-width="2.0" fill="#323232" transform="matrix(1.0,0.0,0.0,1.0,0.0,0.0)"/></marker><marker id="ProcessOnMarker1077" markerUnits="userSpaceOnUse" orient="auto" markerWidth="16.23606797749979" markerHeight="10.550836550532098" viewBox="-1.0 -1.3763819204711736 16.23606797749979 10.550836550532098" refX="-1.0" refY="3.8990363547948754"><path id="ProcessOnPath1078" d="M12.0 3.8990363547948754L0.0 7.798072709589751V0.0Z" stroke="#323232" stroke-width="2.0" fill="#323232" transform="matrix(1.0,0.0,0.0,1.0,0.0,0.0)"/></marker><marker id="ProcessOnMarker1081" markerUnits="userSpaceOnUse" orient="auto" markerWidth="16.23606797749979" markerHeight="10.550836550532098" viewBox="-1.0 -1.3763819204711736 16.23606797749979 10.550836550532098" refX="-1.0" refY="3.8990363547948754"><path id="ProcessOnPath1082" d="M12.0 3.8990363547948754L0.0 7.798072709589751V0.0Z" stroke="#323232" stroke-width="2.0" fill="#323232" transform="matrix(1.0,0.0,0.0,1.0,0.0,0.0)"/></marker><marker id="ProcessOnMarker1085" markerUnits="userSpaceOnUse" orient="auto" markerWidth="16.23606797749979" markerHeight="10.550836550532098" viewBox="-1.0 -1.3763819204711736 16.23606797749979 10.550836550532098" refX="-1.0" refY="3.8990363547948754"><path id="ProcessOnPath1086" d="M12.0 3.8990363547948754L0.0 7.798072709589751V0.0Z" stroke="#323232" stroke-width="2.0" fill="#323232" transform="matrix(1.0,0.0,0.0,1.0,0.0,0.0)"/></marker><marker id="ProcessOnMarker1089" markerUnits="userSpaceOnUse" orient="auto" markerWidth="16.23606797749979" markerHeight="10.550836550532098" viewBox="-1.0 -1.3763819204711736 16.23606797749979 10.550836550532098" refX="-1.0" refY="3.8990363547948754"><path id="ProcessOnPath1090" d="M12.0 3.8990363547948754L0.0 7.798072709589751V0.0Z" stroke="#323232" stroke-width="2.0" fill="#323232" transform="matrix(1.0,0.0,0.0,1.0,0.0,0.0)"/></marker><marker id="ProcessOnMarker1236" markerUnits="userSpaceOnUse" orient="auto" markerWidth="16.23606797749979" markerHeight="10.550836550532098" viewBox="-1.0 -1.3763819204711736 16.23606797749979 10.550836550532098" refX="-1.0" refY="3.8990363547948754"><path id="ProcessOnPath1237" d="M12.0 3.8990363547948754L0.0 7.798072709589751V0.0Z" stroke="#323232" stroke-width="2.0" fill="#323232" transform="matrix(1.0,0.0,0.0,1.0,0.0,0.0)"/></marker><marker id="ProcessOnMarker1240" markerUnits="userSpaceOnUse" orient="auto" markerWidth="16.23606797749979" markerHeight="10.550836550532098" viewBox="-1.0 -1.3763819204711736 16.23606797749979 10.550836550532098" refX="-1.0" refY="3.8990363547948754"><path id="ProcessOnPath1241" d="M12.0 3.8990363547948754L0.0 7.798072709589751V0.0Z" stroke="#323232" stroke-width="2.0" fill="#323232" transform="matrix(1.0,0.0,0.0,1.0,0.0,0.0)"/></marker><marker id="ProcessOnMarker1244" markerUnits="userSpaceOnUse" orient="auto" markerWidth="16.23606797749979" markerHeight="10.550836550532098" viewBox="-1.0 -1.3763819204711736 16.23606797749979 10.550836550532098" refX="-1.0" refY="3.8990363547948754"><path id="ProcessOnPath1245" d="M12.0 3.8990363547948754L0.0 7.798072709589751V0.0Z" stroke="#323232" stroke-width="2.0" fill="#323232" transform="matrix(1.0,0.0,0.0,1.0,0.0,0.0)"/></marker><marker id="ProcessOnMarker1248" markerUnits="userSpaceOnUse" orient="auto" markerWidth="16.23606797749979" markerHeight="10.550836550532098" viewBox="-1.0 -1.3763819204711736 16.23606797749979 10.550836550532098" refX="-1.0" refY="3.8990363547948754"><path id="ProcessOnPath1249" d="M12.0 3.8990363547948754L0.0 7.798072709589751V0.0Z" stroke="#323232" stroke-width="2.0" fill="#323232" transform="matrix(1.0,0.0,0.0,1.0,0.0,0.0)"/></marker><marker id="ProcessOnMarker1252" markerUnits="userSpaceOnUse" orient="auto" markerWidth="16.23606797749979" markerHeight="10.550836550532098" viewBox="-1.0 -1.3763819204711736 16.23606797749979 10.550836550532098" refX="-1.0" refY="3.8990363547948754"><path id="ProcessOnPath1253" d="M12.0 3.8990363547948754L0.0 7.798072709589751V0.0Z" stroke="#323232" stroke-width="2.0" fill="#323232" transform="matrix(1.0,0.0,0.0,1.0,0.0,0.0)"/></marker><marker id="ProcessOnMarker1256" markerUnits="userSpaceOnUse" orient="auto" markerWidth="16.23606797749979" markerHeight="10.550836550532098" viewBox="-1.0 -1.3763819204711736 16.23606797749979 10.550836550532098" refX="-1.0" refY="3.8990363547948754"><path id="ProcessOnPath1257" d="M12.0 3.8990363547948754L0.0 7.798072709589751V0.0Z" stroke="#323232" stroke-width="2.0" fill="#323232" transform="matrix(1.0,0.0,0.0,1.0,0.0,0.0)"/></marker><marker id="ProcessOnMarker1260" markerUnits="userSpaceOnUse" orient="auto" markerWidth="16.23606797749979" markerHeight="10.550836550532098" viewBox="-1.0 -1.3763819204711736 16.23606797749979 10.550836550532098" refX="-1.0" refY="3.8990363547948754"><path id="ProcessOnPath1261" d="M12.0 3.8990363547948754L0.0 7.798072709589751V0.0Z" stroke="#323232" stroke-width="2.0" fill="#323232" transform="matrix(1.0,0.0,0.0,1.0,0.0,0.0)"/></marker><marker id="ProcessOnMarker1264" markerUnits="userSpaceOnUse" orient="auto" markerWidth="16.23606797749979" markerHeight="10.550836550532098" viewBox="-1.0 -1.3763819204711736 16.23606797749979 10.550836550532098" refX="-1.0" refY="3.8990363547948754"><path id="ProcessOnPath1265" d="M12.0 3.8990363547948754L0.0 7.798072709589751V0.0Z" stroke="#323232" stroke-width="2.0" fill="#323232" transform="matrix(1.0,0.0,0.0,1.0,0.0,0.0)"/></marker><marker id="ProcessOnMarker1268" markerUnits="userSpaceOnUse" orient="auto" markerWidth="16.23606797749979" markerHeight="10.550836550532098" viewBox="-1.0 -1.3763819204711736 16.23606797749979 10.550836550532098" refX="-1.0" refY="3.8990363547948754"><path id="ProcessOnPath1269" d="M12.0 3.8990363547948754L0.0 7.798072709589751V0.0Z" stroke="#323232" stroke-width="2.0" fill="#323232" transform="matrix(1.0,0.0,0.0,1.0,0.0,0.0)"/></marker><marker id="ProcessOnMarker1272" markerUnits="userSpaceOnUse" orient="auto" markerWidth="16.23606797749979" markerHeight="10.550836550532098" viewBox="-1.0 -1.3763819204711736 16.23606797749979 10.550836550532098" refX="-1.0" refY="3.8990363547948754"><path id="ProcessOnPath1273" d="M12.0 3.8990363547948754L0.0 7.798072709589751V0.0Z" stroke="#323232" stroke-width="2.0" fill="#323232" transform="matrix(1.0,0.0,0.0,1.0,0.0,0.0)"/></marker></defs><g id="ProcessOnG1002"><path id="ProcessOnPath1003" d="M47.0 1.5H735.0V675.5H47.0V1.5Z" fill="none"/><g id="ProcessOnG1004"><g id="ProcessOnG1005" transform="matrix(1.0,0.0,0.0,1.0,297.25,58.5)" opacity="1.0"><path id="ProcessOnPath1006" d="M0.0 0.0L381.75 0.0L381.75 597.0L0.0 597.0Z" stroke="#323232" stroke-width="2.0" stroke-dasharray="10.0 4.0" opacity="1.0" fill="#ffffff"/></g><g id="ProcessOnG1007" transform="matrix(1.0,0.0,0.0,1.0,77.0,235.5)" opacity="1.0"><path id="ProcessOnPath1008" d="M0.0 0.0L323.5 0.0L323.5 343.0L0.0 343.0Z" stroke="#323232" stroke-width="2.0" stroke-dasharray="10.0 4.0" opacity="1.0" fill="#ffffff"/></g><g id="ProcessOnG1009" transform="matrix(1.0,0.0,0.0,1.0,92.5,275.5)" opacity="1.0"><path id="ProcessOnPath1010" d="M0.0 0.0L109.0 0.0L109.0 263.0L0.0 263.0Z" stroke="#323232" stroke-width="2.0" stroke-dasharray="none" opacity="1.0" fill="#ffffff"/></g><g id="ProcessOnG1011" transform="matrix(1.0,0.0,0.0,1.0,67.0,235.5)" opacity="1.0"><path id="ProcessOnPath1012" d="M0.0 0.0L160.0 0.0L160.0 40.0L0.0 40.0Z" stroke="none" stroke-width="0.0" stroke-dasharray="none" opacity="1.0" fill="none"/><g id="ProcessOnG1013" transform="matrix(1.0,0.0,0.0,1.0,0.0,9.375)"><text id="ProcessOnText1014" fill="#000000" font-size="17" x="79.0" y="17.425" font-family="微软雅黑" font-weight="normal" font-style="normal" text-decoration="none" family="微软雅黑" text-anchor="middle" size="17">RDD0(uncache)</text></g></g><g id="ProcessOnG1015" transform="matrix(1.0,0.0,0.0,1.0,107.0,287.5)" opacity="1.0"><path id="ProcessOnPath1016" d="M0.0 0.0L80.0 0.0L80.0 36.0L0.0 36.0Z" stroke="#323232" stroke-width="2.0" stroke-dasharray="none" opacity="1.0" fill="#ffffff"/><g id="ProcessOnG1017" transform="matrix(1.0,0.0,0.0,1.0,10.0,1.75)"><text id="ProcessOnText1018" fill="#000000" font-size="13" x="29.0" y="13.325" font-family="微软雅黑" font-weight="normal" font-style="normal" text-decoration="none" family="微软雅黑" text-anchor="middle" size="13">Partition</text><text id="ProcessOnText1019" fill="#000000" font-size="13" x="29.0" y="29.575" font-family="微软雅黑" font-weight="normal" font-style="normal" text-decoration="none" family="微软雅黑" text-anchor="middle" size="13">0</text></g></g><g id="ProcessOnG1020" transform="matrix(1.0,0.0,0.0,1.0,107.0,339.0)" opacity="1.0"><path id="ProcessOnPath1021" d="M0.0 0.0L80.0 0.0L80.0 36.0L0.0 36.0Z" stroke="#323232" stroke-width="2.0" stroke-dasharray="none" opacity="1.0" fill="#ffffff"/><g id="ProcessOnG1022" transform="matrix(1.0,0.0,0.0,1.0,10.0,1.75)"><text id="ProcessOnText1023" fill="#000000" font-size="13" x="29.0" y="13.325" font-family="微软雅黑" font-weight="normal" font-style="normal" text-decoration="none" family="微软雅黑" text-anchor="middle" size="13">Partition</text><text id="ProcessOnText1024" fill="#000000" font-size="13" x="29.0" y="29.575" font-family="微软雅黑" font-weight="normal" font-style="normal" text-decoration="none" family="微软雅黑" text-anchor="middle" size="13">1</text></g></g><g id="ProcessOnG1025" transform="matrix(1.0,0.0,0.0,1.0,107.0,389.0)" opacity="1.0"><path id="ProcessOnPath1026" d="M0.0 0.0L80.0 0.0L80.0 36.0L0.0 36.0Z" stroke="#323232" stroke-width="2.0" stroke-dasharray="none" opacity="1.0" fill="#ffffff"/><g id="ProcessOnG1027" transform="matrix(1.0,0.0,0.0,1.0,10.0,1.75)"><text id="ProcessOnText1028" fill="#000000" font-size="13" x="29.0" y="13.325" font-family="微软雅黑" font-weight="normal" font-style="normal" text-decoration="none" family="微软雅黑" text-anchor="middle" size="13">Partition</text><text id="ProcessOnText1029" fill="#000000" font-size="13" x="29.0" y="29.575" font-family="微软雅黑" font-weight="normal" font-style="normal" text-decoration="none" family="微软雅黑" text-anchor="middle" size="13">2</text></g></g><g id="ProcessOnG1030" transform="matrix(1.0,0.0,0.0,1.0,107.0,438.0)" opacity="1.0"><path id="ProcessOnPath1031" d="M0.0 0.0L80.0 0.0L80.0 36.0L0.0 36.0Z" stroke="#323232" stroke-width="2.0" stroke-dasharray="none" opacity="1.0" fill="#ffffff"/><g id="ProcessOnG1032" transform="matrix(1.0,0.0,0.0,1.0,10.0,1.75)"><text id="ProcessOnText1033" fill="#000000" font-size="13" x="29.0" y="13.325" font-family="微软雅黑" font-weight="normal" font-style="normal" text-decoration="none" family="微软雅黑" text-anchor="middle" size="13">Partition</text><text id="ProcessOnText1034" fill="#000000" font-size="13" x="29.0" y="29.575" font-family="微软雅黑" font-weight="normal" font-style="normal" text-decoration="none" family="微软雅黑" text-anchor="middle" size="13">3</text></g></g><g id="ProcessOnG1035" transform="matrix(1.0,0.0,0.0,1.0,107.0,487.0)" opacity="1.0"><path id="ProcessOnPath1036" d="M0.0 0.0L80.0 0.0L80.0 36.0L0.0 36.0Z" stroke="#323232" stroke-width="2.0" stroke-dasharray="none" opacity="1.0" fill="#ffffff"/><g id="ProcessOnG1037" transform="matrix(1.0,0.0,0.0,1.0,10.0,1.75)"><text id="ProcessOnText1038" fill="#000000" font-size="13" x="29.0" y="13.325" font-family="微软雅黑" font-weight="normal" font-style="normal" text-decoration="none" family="微软雅黑" text-anchor="middle" size="13">Partition</text><text id="ProcessOnText1039" fill="#000000" font-size="13" x="29.0" y="29.575" font-family="微软雅黑" font-weight="normal" font-style="normal" text-decoration="none" family="微软雅黑" text-anchor="middle" size="13">4</text></g></g><g id="ProcessOnG1040" transform="matrix(1.0,0.0,0.0,1.0,291.5,275.5)" opacity="1.0"><path id="ProcessOnPath1041" d="M0.0 0.0L109.0 0.0L109.0 263.0L0.0 263.0Z" stroke="#323232" stroke-width="2.0" stroke-dasharray="none" opacity="1.0" fill="#ffffff"/></g><g id="ProcessOnG1042" transform="matrix(1.0,0.0,0.0,1.0,266.0,235.5)" opacity="1.0"><path id="ProcessOnPath1043" d="M0.0 0.0L160.0 0.0L160.0 40.0L0.0 40.0Z" stroke="none" stroke-width="0.0" stroke-dasharray="none" opacity="1.0" fill="none"/><g id="ProcessOnG1044" transform="matrix(1.0,0.0,0.0,1.0,0.0,9.375)"><text id="ProcessOnText1045" fill="#000000" font-size="17" x="79.0" y="17.425" font-family="微软雅黑" font-weight="normal" font-style="normal" text-decoration="none" family="微软雅黑" text-anchor="middle" size="17">RDD1(cache)</text></g></g><g id="ProcessOnG1046" transform="matrix(1.0,0.0,0.0,1.0,306.0,287.5)" opacity="1.0"><path id="ProcessOnPath1047" d="M0.0 0.0L80.0 0.0L80.0 36.0L0.0 36.0Z" stroke="#323232" stroke-width="2.0" stroke-dasharray="none" opacity="1.0" fill="#ffffff"/><g id="ProcessOnG1048" transform="matrix(1.0,0.0,0.0,1.0,10.0,1.75)"><text id="ProcessOnText1049" fill="#000000" font-size="13" x="29.0" y="13.325" font-family="微软雅黑" font-weight="normal" font-style="normal" text-decoration="none" family="微软雅黑" text-anchor="middle" size="13">Partition</text><text id="ProcessOnText1050" fill="#000000" font-size="13" x="29.0" y="29.575" font-family="微软雅黑" font-weight="normal" font-style="normal" text-decoration="none" family="微软雅黑" text-anchor="middle" size="13">0</text></g></g><g id="ProcessOnG1051" transform="matrix(1.0,0.0,0.0,1.0,306.0,339.0)" opacity="1.0"><path id="ProcessOnPath1052" d="M0.0 0.0L80.0 0.0L80.0 36.0L0.0 36.0Z" stroke="#323232" stroke-width="2.0" stroke-dasharray="none" opacity="1.0" fill="#ffffff"/><g id="ProcessOnG1053" transform="matrix(1.0,0.0,0.0,1.0,10.0,1.75)"><text id="ProcessOnText1054" fill="#000000" font-size="13" x="29.0" y="13.325" font-family="微软雅黑" font-weight="normal" font-style="normal" text-decoration="none" family="微软雅黑" text-anchor="middle" size="13">Partition</text><text id="ProcessOnText1055" fill="#000000" font-size="13" x="29.0" y="29.575" font-family="微软雅黑" font-weight="normal" font-style="normal" text-decoration="none" family="微软雅黑" text-anchor="middle" size="13">1</text></g></g><g id="ProcessOnG1056" transform="matrix(1.0,0.0,0.0,1.0,306.0,389.0)" opacity="1.0"><path id="ProcessOnPath1057" d="M0.0 0.0L80.0 0.0L80.0 36.0L0.0 36.0Z" stroke="#323232" stroke-width="2.0" stroke-dasharray="none" opacity="1.0" fill="#ffffff"/><g id="ProcessOnG1058" transform="matrix(1.0,0.0,0.0,1.0,10.0,1.75)"><text id="ProcessOnText1059" fill="#000000" font-size="13" x="29.0" y="13.325" font-family="微软雅黑" font-weight="normal" font-style="normal" text-decoration="none" family="微软雅黑" text-anchor="middle" size="13">Partition</text><text id="ProcessOnText1060" fill="#000000" font-size="13" x="29.0" y="29.575" font-family="微软雅黑" font-weight="normal" font-style="normal" text-decoration="none" family="微软雅黑" text-anchor="middle" size="13">2</text></g></g><g id="ProcessOnG1061" transform="matrix(1.0,0.0,0.0,1.0,306.0,438.0)" opacity="1.0"><path id="ProcessOnPath1062" d="M0.0 0.0L80.0 0.0L80.0 36.0L0.0 36.0Z" stroke="#323232" stroke-width="2.0" stroke-dasharray="none" opacity="1.0" fill="#ffffff"/><g id="ProcessOnG1063" transform="matrix(1.0,0.0,0.0,1.0,10.0,1.75)"><text id="ProcessOnText1064" fill="#000000" font-size="13" x="29.0" y="13.325" font-family="微软雅黑" font-weight="normal" font-style="normal" text-decoration="none" family="微软雅黑" text-anchor="middle" size="13">Partition</text><text id="ProcessOnText1065" fill="#000000" font-size="13" x="29.0" y="29.575" font-family="微软雅黑" font-weight="normal" font-style="normal" text-decoration="none" family="微软雅黑" text-anchor="middle" size="13">3</text></g></g><g id="ProcessOnG1066" transform="matrix(1.0,0.0,0.0,1.0,306.0,487.0)" opacity="1.0"><path id="ProcessOnPath1067" d="M0.0 0.0L80.0 0.0L80.0 36.0L0.0 36.0Z" stroke="#323232" stroke-width="2.0" stroke-dasharray="none" opacity="1.0" fill="#ffffff"/><g id="ProcessOnG1068" transform="matrix(1.0,0.0,0.0,1.0,10.0,1.75)"><text id="ProcessOnText1069" fill="#000000" font-size="13" x="29.0" y="13.325" font-family="微软雅黑" font-weight="normal" font-style="normal" text-decoration="none" family="微软雅黑" text-anchor="middle" size="13">Partition</text><text id="ProcessOnText1070" fill="#000000" font-size="13" x="29.0" y="29.575" font-family="微软雅黑" font-weight="normal" font-style="normal" text-decoration="none" family="微软雅黑" text-anchor="middle" size="13">4</text></g></g><g id="ProcessOnG1071"><path id="ProcessOnPath1072" d="M187.0 305.5L246.5 305.5L246.5 305.5L290.7639320225002 305.5" stroke="#323232" stroke-width="2.0" stroke-dasharray="none" fill="none" marker-end="url(#ProcessOnMarker1073)"/></g><g id="ProcessOnG1075"><path id="ProcessOnPath1076" d="M187.0 357.0L246.5 357.0L246.5 357.0L290.7639320225002 357.0" stroke="#323232" stroke-width="2.0" stroke-dasharray="none" fill="none" marker-end="url(#ProcessOnMarker1077)"/></g><g id="ProcessOnG1079"><path id="ProcessOnPath1080" d="M187.0 407.0L246.5 407.0L246.5 407.0L290.7639320225002 407.0" stroke="#323232" stroke-width="2.0" stroke-dasharray="none" fill="none" marker-end="url(#ProcessOnMarker1081)"/></g><g id="ProcessOnG1083"><path id="ProcessOnPath1084" d="M187.0 456.0L246.5 456.0L246.5 456.0L290.7639320225002 456.0" stroke="#323232" stroke-width="2.0" stroke-dasharray="none" fill="none" marker-end="url(#ProcessOnMarker1085)"/></g><g id="ProcessOnG1087"><path id="ProcessOnPath1088" d="M187.0 505.0L246.5 505.0L246.5 505.0L290.7639320225002 505.0" stroke="#323232" stroke-width="2.0" stroke-dasharray="none" fill="none" marker-end="url(#ProcessOnMarker1089)"/></g><g id="ProcessOnG1091" transform="matrix(1.0,0.0,0.0,1.0,486.5,73.0)" opacity="1.0"><path id="ProcessOnPath1092" d="M0.0 0.0L109.0 0.0L109.0 263.0L0.0 263.0Z" stroke="#323232" stroke-width="2.0" stroke-dasharray="none" opacity="1.0" fill="#ffffff"/></g><g id="ProcessOnG1093" transform="matrix(1.0,0.0,0.0,1.0,501.0,85.0)" opacity="1.0"><path id="ProcessOnPath1094" d="M0.0 0.0L80.0 0.0L80.0 36.0L0.0 36.0Z" stroke="#323232" stroke-width="2.0" stroke-dasharray="none" opacity="1.0" fill="#ffffff"/><g id="ProcessOnG1095" transform="matrix(1.0,0.0,0.0,1.0,10.0,1.75)"><text id="ProcessOnText1096" fill="#000000" font-size="13" x="29.0" y="13.325" font-family="微软雅黑" font-weight="normal" font-style="normal" text-decoration="none" family="微软雅黑" text-anchor="middle" size="13">Partition</text><text id="ProcessOnText1097" fill="#000000" font-size="13" x="29.0" y="29.575" font-family="微软雅黑" font-weight="normal" font-style="normal" text-decoration="none" family="微软雅黑" text-anchor="middle" size="13">0</text></g></g><g id="ProcessOnG1098" transform="matrix(1.0,0.0,0.0,1.0,501.0,136.5)" opacity="1.0"><path id="ProcessOnPath1099" d="M0.0 0.0L80.0 0.0L80.0 36.0L0.0 36.0Z" stroke="#323232" stroke-width="2.0" stroke-dasharray="none" opacity="1.0" fill="#ffffff"/><g id="ProcessOnG1100" transform="matrix(1.0,0.0,0.0,1.0,10.0,1.75)"><text id="ProcessOnText1101" fill="#000000" font-size="13" x="29.0" y="13.325" font-family="微软雅黑" font-weight="normal" font-style="normal" text-decoration="none" family="微软雅黑" text-anchor="middle" size="13">Partition</text><text id="ProcessOnText1102" fill="#000000" font-size="13" x="29.0" y="29.575" font-family="微软雅黑" font-weight="normal" font-style="normal" text-decoration="none" family="微软雅黑" text-anchor="middle" size="13">1</text></g></g><g id="ProcessOnG1103" transform="matrix(1.0,0.0,0.0,1.0,501.0,186.5)" opacity="1.0"><path id="ProcessOnPath1104" d="M0.0 0.0L80.0 0.0L80.0 36.0L0.0 36.0Z" stroke="#323232" stroke-width="2.0" stroke-dasharray="none" opacity="1.0" fill="#ffffff"/><g id="ProcessOnG1105" transform="matrix(1.0,0.0,0.0,1.0,10.0,1.75)"><text id="ProcessOnText1106" fill="#000000" font-size="13" x="29.0" y="13.325" font-family="微软雅黑" font-weight="normal" font-style="normal" text-decoration="none" family="微软雅黑" text-anchor="middle" size="13">Partition</text><text id="ProcessOnText1107" fill="#000000" font-size="13" x="29.0" y="29.575" font-family="微软雅黑" font-weight="normal" font-style="normal" text-decoration="none" family="微软雅黑" text-anchor="middle" size="13">2</text></g></g><g id="ProcessOnG1108" transform="matrix(1.0,0.0,0.0,1.0,501.0,235.5)" opacity="1.0"><path id="ProcessOnPath1109" d="M0.0 0.0L80.0 0.0L80.0 36.0L0.0 36.0Z" stroke="#323232" stroke-width="2.0" stroke-dasharray="none" opacity="1.0" fill="#ffffff"/><g id="ProcessOnG1110" transform="matrix(1.0,0.0,0.0,1.0,10.0,1.75)"><text id="ProcessOnText1111" fill="#000000" font-size="13" x="29.0" y="13.325" font-family="微软雅黑" font-weight="normal" font-style="normal" text-decoration="none" family="微软雅黑" text-anchor="middle" size="13">Partition</text><text id="ProcessOnText1112" fill="#000000" font-size="13" x="29.0" y="29.575" font-family="微软雅黑" font-weight="normal" font-style="normal" text-decoration="none" family="微软雅黑" text-anchor="middle" size="13">3</text></g></g><g id="ProcessOnG1113" transform="matrix(1.0,0.0,0.0,1.0,501.0,284.5)" opacity="1.0"><path id="ProcessOnPath1114" d="M0.0 0.0L80.0 0.0L80.0 36.0L0.0 36.0Z" stroke="#323232" stroke-width="2.0" stroke-dasharray="none" opacity="1.0" fill="#ffffff"/><g id="ProcessOnG1115" transform="matrix(1.0,0.0,0.0,1.0,10.0,1.75)"><text id="ProcessOnText1116" fill="#000000" font-size="13" x="29.0" y="13.325" font-family="微软雅黑" font-weight="normal" font-style="normal" text-decoration="none" family="微软雅黑" text-anchor="middle" size="13">Partition</text><text id="ProcessOnText1117" fill="#000000" font-size="13" x="29.0" y="29.575" font-family="微软雅黑" font-weight="normal" font-style="normal" text-decoration="none" family="微软雅黑" text-anchor="middle" size="13">4</text></g></g><g id="ProcessOnG1118" transform="matrix(1.0,0.0,0.0,1.0,486.5,73.0)" opacity="1.0"><path id="ProcessOnPath1119" d="M0.0 0.0L109.0 0.0L109.0 263.0L0.0 263.0Z" stroke="#323232" stroke-width="2.0" stroke-dasharray="none" opacity="1.0" fill="#ffffff"/></g><g id="ProcessOnG1120" transform="matrix(1.0,0.0,0.0,1.0,555.0,195.5)" opacity="1.0"><path id="ProcessOnPath1121" d="M0.0 0.0L160.0 0.0L160.0 40.0L0.0 40.0Z" stroke="none" stroke-width="0.0" stroke-dasharray="none" opacity="1.0" fill="none"/><g id="ProcessOnG1122" transform="matrix(1.0,0.0,0.0,1.0,0.0,9.375)"><text id="ProcessOnText1123" fill="#000000" font-size="17" x="79.0" y="17.425" font-family="微软雅黑" font-weight="normal" font-style="normal" text-decoration="none" family="微软雅黑" text-anchor="middle" size="17">RDD2</text></g></g><g id="ProcessOnG1124" transform="matrix(1.0,0.0,0.0,1.0,501.0,85.0)" opacity="1.0"><path id="ProcessOnPath1125" d="M0.0 0.0L80.0 0.0L80.0 36.0L0.0 36.0Z" stroke="#323232" stroke-width="2.0" stroke-dasharray="none" opacity="1.0" fill="#ffffff"/><g id="ProcessOnG1126" transform="matrix(1.0,0.0,0.0,1.0,10.0,1.75)"><text id="ProcessOnText1127" fill="#000000" font-size="13" x="29.0" y="13.325" font-family="微软雅黑" font-weight="normal" font-style="normal" text-decoration="none" family="微软雅黑" text-anchor="middle" size="13">Partition</text><text id="ProcessOnText1128" fill="#000000" font-size="13" x="29.0" y="29.575" font-family="微软雅黑" font-weight="normal" font-style="normal" text-decoration="none" family="微软雅黑" text-anchor="middle" size="13">0</text></g></g><g id="ProcessOnG1129" transform="matrix(1.0,0.0,0.0,1.0,501.0,136.5)" opacity="1.0"><path id="ProcessOnPath1130" d="M0.0 0.0L80.0 0.0L80.0 36.0L0.0 36.0Z" stroke="#323232" stroke-width="2.0" stroke-dasharray="none" opacity="1.0" fill="#ffffff"/><g id="ProcessOnG1131" transform="matrix(1.0,0.0,0.0,1.0,10.0,1.75)"><text id="ProcessOnText1132" fill="#000000" font-size="13" x="29.0" y="13.325" font-family="微软雅黑" font-weight="normal" font-style="normal" text-decoration="none" family="微软雅黑" text-anchor="middle" size="13">Partition</text><text id="ProcessOnText1133" fill="#000000" font-size="13" x="29.0" y="29.575" font-family="微软雅黑" font-weight="normal" font-style="normal" text-decoration="none" family="微软雅黑" text-anchor="middle" size="13">1</text></g></g><g id="ProcessOnG1134" transform="matrix(1.0,0.0,0.0,1.0,501.0,186.5)" opacity="1.0"><path id="ProcessOnPath1135" d="M0.0 0.0L80.0 0.0L80.0 36.0L0.0 36.0Z" stroke="#323232" stroke-width="2.0" stroke-dasharray="none" opacity="1.0" fill="#ffffff"/><g id="ProcessOnG1136" transform="matrix(1.0,0.0,0.0,1.0,10.0,1.75)"><text id="ProcessOnText1137" fill="#000000" font-size="13" x="29.0" y="13.325" font-family="微软雅黑" font-weight="normal" font-style="normal" text-decoration="none" family="微软雅黑" text-anchor="middle" size="13">Partition</text><text id="ProcessOnText1138" fill="#000000" font-size="13" x="29.0" y="29.575" font-family="微软雅黑" font-weight="normal" font-style="normal" text-decoration="none" family="微软雅黑" text-anchor="middle" size="13">2</text></g></g><g id="ProcessOnG1139" transform="matrix(1.0,0.0,0.0,1.0,501.0,235.5)" opacity="1.0"><path id="ProcessOnPath1140" d="M0.0 0.0L80.0 0.0L80.0 36.0L0.0 36.0Z" stroke="#323232" stroke-width="2.0" stroke-dasharray="none" opacity="1.0" fill="#ffffff"/><g id="ProcessOnG1141" transform="matrix(1.0,0.0,0.0,1.0,10.0,1.75)"><text id="ProcessOnText1142" fill="#000000" font-size="13" x="29.0" y="13.325" font-family="微软雅黑" font-weight="normal" font-style="normal" text-decoration="none" family="微软雅黑" text-anchor="middle" size="13">Partition</text><text id="ProcessOnText1143" fill="#000000" font-size="13" x="29.0" y="29.575" font-family="微软雅黑" font-weight="normal" font-style="normal" text-decoration="none" family="微软雅黑" text-anchor="middle" size="13">3</text></g></g><g id="ProcessOnG1144" transform="matrix(1.0,0.0,0.0,1.0,501.0,284.5)" opacity="1.0"><path id="ProcessOnPath1145" d="M0.0 0.0L80.0 0.0L80.0 36.0L0.0 36.0Z" stroke="#323232" stroke-width="2.0" stroke-dasharray="none" opacity="1.0" fill="#ffffff"/><g id="ProcessOnG1146" transform="matrix(1.0,0.0,0.0,1.0,10.0,1.75)"><text id="ProcessOnText1147" fill="#000000" font-size="13" x="29.0" y="13.325" font-family="微软雅黑" font-weight="normal" font-style="normal" text-decoration="none" family="微软雅黑" text-anchor="middle" size="13">Partition</text><text id="ProcessOnText1148" fill="#000000" font-size="13" x="29.0" y="29.575" font-family="微软雅黑" font-weight="normal" font-style="normal" text-decoration="none" family="微软雅黑" text-anchor="middle" size="13">4</text></g></g><g id="ProcessOnG1149" transform="matrix(1.0,0.0,0.0,1.0,483.5,380.0)" opacity="1.0"><path id="ProcessOnPath1150" d="M0.0 0.0L109.0 0.0L109.0 263.0L0.0 263.0Z" stroke="#323232" stroke-width="2.0" stroke-dasharray="none" opacity="1.0" fill="#ffffff"/></g><g id="ProcessOnG1151" transform="matrix(1.0,0.0,0.0,1.0,498.0,392.0)" opacity="1.0"><path id="ProcessOnPath1152" d="M0.0 0.0L80.0 0.0L80.0 36.0L0.0 36.0Z" stroke="#323232" stroke-width="2.0" stroke-dasharray="none" opacity="1.0" fill="#ffffff"/><g id="ProcessOnG1153" transform="matrix(1.0,0.0,0.0,1.0,10.0,1.75)"><text id="ProcessOnText1154" fill="#000000" font-size="13" x="29.0" y="13.325" font-family="微软雅黑" font-weight="normal" font-style="normal" text-decoration="none" family="微软雅黑" text-anchor="middle" size="13">Partition</text><text id="ProcessOnText1155" fill="#000000" font-size="13" x="29.0" y="29.575" font-family="微软雅黑" font-weight="normal" font-style="normal" text-decoration="none" family="微软雅黑" text-anchor="middle" size="13">0</text></g></g><g id="ProcessOnG1156" transform="matrix(1.0,0.0,0.0,1.0,498.0,443.5)" opacity="1.0"><path id="ProcessOnPath1157" d="M0.0 0.0L80.0 0.0L80.0 36.0L0.0 36.0Z" stroke="#323232" stroke-width="2.0" stroke-dasharray="none" opacity="1.0" fill="#ffffff"/><g id="ProcessOnG1158" transform="matrix(1.0,0.0,0.0,1.0,10.0,1.75)"><text id="ProcessOnText1159" fill="#000000" font-size="13" x="29.0" y="13.325" font-family="微软雅黑" font-weight="normal" font-style="normal" text-decoration="none" family="微软雅黑" text-anchor="middle" size="13">Partition</text><text id="ProcessOnText1160" fill="#000000" font-size="13" x="29.0" y="29.575" font-family="微软雅黑" font-weight="normal" font-style="normal" text-decoration="none" family="微软雅黑" text-anchor="middle" size="13">1</text></g></g><g id="ProcessOnG1161" transform="matrix(1.0,0.0,0.0,1.0,498.0,493.5)" opacity="1.0"><path id="ProcessOnPath1162" d="M0.0 0.0L80.0 0.0L80.0 36.0L0.0 36.0Z" stroke="#323232" stroke-width="2.0" stroke-dasharray="none" opacity="1.0" fill="#ffffff"/><g id="ProcessOnG1163" transform="matrix(1.0,0.0,0.0,1.0,10.0,1.75)"><text id="ProcessOnText1164" fill="#000000" font-size="13" x="29.0" y="13.325" font-family="微软雅黑" font-weight="normal" font-style="normal" text-decoration="none" family="微软雅黑" text-anchor="middle" size="13">Partition</text><text id="ProcessOnText1165" fill="#000000" font-size="13" x="29.0" y="29.575" font-family="微软雅黑" font-weight="normal" font-style="normal" text-decoration="none" family="微软雅黑" text-anchor="middle" size="13">2</text></g></g><g id="ProcessOnG1166" transform="matrix(1.0,0.0,0.0,1.0,498.0,542.5)" opacity="1.0"><path id="ProcessOnPath1167" d="M0.0 0.0L80.0 0.0L80.0 36.0L0.0 36.0Z" stroke="#323232" stroke-width="2.0" stroke-dasharray="none" opacity="1.0" fill="#ffffff"/><g id="ProcessOnG1168" transform="matrix(1.0,0.0,0.0,1.0,10.0,1.75)"><text id="ProcessOnText1169" fill="#000000" font-size="13" x="29.0" y="13.325" font-family="微软雅黑" font-weight="normal" font-style="normal" text-decoration="none" family="微软雅黑" text-anchor="middle" size="13">Partition</text><text id="ProcessOnText1170" fill="#000000" font-size="13" x="29.0" y="29.575" font-family="微软雅黑" font-weight="normal" font-style="normal" text-decoration="none" family="微软雅黑" text-anchor="middle" size="13">3</text></g></g><g id="ProcessOnG1171" transform="matrix(1.0,0.0,0.0,1.0,498.0,591.5)" opacity="1.0"><path id="ProcessOnPath1172" d="M0.0 0.0L80.0 0.0L80.0 36.0L0.0 36.0Z" stroke="#323232" stroke-width="2.0" stroke-dasharray="none" opacity="1.0" fill="#ffffff"/><g id="ProcessOnG1173" transform="matrix(1.0,0.0,0.0,1.0,10.0,1.75)"><text id="ProcessOnText1174" fill="#000000" font-size="13" x="29.0" y="13.325" font-family="微软雅黑" font-weight="normal" font-style="normal" text-decoration="none" family="微软雅黑" text-anchor="middle" size="13">Partition</text><text id="ProcessOnText1175" fill="#000000" font-size="13" x="29.0" y="29.575" font-family="微软雅黑" font-weight="normal" font-style="normal" text-decoration="none" family="微软雅黑" text-anchor="middle" size="13">4</text></g></g><g id="ProcessOnG1176" transform="matrix(1.0,0.0,0.0,1.0,483.5,380.0)" opacity="1.0"><path id="ProcessOnPath1177" d="M0.0 0.0L109.0 0.0L109.0 263.0L0.0 263.0Z" stroke="#323232" stroke-width="2.0" stroke-dasharray="none" opacity="1.0" fill="#ffffff"/></g><g id="ProcessOnG1178" transform="matrix(1.0,0.0,0.0,1.0,498.0,392.0)" opacity="1.0"><path id="ProcessOnPath1179" d="M0.0 0.0L80.0 0.0L80.0 36.0L0.0 36.0Z" stroke="#323232" stroke-width="2.0" stroke-dasharray="none" opacity="1.0" fill="#ffffff"/><g id="ProcessOnG1180" transform="matrix(1.0,0.0,0.0,1.0,10.0,1.75)"><text id="ProcessOnText1181" fill="#000000" font-size="13" x="29.0" y="13.325" font-family="微软雅黑" font-weight="normal" font-style="normal" text-decoration="none" family="微软雅黑" text-anchor="middle" size="13">Partition</text><text id="ProcessOnText1182" fill="#000000" font-size="13" x="29.0" y="29.575" font-family="微软雅黑" font-weight="normal" font-style="normal" text-decoration="none" family="微软雅黑" text-anchor="middle" size="13">0</text></g></g><g id="ProcessOnG1183" transform="matrix(1.0,0.0,0.0,1.0,498.0,443.5)" opacity="1.0"><path id="ProcessOnPath1184" d="M0.0 0.0L80.0 0.0L80.0 36.0L0.0 36.0Z" stroke="#323232" stroke-width="2.0" stroke-dasharray="none" opacity="1.0" fill="#ffffff"/><g id="ProcessOnG1185" transform="matrix(1.0,0.0,0.0,1.0,10.0,1.75)"><text id="ProcessOnText1186" fill="#000000" font-size="13" x="29.0" y="13.325" font-family="微软雅黑" font-weight="normal" font-style="normal" text-decoration="none" family="微软雅黑" text-anchor="middle" size="13">Partition</text><text id="ProcessOnText1187" fill="#000000" font-size="13" x="29.0" y="29.575" font-family="微软雅黑" font-weight="normal" font-style="normal" text-decoration="none" family="微软雅黑" text-anchor="middle" size="13">1</text></g></g><g id="ProcessOnG1188" transform="matrix(1.0,0.0,0.0,1.0,498.0,493.5)" opacity="1.0"><path id="ProcessOnPath1189" d="M0.0 0.0L80.0 0.0L80.0 36.0L0.0 36.0Z" stroke="#323232" stroke-width="2.0" stroke-dasharray="none" opacity="1.0" fill="#ffffff"/><g id="ProcessOnG1190" transform="matrix(1.0,0.0,0.0,1.0,10.0,1.75)"><text id="ProcessOnText1191" fill="#000000" font-size="13" x="29.0" y="13.325" font-family="微软雅黑" font-weight="normal" font-style="normal" text-decoration="none" family="微软雅黑" text-anchor="middle" size="13">Partition</text><text id="ProcessOnText1192" fill="#000000" font-size="13" x="29.0" y="29.575" font-family="微软雅黑" font-weight="normal" font-style="normal" text-decoration="none" family="微软雅黑" text-anchor="middle" size="13">2</text></g></g><g id="ProcessOnG1193" transform="matrix(1.0,0.0,0.0,1.0,498.0,542.5)" opacity="1.0"><path id="ProcessOnPath1194" d="M0.0 0.0L80.0 0.0L80.0 36.0L0.0 36.0Z" stroke="#323232" stroke-width="2.0" stroke-dasharray="none" opacity="1.0" fill="#ffffff"/><g id="ProcessOnG1195" transform="matrix(1.0,0.0,0.0,1.0,10.0,1.75)"><text id="ProcessOnText1196" fill="#000000" font-size="13" x="29.0" y="13.325" font-family="微软雅黑" font-weight="normal" font-style="normal" text-decoration="none" family="微软雅黑" text-anchor="middle" size="13">Partition</text><text id="ProcessOnText1197" fill="#000000" font-size="13" x="29.0" y="29.575" font-family="微软雅黑" font-weight="normal" font-style="normal" text-decoration="none" family="微软雅黑" text-anchor="middle" size="13">3</text></g></g><g id="ProcessOnG1198" transform="matrix(1.0,0.0,0.0,1.0,498.0,591.5)" opacity="1.0"><path id="ProcessOnPath1199" d="M0.0 0.0L80.0 0.0L80.0 36.0L0.0 36.0Z" stroke="#323232" stroke-width="2.0" stroke-dasharray="none" opacity="1.0" fill="#ffffff"/><g id="ProcessOnG1200" transform="matrix(1.0,0.0,0.0,1.0,10.0,1.75)"><text id="ProcessOnText1201" fill="#000000" font-size="13" x="29.0" y="13.325" font-family="微软雅黑" font-weight="normal" font-style="normal" text-decoration="none" family="微软雅黑" text-anchor="middle" size="13">Partition</text><text id="ProcessOnText1202" fill="#000000" font-size="13" x="29.0" y="29.575" font-family="微软雅黑" font-weight="normal" font-style="normal" text-decoration="none" family="微软雅黑" text-anchor="middle" size="13">4</text></g></g><g id="ProcessOnG1203" transform="matrix(1.0,0.0,0.0,1.0,483.5,380.0)" opacity="1.0"><path id="ProcessOnPath1204" d="M0.0 0.0L109.0 0.0L109.0 263.0L0.0 263.0Z" stroke="#323232" stroke-width="2.0" stroke-dasharray="none" opacity="1.0" fill="#ffffff"/></g><g id="ProcessOnG1205" transform="matrix(1.0,0.0,0.0,1.0,555.0,489.5)" opacity="1.0"><path id="ProcessOnPath1206" d="M0.0 0.0L160.0 0.0L160.0 40.0L0.0 40.0Z" stroke="none" stroke-width="0.0" stroke-dasharray="none" opacity="1.0" fill="none"/><g id="ProcessOnG1207" transform="matrix(1.0,0.0,0.0,1.0,0.0,9.375)"><text id="ProcessOnText1208" fill="#000000" font-size="17" x="79.0" y="17.425" font-family="微软雅黑" font-weight="normal" font-style="normal" text-decoration="none" family="微软雅黑" text-anchor="middle" size="17">RDD3</text></g></g><g id="ProcessOnG1209" transform="matrix(1.0,0.0,0.0,1.0,498.0,392.0)" opacity="1.0"><path id="ProcessOnPath1210" d="M0.0 0.0L80.0 0.0L80.0 36.0L0.0 36.0Z" stroke="#323232" stroke-width="2.0" stroke-dasharray="none" opacity="1.0" fill="#ffffff"/><g id="ProcessOnG1211" transform="matrix(1.0,0.0,0.0,1.0,10.0,1.75)"><text id="ProcessOnText1212" fill="#000000" font-size="13" x="29.0" y="13.325" font-family="微软雅黑" font-weight="normal" font-style="normal" text-decoration="none" family="微软雅黑" text-anchor="middle" size="13">Partition</text><text id="ProcessOnText1213" fill="#000000" font-size="13" x="29.0" y="29.575" font-family="微软雅黑" font-weight="normal" font-style="normal" text-decoration="none" family="微软雅黑" text-anchor="middle" size="13">0</text></g></g><g id="ProcessOnG1214" transform="matrix(1.0,0.0,0.0,1.0,498.0,443.5)" opacity="1.0"><path id="ProcessOnPath1215" d="M0.0 0.0L80.0 0.0L80.0 36.0L0.0 36.0Z" stroke="#323232" stroke-width="2.0" stroke-dasharray="none" opacity="1.0" fill="#ffffff"/><g id="ProcessOnG1216" transform="matrix(1.0,0.0,0.0,1.0,10.0,1.75)"><text id="ProcessOnText1217" fill="#000000" font-size="13" x="29.0" y="13.325" font-family="微软雅黑" font-weight="normal" font-style="normal" text-decoration="none" family="微软雅黑" text-anchor="middle" size="13">Partition</text><text id="ProcessOnText1218" fill="#000000" font-size="13" x="29.0" y="29.575" font-family="微软雅黑" font-weight="normal" font-style="normal" text-decoration="none" family="微软雅黑" text-anchor="middle" size="13">1</text></g></g><g id="ProcessOnG1219" transform="matrix(1.0,0.0,0.0,1.0,498.0,493.5)" opacity="1.0"><path id="ProcessOnPath1220" d="M0.0 0.0L80.0 0.0L80.0 36.0L0.0 36.0Z" stroke="#323232" stroke-width="2.0" stroke-dasharray="none" opacity="1.0" fill="#ffffff"/><g id="ProcessOnG1221" transform="matrix(1.0,0.0,0.0,1.0,10.0,1.75)"><text id="ProcessOnText1222" fill="#000000" font-size="13" x="29.0" y="13.325" font-family="微软雅黑" font-weight="normal" font-style="normal" text-decoration="none" family="微软雅黑" text-anchor="middle" size="13">Partition</text><text id="ProcessOnText1223" fill="#000000" font-size="13" x="29.0" y="29.575" font-family="微软雅黑" font-weight="normal" font-style="normal" text-decoration="none" family="微软雅黑" text-anchor="middle" size="13">2</text></g></g><g id="ProcessOnG1224" transform="matrix(1.0,0.0,0.0,1.0,498.0,542.5)" opacity="1.0"><path id="ProcessOnPath1225" d="M0.0 0.0L80.0 0.0L80.0 36.0L0.0 36.0Z" stroke="#323232" stroke-width="2.0" stroke-dasharray="none" opacity="1.0" fill="#ffffff"/><g id="ProcessOnG1226" transform="matrix(1.0,0.0,0.0,1.0,10.0,1.75)"><text id="ProcessOnText1227" fill="#000000" font-size="13" x="29.0" y="13.325" font-family="微软雅黑" font-weight="normal" font-style="normal" text-decoration="none" family="微软雅黑" text-anchor="middle" size="13">Partition</text><text id="ProcessOnText1228" fill="#000000" font-size="13" x="29.0" y="29.575" font-family="微软雅黑" font-weight="normal" font-style="normal" text-decoration="none" family="微软雅黑" text-anchor="middle" size="13">3</text></g></g><g id="ProcessOnG1229" transform="matrix(1.0,0.0,0.0,1.0,498.0,591.5)" opacity="1.0"><path id="ProcessOnPath1230" d="M0.0 0.0L80.0 0.0L80.0 36.0L0.0 36.0Z" stroke="#323232" stroke-width="2.0" stroke-dasharray="none" opacity="1.0" fill="#ffffff"/><g id="ProcessOnG1231" transform="matrix(1.0,0.0,0.0,1.0,10.0,1.75)"><text id="ProcessOnText1232" fill="#000000" font-size="13" x="29.0" y="13.325" font-family="微软雅黑" font-weight="normal" font-style="normal" text-decoration="none" family="微软雅黑" text-anchor="middle" size="13">Partition</text><text id="ProcessOnText1233" fill="#000000" font-size="13" x="29.0" y="29.575" font-family="微软雅黑" font-weight="normal" font-style="normal" text-decoration="none" family="微软雅黑" text-anchor="middle" size="13">4</text></g></g><g id="ProcessOnG1234"><path id="ProcessOnPath1235" d="M386.0 305.5L493.47604941448367 116.24869559623525" stroke="#323232" stroke-width="2.0" stroke-dasharray="none" fill="none" marker-end="url(#ProcessOnMarker1236)"/></g><g id="ProcessOnG1238"><path id="ProcessOnPath1239" d="M386.0 357.0L493.47604941448367 167.74869559623525" stroke="#323232" stroke-width="2.0" stroke-dasharray="none" fill="none" marker-end="url(#ProcessOnMarker1240)"/></g><g id="ProcessOnG1242"><path id="ProcessOnPath1243" d="M386.0 407.0L493.47604941448367 217.74869559623525" stroke="#323232" stroke-width="2.0" stroke-dasharray="none" fill="none" marker-end="url(#ProcessOnMarker1244)"/></g><g id="ProcessOnG1246"><path id="ProcessOnPath1247" d="M386.0 456.0L493.47604941448367 266.7486955962352" stroke="#323232" stroke-width="2.0" stroke-dasharray="none" fill="none" marker-end="url(#ProcessOnMarker1248)"/></g><g id="ProcessOnG1250"><path id="ProcessOnPath1251" d="M386.0 505.0L493.47604941448367 315.7486955962352" stroke="#323232" stroke-width="2.0" stroke-dasharray="none" fill="none" marker-end="url(#ProcessOnMarker1252)"/></g><g id="ProcessOnG1254"><path id="ProcessOnPath1255" d="M386.0 305.5L486.85993856909073 399.6059248256248" stroke="#323232" stroke-width="2.0" stroke-dasharray="none" fill="none" marker-end="url(#ProcessOnMarker1256)"/></g><g id="ProcessOnG1258"><path id="ProcessOnPath1259" d="M386.0 357.0L486.85993856909073 451.1059248256248" stroke="#323232" stroke-width="2.0" stroke-dasharray="none" fill="none" marker-end="url(#ProcessOnMarker1260)"/></g><g id="ProcessOnG1262"><path id="ProcessOnPath1263" d="M386.0 407.0L486.85993856909073 501.1059248256248" stroke="#323232" stroke-width="2.0" stroke-dasharray="none" fill="none" marker-end="url(#ProcessOnMarker1264)"/></g><g id="ProcessOnG1266"><path id="ProcessOnPath1267" d="M386.0 456.0L486.85993856909073 550.1059248256248" stroke="#323232" stroke-width="2.0" stroke-dasharray="none" fill="none" marker-end="url(#ProcessOnMarker1268)"/></g><g id="ProcessOnG1270"><path id="ProcessOnPath1271" d="M386.0 505.0L486.85993856909073 599.1059248256248" stroke="#323232" stroke-width="2.0" stroke-dasharray="none" fill="none" marker-end="url(#ProcessOnMarker1272)"/></g><g id="ProcessOnG1274" transform="matrix(1.0,0.0,0.0,1.0,109.75,195.5)" opacity="1.0"><path id="ProcessOnPath1275" d="M0.0 0.0L187.5 0.0L187.5 40.0L0.0 40.0Z" stroke="none" stroke-width="0.0" stroke-dasharray="none" opacity="1.0" fill="none"/><g id="ProcessOnG1276" transform="matrix(1.0,0.0,0.0,1.0,0.0,9.375)"><text id="ProcessOnText1277" fill="#000000" font-size="17" x="92.75" y="17.425" font-family="微软雅黑" font-weight="normal" font-style="normal" text-decoration="none" family="微软雅黑" text-anchor="middle" size="17">Narrow Dependencies</text></g></g><g id="ProcessOnG1278" transform="matrix(1.0,0.0,0.0,1.0,390.5,21.5)" opacity="1.0"><path id="ProcessOnPath1279" d="M0.0 0.0L187.5 0.0L187.5 40.0L0.0 40.0Z" stroke="none" stroke-width="0.0" stroke-dasharray="none" opacity="1.0" fill="none"/><g id="ProcessOnG1280" transform="matrix(1.0,0.0,0.0,1.0,0.0,9.375)"><text id="ProcessOnText1281" fill="#000000" font-size="17" x="92.75" y="17.425" font-family="微软雅黑" font-weight="normal" font-style="normal" text-decoration="none" family="微软雅黑" text-anchor="middle" size="17">Wide Dependencies</text></g></g><g id="ProcessOnG1282"><path id="ProcessOnPath1283" d="M368.0 474.0L321.0 438.0" stroke="#ff3333" stroke-width="2.0" stroke-dasharray="none" fill="none"/></g><g id="ProcessOnG1284"><path id="ProcessOnPath1285" d="M321.0 474.0L367.0 438.0" stroke="#ff3333" stroke-width="2.0" stroke-dasharray="none" fill="none"/></g></g></g></svg>