<svg xmlns="http://www.w3.org/2000/svg" xmlns:xlink="http://www.w3.org/1999/xlink" id="processonSvg1000" viewBox="41.0 17.0 994.5 412.0" width="994.5" height="412.0"><defs id="ProcessOnDefs1001"><marker id="ProcessOnMarker1101" markerUnits="userSpaceOnUse" orient="auto" markerWidth="16.23606797749979" markerHeight="10.550836550532098" viewBox="-1.0 -1.3763819204711736 16.23606797749979 10.550836550532098" refX="-1.0" refY="3.8990363547948754"><path id="ProcessOnPath1102" d="M12.0 3.8990363547948754L0.0 7.798072709589751V0.0Z" stroke="#323232" stroke-width="2.0" fill="#323232" transform="matrix(1.0,0.0,0.0,1.0,0.0,0.0)"/></marker><marker id="ProcessOnMarker1105" markerUnits="userSpaceOnUse" orient="auto" markerWidth="16.23606797749979" markerHeight="10.550836550532098" viewBox="-1.0 -1.3763819204711736 16.23606797749979 10.550836550532098" refX="-1.0" refY="3.8990363547948754"><path id="ProcessOnPath1106" d="M12.0 3.8990363547948754L0.0 7.798072709589751V0.0Z" stroke="#323232" stroke-width="2.0" fill="#323232" transform="matrix(1.0,0.0,0.0,1.0,0.0,0.0)"/></marker><marker id="ProcessOnMarker1109" markerUnits="userSpaceOnUse" orient="auto" markerWidth="16.23606797749979" markerHeight="10.550836550532098" viewBox="-1.0 -1.3763819204711736 16.23606797749979 10.550836550532098" refX="-1.0" refY="3.8990363547948754"><path id="ProcessOnPath1110" d="M12.0 3.8990363547948754L0.0 7.798072709589751V0.0Z" stroke="#323232" stroke-width="2.0" fill="#323232" transform="matrix(1.0,0.0,0.0,1.0,0.0,0.0)"/></marker><marker id="ProcessOnMarker1113" markerUnits="userSpaceOnUse" orient="auto" markerWidth="16.23606797749979" markerHeight="10.550836550532098" viewBox="-1.0 -1.3763819204711736 16.23606797749979 10.550836550532098" refX="-1.0" refY="3.8990363547948754"><path id="ProcessOnPath1114" d="M12.0 3.8990363547948754L0.0 7.798072709589751V0.0Z" stroke="#323232" stroke-width="2.0" fill="#323232" transform="matrix(1.0,0.0,0.0,1.0,0.0,0.0)"/></marker><marker id="ProcessOnMarker1117" markerUnits="userSpaceOnUse" orient="auto" markerWidth="16.23606797749979" markerHeight="10.550836550532098" viewBox="-1.0 -1.3763819204711736 16.23606797749979 10.550836550532098" refX="-1.0" refY="3.8990363547948754"><path id="ProcessOnPath1118" d="M12.0 3.8990363547948754L0.0 7.798072709589751V0.0Z" stroke="#323232" stroke-width="2.0" fill="#323232" transform="matrix(1.0,0.0,0.0,1.0,0.0,0.0)"/></marker><marker id="ProcessOnMarker1121" markerUnits="userSpaceOnUse" orient="auto" markerWidth="16.23606797749979" markerHeight="10.550836550532098" viewBox="-1.0 -1.3763819204711736 16.23606797749979 10.550836550532098" refX="-1.0" refY="3.8990363547948754"><path id="ProcessOnPath1122" d="M12.0 3.8990363547948754L0.0 7.798072709589751V0.0Z" stroke="#323232" stroke-width="2.0" fill="#323232" transform="matrix(1.0,0.0,0.0,1.0,0.0,0.0)"/></marker><marker id="ProcessOnMarker1125" markerUnits="userSpaceOnUse" orient="auto" markerWidth="16.23606797749979" markerHeight="10.550836550532098" viewBox="-1.0 -1.3763819204711736 16.23606797749979 10.550836550532098" refX="-1.0" refY="3.8990363547948754"><path id="ProcessOnPath1126" d="M12.0 3.8990363547948754L0.0 7.798072709589751V0.0Z" stroke="#323232" stroke-width="2.0" fill="#323232" transform="matrix(1.0,0.0,0.0,1.0,0.0,0.0)"/></marker><marker id="ProcessOnMarker1129" markerUnits="userSpaceOnUse" orient="auto" markerWidth="16.23606797749979" markerHeight="10.550836550532098" viewBox="-1.0 -1.3763819204711736 16.23606797749979 10.550836550532098" refX="-1.0" refY="3.8990363547948754"><path id="ProcessOnPath1130" d="M12.0 3.8990363547948754L0.0 7.798072709589751V0.0Z" stroke="#323232" stroke-width="2.0" fill="#323232" transform="matrix(1.0,0.0,0.0,1.0,0.0,0.0)"/></marker><marker id="ProcessOnMarker1148" markerUnits="userSpaceOnUse" orient="auto" markerWidth="16.23606797749979" markerHeight="10.550836550532098" viewBox="-1.0 -1.3763819204711736 16.23606797749979 10.550836550532098" refX="-1.0" refY="3.8990363547948754"><path id="ProcessOnPath1149" d="M12.0 3.8990363547948754L0.0 7.798072709589751V0.0Z" stroke="#323232" stroke-width="2.0" fill="#323232" transform="matrix(1.0,0.0,0.0,1.0,0.0,0.0)"/></marker><marker id="ProcessOnMarker1152" markerUnits="userSpaceOnUse" orient="auto" markerWidth="16.23606797749979" markerHeight="10.550836550532098" viewBox="-1.0 -1.3763819204711736 16.23606797749979 10.550836550532098" refX="-1.0" refY="3.8990363547948754"><path id="ProcessOnPath1153" d="M12.0 3.8990363547948754L0.0 7.798072709589751V0.0Z" stroke="#323232" stroke-width="2.0" fill="#323232" transform="matrix(1.0,0.0,0.0,1.0,0.0,0.0)"/></marker><marker id="ProcessOnMarker1156" markerUnits="userSpaceOnUse" orient="auto" markerWidth="16.23606797749979" markerHeight="10.550836550532098" viewBox="-1.0 -1.3763819204711736 16.23606797749979 10.550836550532098" refX="-1.0" refY="3.8990363547948754"><path id="ProcessOnPath1157" d="M12.0 3.8990363547948754L0.0 7.798072709589751V0.0Z" stroke="#323232" stroke-width="2.0" fill="#323232" transform="matrix(1.0,0.0,0.0,1.0,0.0,0.0)"/></marker><marker id="ProcessOnMarker1160" markerUnits="userSpaceOnUse" orient="auto" markerWidth="16.23606797749979" markerHeight="10.550836550532098" viewBox="-1.0 -1.3763819204711736 16.23606797749979 10.550836550532098" refX="-1.0" refY="3.8990363547948754"><path id="ProcessOnPath1161" d="M12.0 3.8990363547948754L0.0 7.798072709589751V0.0Z" stroke="#323232" stroke-width="2.0" fill="#323232" transform="matrix(1.0,0.0,0.0,1.0,0.0,0.0)"/></marker><marker id="ProcessOnMarker1164" markerUnits="userSpaceOnUse" orient="auto" markerWidth="16.23606797749979" markerHeight="10.550836550532098" viewBox="-1.0 -1.3763819204711736 16.23606797749979 10.550836550532098" refX="-1.0" refY="3.8990363547948754"><path id="ProcessOnPath1165" d="M12.0 3.8990363547948754L0.0 7.798072709589751V0.0Z" stroke="#323232" stroke-width="2.0" fill="#323232" transform="matrix(1.0,0.0,0.0,1.0,0.0,0.0)"/></marker><marker id="ProcessOnMarker1168" markerUnits="userSpaceOnUse" orient="auto" markerWidth="16.23606797749979" markerHeight="10.550836550532098" viewBox="-1.0 -1.3763819204711736 16.23606797749979 10.550836550532098" refX="-1.0" refY="3.8990363547948754"><path id="ProcessOnPath1169" d="M12.0 3.8990363547948754L0.0 7.798072709589751V0.0Z" stroke="#323232" stroke-width="2.0" fill="#323232" transform="matrix(1.0,0.0,0.0,1.0,0.0,0.0)"/></marker><marker id="ProcessOnMarker1172" markerUnits="userSpaceOnUse" orient="auto" markerWidth="16.23606797749979" markerHeight="10.550836550532098" viewBox="-1.0 -1.3763819204711736 16.23606797749979 10.550836550532098" refX="-1.0" refY="3.8990363547948754"><path id="ProcessOnPath1173" d="M12.0 3.8990363547948754L0.0 7.798072709589751V0.0Z" stroke="#323232" stroke-width="2.0" fill="#323232" transform="matrix(1.0,0.0,0.0,1.0,0.0,0.0)"/></marker><marker id="ProcessOnMarker1176" markerUnits="userSpaceOnUse" orient="auto" markerWidth="16.23606797749979" markerHeight="10.550836550532098" viewBox="-1.0 -1.3763819204711736 16.23606797749979 10.550836550532098" refX="-1.0" refY="3.8990363547948754"><path id="ProcessOnPath1177" d="M12.0 3.8990363547948754L0.0 7.798072709589751V0.0Z" stroke="#323232" stroke-width="2.0" fill="#323232" transform="matrix(1.0,0.0,0.0,1.0,0.0,0.0)"/></marker></defs><g id="ProcessOnG1002"><path id="ProcessOnPath1003" d="M41.0 17.0H1035.5V429.0H41.0V17.0Z" fill="none"/><g id="ProcessOnG1004"><g id="ProcessOnG1005" transform="matrix(1.0,0.0,0.0,1.0,731.0,37.0)" opacity="1.0"><path id="ProcessOnPath1006" d="M0.0 0.0L228.0 0.0L228.0 323.0L0.0 323.0Z" stroke="#323232" stroke-width="2.0" stroke-dasharray="10.0 4.0" opacity="1.0" fill="#ffffff"/></g><g id="ProcessOnG1007" transform="matrix(1.0,0.0,0.0,1.0,61.0,37.0)" opacity="1.0"><path id="ProcessOnPath1008" d="M0.0 0.0L643.0 0.0L643.0 328.0L0.0 328.0Z" stroke="#323232" stroke-width="2.0" stroke-dasharray="10.0 4.0" opacity="1.0" fill="#ffffff"/></g><g id="ProcessOnG1009" transform="matrix(1.0,0.0,0.0,1.0,92.0,98.0)" opacity="1.0"><path id="ProcessOnPath1010" d="M0.0 0.0L135.0 0.0L135.0 222.0L0.0 222.0Z" stroke="#323232" stroke-width="2.0" stroke-dasharray="none" opacity="1.0" fill="#ffffff"/></g><g id="ProcessOnG1011" transform="matrix(1.0,0.0,0.0,1.0,109.0,112.0)" opacity="1.0"><path id="ProcessOnPath1012" d="M0.0 0.0L101.0 0.0L101.0 40.0L0.0 40.0Z" stroke="#323232" stroke-width="2.0" stroke-dasharray="none" opacity="1.0" fill="#ffffff"/><g id="ProcessOnG1013" transform="matrix(1.0,0.0,0.0,1.0,10.0,11.875)"><text id="ProcessOnText1014" fill="#000000" font-size="13" x="39.5" y="13.325" font-family="微软雅黑" font-weight="normal" font-style="normal" text-decoration="none" family="微软雅黑" text-anchor="middle" size="13">hello,hadoop</text></g></g><g id="ProcessOnG1015" transform="matrix(1.0,0.0,0.0,1.0,109.0,165.5)" opacity="1.0"><path id="ProcessOnPath1016" d="M0.0 0.0L101.0 0.0L101.0 40.0L0.0 40.0Z" stroke="#323232" stroke-width="2.0" stroke-dasharray="none" opacity="1.0" fill="#ffffff"/><g id="ProcessOnG1017" transform="matrix(1.0,0.0,0.0,1.0,10.0,11.875)"><text id="ProcessOnText1018" fill="#000000" font-size="13" x="39.5" y="13.325" font-family="微软雅黑" font-weight="normal" font-style="normal" text-decoration="none" family="微软雅黑" text-anchor="middle" size="13">hello,hive</text></g></g><g id="ProcessOnG1019" transform="matrix(1.0,0.0,0.0,1.0,109.0,215.5)" opacity="1.0"><path id="ProcessOnPath1020" d="M0.0 0.0L101.0 0.0L101.0 40.0L0.0 40.0Z" stroke="#323232" stroke-width="2.0" stroke-dasharray="none" opacity="1.0" fill="#ffffff"/><g id="ProcessOnG1021" transform="matrix(1.0,0.0,0.0,1.0,10.0,11.875)"><text id="ProcessOnText1022" fill="#000000" font-size="13" x="39.5" y="13.325" font-family="微软雅黑" font-weight="normal" font-style="normal" text-decoration="none" family="微软雅黑" text-anchor="middle" size="13">hello,spark</text></g></g><g id="ProcessOnG1023" transform="matrix(1.0,0.0,0.0,1.0,109.0,265.5)" opacity="1.0"><path id="ProcessOnPath1024" d="M0.0 0.0L101.0 0.0L101.0 40.0L0.0 40.0Z" stroke="#323232" stroke-width="2.0" stroke-dasharray="none" opacity="1.0" fill="#ffffff"/><g id="ProcessOnG1025" transform="matrix(1.0,0.0,0.0,1.0,10.0,11.875)"><text id="ProcessOnText1026" fill="#000000" font-size="13" x="39.5" y="13.325" font-family="微软雅黑" font-weight="normal" font-style="normal" text-decoration="none" family="微软雅黑" text-anchor="middle" size="13">hello,hdfs</text></g></g><g id="ProcessOnG1027" transform="matrix(1.0,0.0,0.0,1.0,79.5,320.0)" opacity="1.0"><path id="ProcessOnPath1028" d="M0.0 0.0L160.0 0.0L160.0 40.0L0.0 40.0Z" stroke="none" stroke-width="0.0" stroke-dasharray="none" opacity="1.0" fill="none"/><g id="ProcessOnG1029" transform="matrix(1.0,0.0,0.0,1.0,0.0,10.0)"><text id="ProcessOnText1030" fill="#000000" font-size="16" x="79.0" y="16.4" font-family="微软雅黑" font-weight="normal" font-style="normal" text-decoration="none" family="微软雅黑" text-anchor="middle" size="16">lines</text></g></g><g id="ProcessOnG1031" transform="matrix(1.0,0.0,0.0,1.0,320.5,98.0)" opacity="1.0"><path id="ProcessOnPath1032" d="M0.0 0.0L135.0 0.0L135.0 222.0L0.0 222.0Z" stroke="#323232" stroke-width="2.0" stroke-dasharray="none" opacity="1.0" fill="#ffffff"/></g><g id="ProcessOnG1033" transform="matrix(1.0,0.0,0.0,1.0,337.5,112.0)" opacity="1.0"><path id="ProcessOnPath1034" d="M0.0 0.0L101.0 0.0L101.0 40.0L0.0 40.0Z" stroke="#323232" stroke-width="2.0" stroke-dasharray="none" opacity="1.0" fill="#ffffff"/><g id="ProcessOnG1035" transform="matrix(1.0,0.0,0.0,1.0,10.0,3.75)"><text id="ProcessOnText1036" fill="#000000" font-size="13" x="39.5" y="13.325" font-family="微软雅黑" font-weight="normal" font-style="normal" text-decoration="none" family="微软雅黑" text-anchor="middle" size="13">hello</text><text id="ProcessOnText1037" fill="#000000" font-size="13" x="39.5" y="29.575" font-family="微软雅黑" font-weight="normal" font-style="normal" text-decoration="none" family="微软雅黑" text-anchor="middle" size="13">hadoop</text></g></g><g id="ProcessOnG1038" transform="matrix(1.0,0.0,0.0,1.0,337.5,165.5)" opacity="1.0"><path id="ProcessOnPath1039" d="M0.0 0.0L101.0 0.0L101.0 40.0L0.0 40.0Z" stroke="#323232" stroke-width="2.0" stroke-dasharray="none" opacity="1.0" fill="#ffffff"/><g id="ProcessOnG1040" transform="matrix(1.0,0.0,0.0,1.0,10.0,3.75)"><text id="ProcessOnText1041" fill="#000000" font-size="13" x="39.5" y="13.325" font-family="微软雅黑" font-weight="normal" font-style="normal" text-decoration="none" family="微软雅黑" text-anchor="middle" size="13">hello</text><text id="ProcessOnText1042" fill="#000000" font-size="13" x="39.5" y="29.575" font-family="微软雅黑" font-weight="normal" font-style="normal" text-decoration="none" family="微软雅黑" text-anchor="middle" size="13">hive</text></g></g><g id="ProcessOnG1043" transform="matrix(1.0,0.0,0.0,1.0,337.5,215.5)" opacity="1.0"><path id="ProcessOnPath1044" d="M0.0 0.0L101.0 0.0L101.0 40.0L0.0 40.0Z" stroke="#323232" stroke-width="2.0" stroke-dasharray="none" opacity="1.0" fill="#ffffff"/><g id="ProcessOnG1045" transform="matrix(1.0,0.0,0.0,1.0,10.0,3.75)"><text id="ProcessOnText1046" fill="#000000" font-size="13" x="39.5" y="13.325" font-family="微软雅黑" font-weight="normal" font-style="normal" text-decoration="none" family="微软雅黑" text-anchor="middle" size="13">hello</text><text id="ProcessOnText1047" fill="#000000" font-size="13" x="39.5" y="29.575" font-family="微软雅黑" font-weight="normal" font-style="normal" text-decoration="none" family="微软雅黑" text-anchor="middle" size="13">spark</text></g></g><g id="ProcessOnG1048" transform="matrix(1.0,0.0,0.0,1.0,337.5,265.5)" opacity="1.0"><path id="ProcessOnPath1049" d="M0.0 0.0L101.0 0.0L101.0 40.0L0.0 40.0Z" stroke="#323232" stroke-width="2.0" stroke-dasharray="none" opacity="1.0" fill="#ffffff"/><g id="ProcessOnG1050" transform="matrix(1.0,0.0,0.0,1.0,10.0,3.75)"><text id="ProcessOnText1051" fill="#000000" font-size="13" x="39.5" y="13.325" font-family="微软雅黑" font-weight="normal" font-style="normal" text-decoration="none" family="微软雅黑" text-anchor="middle" size="13">hello</text><text id="ProcessOnText1052" fill="#000000" font-size="13" x="39.5" y="29.575" font-family="微软雅黑" font-weight="normal" font-style="normal" text-decoration="none" family="微软雅黑" text-anchor="middle" size="13">hdfs</text></g></g><g id="ProcessOnG1053" transform="matrix(1.0,0.0,0.0,1.0,308.0,320.0)" opacity="1.0"><path id="ProcessOnPath1054" d="M0.0 0.0L160.0 0.0L160.0 40.0L0.0 40.0Z" stroke="none" stroke-width="0.0" stroke-dasharray="none" opacity="1.0" fill="none"/><g id="ProcessOnG1055" transform="matrix(1.0,0.0,0.0,1.0,0.0,10.0)"><text id="ProcessOnText1056" fill="#000000" font-size="16" x="79.0" y="16.4" font-family="微软雅黑" font-weight="normal" font-style="normal" text-decoration="none" family="微软雅黑" text-anchor="middle" size="16">words</text></g></g><g id="ProcessOnG1057" transform="matrix(1.0,0.0,0.0,1.0,552.5,98.0)" opacity="1.0"><path id="ProcessOnPath1058" d="M0.0 0.0L135.0 0.0L135.0 222.0L0.0 222.0Z" stroke="#323232" stroke-width="2.0" stroke-dasharray="none" opacity="1.0" fill="#ffffff"/></g><g id="ProcessOnG1059" transform="matrix(1.0,0.0,0.0,1.0,569.5,112.0)" opacity="1.0"><path id="ProcessOnPath1060" d="M0.0 0.0L101.0 0.0L101.0 40.0L0.0 40.0Z" stroke="#323232" stroke-width="2.0" stroke-dasharray="none" opacity="1.0" fill="#ffffff"/><g id="ProcessOnG1061" transform="matrix(1.0,0.0,0.0,1.0,10.0,3.75)"><text id="ProcessOnText1062" fill="#000000" font-size="13" x="39.5" y="13.325" font-family="微软雅黑" font-weight="normal" font-style="normal" text-decoration="none" family="微软雅黑" text-anchor="middle" size="13">(hello, 1)</text><text id="ProcessOnText1063" fill="#000000" font-size="13" x="39.5" y="29.575" font-family="微软雅黑" font-weight="normal" font-style="normal" text-decoration="none" family="微软雅黑" text-anchor="middle" size="13">(hadoop, 1)</text></g></g><g id="ProcessOnG1064" transform="matrix(1.0,0.0,0.0,1.0,569.5,165.5)" opacity="1.0"><path id="ProcessOnPath1065" d="M0.0 0.0L101.0 0.0L101.0 40.0L0.0 40.0Z" stroke="#323232" stroke-width="2.0" stroke-dasharray="none" opacity="1.0" fill="#ffffff"/><g id="ProcessOnG1066" transform="matrix(1.0,0.0,0.0,1.0,10.0,3.75)"><text id="ProcessOnText1067" fill="#000000" font-size="13" x="39.5" y="13.325" font-family="微软雅黑" font-weight="normal" font-style="normal" text-decoration="none" family="微软雅黑" text-anchor="middle" size="13">(hello, 1)</text><text id="ProcessOnText1068" fill="#000000" font-size="13" x="39.5" y="29.575" font-family="微软雅黑" font-weight="normal" font-style="normal" text-decoration="none" family="微软雅黑" text-anchor="middle" size="13">(hive, 1)</text></g></g><g id="ProcessOnG1069" transform="matrix(1.0,0.0,0.0,1.0,569.5,215.5)" opacity="1.0"><path id="ProcessOnPath1070" d="M0.0 0.0L101.0 0.0L101.0 40.0L0.0 40.0Z" stroke="#323232" stroke-width="2.0" stroke-dasharray="none" opacity="1.0" fill="#ffffff"/><g id="ProcessOnG1071" transform="matrix(1.0,0.0,0.0,1.0,10.0,3.75)"><text id="ProcessOnText1072" fill="#000000" font-size="13" x="39.5" y="13.325" font-family="微软雅黑" font-weight="normal" font-style="normal" text-decoration="none" family="微软雅黑" text-anchor="middle" size="13">(hello, 1)</text><text id="ProcessOnText1073" fill="#000000" font-size="13" x="39.5" y="29.575" font-family="微软雅黑" font-weight="normal" font-style="normal" text-decoration="none" family="微软雅黑" text-anchor="middle" size="13">(spark, 1)</text></g></g><g id="ProcessOnG1074" transform="matrix(1.0,0.0,0.0,1.0,569.5,265.5)" opacity="1.0"><path id="ProcessOnPath1075" d="M0.0 0.0L101.0 0.0L101.0 40.0L0.0 40.0Z" stroke="#323232" stroke-width="2.0" stroke-dasharray="none" opacity="1.0" fill="#ffffff"/><g id="ProcessOnG1076" transform="matrix(1.0,0.0,0.0,1.0,10.0,3.75)"><text id="ProcessOnText1077" fill="#000000" font-size="13" x="39.5" y="13.325" font-family="微软雅黑" font-weight="normal" font-style="normal" text-decoration="none" family="微软雅黑" text-anchor="middle" size="13">(hello, 1)</text><text id="ProcessOnText1078" fill="#000000" font-size="13" x="39.5" y="29.575" font-family="微软雅黑" font-weight="normal" font-style="normal" text-decoration="none" family="微软雅黑" text-anchor="middle" size="13">(hdfs, 1)</text></g></g><g id="ProcessOnG1079" transform="matrix(1.0,0.0,0.0,1.0,540.0,320.0)" opacity="1.0"><path id="ProcessOnPath1080" d="M0.0 0.0L160.0 0.0L160.0 40.0L0.0 40.0Z" stroke="none" stroke-width="0.0" stroke-dasharray="none" opacity="1.0" fill="none"/><g id="ProcessOnG1081" transform="matrix(1.0,0.0,0.0,1.0,0.0,10.0)"><text id="ProcessOnText1082" fill="#000000" font-size="16" x="79.0" y="16.4" font-family="微软雅黑" font-weight="normal" font-style="normal" text-decoration="none" family="微软雅黑" text-anchor="middle" size="16">pairs</text></g></g><g id="ProcessOnG1083" transform="matrix(1.0,0.0,0.0,1.0,780.0,98.0)" opacity="1.0"><path id="ProcessOnPath1084" d="M0.0 0.0L135.0 0.0L135.0 222.0L0.0 222.0Z" stroke="#323232" stroke-width="2.0" stroke-dasharray="none" opacity="1.0" fill="#ffffff"/></g><g id="ProcessOnG1085" transform="matrix(1.0,0.0,0.0,1.0,797.0,112.0)" opacity="1.0"><path id="ProcessOnPath1086" d="M0.0 0.0L101.0 0.0L101.0 40.0L0.0 40.0Z" stroke="#323232" stroke-width="2.0" stroke-dasharray="none" opacity="1.0" fill="#ffffff"/><g id="ProcessOnG1087" transform="matrix(1.0,0.0,0.0,1.0,10.0,11.875)"><text id="ProcessOnText1088" fill="#000000" font-size="13" x="39.5" y="13.325" font-family="微软雅黑" font-weight="normal" font-style="normal" text-decoration="none" family="微软雅黑" text-anchor="middle" size="13">(hello, 4)</text></g></g><g id="ProcessOnG1089" transform="matrix(1.0,0.0,0.0,1.0,797.0,165.5)" opacity="1.0"><path id="ProcessOnPath1090" d="M0.0 0.0L101.0 0.0L101.0 124.5L0.0 124.5Z" stroke="#323232" stroke-width="2.0" stroke-dasharray="none" opacity="1.0" fill="#ffffff"/><g id="ProcessOnG1091" transform="matrix(1.0,0.0,0.0,1.0,10.0,37.875)"><text id="ProcessOnText1092" fill="#000000" font-size="13" x="39.5" y="13.325" font-family="微软雅黑" font-weight="normal" font-style="normal" text-decoration="none" family="微软雅黑" text-anchor="middle" size="13">(hive, 1)</text><text id="ProcessOnText1093" fill="#000000" font-size="13" x="39.5" y="29.575" font-family="微软雅黑" font-weight="normal" font-style="normal" text-decoration="none" family="微软雅黑" text-anchor="middle" size="13">(spark, 1)</text><text id="ProcessOnText1094" fill="#000000" font-size="13" x="39.5" y="45.825" font-family="微软雅黑" font-weight="normal" font-style="normal" text-decoration="none" family="微软雅黑" text-anchor="middle" size="13">(hdfs, 1</text></g></g><g id="ProcessOnG1095" transform="matrix(1.0,0.0,0.0,1.0,767.5,320.0)" opacity="1.0"><path id="ProcessOnPath1096" d="M0.0 0.0L160.0 0.0L160.0 40.0L0.0 40.0Z" stroke="none" stroke-width="0.0" stroke-dasharray="none" opacity="1.0" fill="none"/><g id="ProcessOnG1097" transform="matrix(1.0,0.0,0.0,1.0,0.0,10.0)"><text id="ProcessOnText1098" fill="#000000" font-size="16" x="79.0" y="16.4" font-family="微软雅黑" font-weight="normal" font-style="normal" text-decoration="none" family="微软雅黑" text-anchor="middle" size="16">wordcount</text></g></g><g id="ProcessOnG1099"><path id="ProcessOnPath1100" d="M670.5 132.0L733.75 132.0L733.75 132.0L781.7639320225002 132.0" stroke="#323232" stroke-width="2.0" stroke-dasharray="none" fill="none" marker-end="url(#ProcessOnMarker1101)"/></g><g id="ProcessOnG1103"><path id="ProcessOnPath1104" d="M670.5 185.5L782.9673149577152 137.93477193487934" stroke="#323232" stroke-width="2.0" stroke-dasharray="none" fill="none" marker-end="url(#ProcessOnMarker1105)"/></g><g id="ProcessOnG1107"><path id="ProcessOnPath1108" d="M670.5 235.5L785.207933977656 141.6480540182814" stroke="#323232" stroke-width="2.0" stroke-dasharray="none" fill="none" marker-end="url(#ProcessOnMarker1109)"/></g><g id="ProcessOnG1111"><path id="ProcessOnPath1112" d="M670.5 285.5L787.3102943075505 143.7578642196917" stroke="#323232" stroke-width="2.0" stroke-dasharray="none" fill="none" marker-end="url(#ProcessOnMarker1113)"/></g><g id="ProcessOnG1115"><path id="ProcessOnPath1116" d="M670.5 132.0L784.851598873534 218.5546687125762" stroke="#323232" stroke-width="2.0" stroke-dasharray="none" fill="none" marker-end="url(#ProcessOnMarker1117)"/></g><g id="ProcessOnG1119"><path id="ProcessOnPath1120" d="M670.5 185.5L782.5486553181726 222.92336511614855" stroke="#323232" stroke-width="2.0" stroke-dasharray="none" fill="none" marker-end="url(#ProcessOnMarker1121)"/></g><g id="ProcessOnG1123"><path id="ProcessOnPath1124" d="M670.5 235.5L781.7924451466112 228.6816881431918" stroke="#323232" stroke-width="2.0" stroke-dasharray="none" fill="none" marker-end="url(#ProcessOnMarker1125)"/></g><g id="ProcessOnG1127"><path id="ProcessOnPath1128" d="M670.5 285.5L783.1399317348267 234.07742246888344" stroke="#323232" stroke-width="2.0" stroke-dasharray="none" fill="none" marker-end="url(#ProcessOnMarker1129)"/></g><g id="ProcessOnG1131" transform="matrix(1.0,0.0,0.0,1.0,183.0,52.0)" opacity="1.0"><path id="ProcessOnPath1132" d="M0.0 0.0L166.0 0.0L166.0 40.0L0.0 40.0Z" stroke="none" stroke-width="0.0" stroke-dasharray="none" opacity="1.0" fill="none"/><g id="ProcessOnG1133" transform="matrix(1.0,0.0,0.0,1.0,0.0,2.5)"><text id="ProcessOnText1134" fill="#000000" font-size="14" x="82.0" y="14.350000000000001" font-family="微软雅黑" font-weight="normal" font-style="normal" text-decoration="none" family="微软雅黑" text-anchor="middle" size="14">(Narrow Dependencies)</text><text id="ProcessOnText1135" fill="#000000" font-size="14" x="82.0" y="31.85" font-family="微软雅黑" font-weight="normal" font-style="normal" text-decoration="none" family="微软雅黑" text-anchor="middle" size="14">flatMap</text></g></g><g id="ProcessOnG1136" transform="matrix(1.0,0.0,0.0,1.0,424.5,52.0)" opacity="1.0"><path id="ProcessOnPath1137" d="M0.0 0.0L166.5 0.0L166.5 40.0L0.0 40.0Z" stroke="none" stroke-width="0.0" stroke-dasharray="none" opacity="1.0" fill="none"/><g id="ProcessOnG1138" transform="matrix(1.0,0.0,0.0,1.0,0.0,2.5)"><text id="ProcessOnText1139" fill="#000000" font-size="14" x="82.25" y="14.350000000000001" font-family="微软雅黑" font-weight="normal" font-style="normal" text-decoration="none" family="微软雅黑" text-anchor="middle" size="14">(Narrow Dependencies)</text><text id="ProcessOnText1140" fill="#000000" font-size="14" x="82.25" y="31.85" font-family="微软雅黑" font-weight="normal" font-style="normal" text-decoration="none" family="微软雅黑" text-anchor="middle" size="14">map</text></g></g><g id="ProcessOnG1141" transform="matrix(1.0,0.0,0.0,1.0,637.0,52.0)" opacity="1.0"><path id="ProcessOnPath1142" d="M0.0 0.0L160.0 0.0L160.0 40.0L0.0 40.0Z" stroke="none" stroke-width="0.0" stroke-dasharray="none" opacity="1.0" fill="none"/><g id="ProcessOnG1143" transform="matrix(1.0,0.0,0.0,1.0,0.0,2.5)"><text id="ProcessOnText1144" fill="#000000" font-size="14" x="79.0" y="14.350000000000001" font-family="微软雅黑" font-weight="normal" font-style="normal" text-decoration="none" family="微软雅黑" text-anchor="middle" size="14">(Wide Dependencies)</text><text id="ProcessOnText1145" fill="#000000" font-size="14" x="79.0" y="31.85" font-family="微软雅黑" font-weight="normal" font-style="normal" text-decoration="none" family="微软雅黑" text-anchor="middle" size="14">reduceByKey</text></g></g><g id="ProcessOnG1146"><path id="ProcessOnPath1147" d="M210.0 132.0L322.2639320225002 132.0" stroke="#323232" stroke-width="2.0" stroke-dasharray="none" fill="none" marker-end="url(#ProcessOnMarker1148)"/></g><g id="ProcessOnG1150"><path id="ProcessOnPath1151" d="M210.0 185.5L322.2639320225002 185.5" stroke="#323232" stroke-width="2.0" stroke-dasharray="none" fill="none" marker-end="url(#ProcessOnMarker1152)"/></g><g id="ProcessOnG1154"><path id="ProcessOnPath1155" d="M210.0 235.5L322.2639320225002 235.5" stroke="#323232" stroke-width="2.0" stroke-dasharray="none" fill="none" marker-end="url(#ProcessOnMarker1156)"/></g><g id="ProcessOnG1158"><path id="ProcessOnPath1159" d="M210.0 285.5L322.2639320225002 285.5" stroke="#323232" stroke-width="2.0" stroke-dasharray="none" fill="none" marker-end="url(#ProcessOnMarker1160)"/></g><g id="ProcessOnG1162"><path id="ProcessOnPath1163" d="M438.5 132.0L554.2639320225002 132.0" stroke="#323232" stroke-width="2.0" stroke-dasharray="none" fill="none" marker-end="url(#ProcessOnMarker1164)"/></g><g id="ProcessOnG1166"><path id="ProcessOnPath1167" d="M438.5 185.5L554.2639320225002 185.5" stroke="#323232" stroke-width="2.0" stroke-dasharray="none" fill="none" marker-end="url(#ProcessOnMarker1168)"/></g><g id="ProcessOnG1170"><path id="ProcessOnPath1171" d="M438.5 235.5L554.2639320225002 235.5" stroke="#323232" stroke-width="2.0" stroke-dasharray="none" fill="none" marker-end="url(#ProcessOnMarker1172)"/></g><g id="ProcessOnG1174"><path id="ProcessOnPath1175" d="M438.5 285.5L554.2639320225002 285.5" stroke="#323232" stroke-width="2.0" stroke-dasharray="none" fill="none" marker-end="url(#ProcessOnMarker1176)"/></g><g id="ProcessOnG1178" transform="matrix(1.0,0.0,0.0,1.0,587.0,369.0)" opacity="1.0"><path id="ProcessOnPath1179" d="M0.0 0.0L160.0 0.0L160.0 40.0L0.0 40.0Z" stroke="none" stroke-width="0.0" stroke-dasharray="none" opacity="1.0" fill="none"/><g id="ProcessOnG1180" transform="matrix(1.0,0.0,0.0,1.0,0.0,9.375)"><text id="ProcessOnText1181" fill="#000000" font-size="17" x="79.0" y="17.425" font-family="微软雅黑" font-weight="normal" font-style="normal" text-decoration="none" family="微软雅黑" text-anchor="middle" size="17">Stage0</text></g></g><g id="ProcessOnG1182" transform="matrix(1.0,0.0,0.0,1.0,855.5,369.0)" opacity="1.0"><path id="ProcessOnPath1183" d="M0.0 0.0L160.0 0.0L160.0 40.0L0.0 40.0Z" stroke="none" stroke-width="0.0" stroke-dasharray="none" opacity="1.0" fill="none"/><g id="ProcessOnG1184" transform="matrix(1.0,0.0,0.0,1.0,0.0,9.375)"><text id="ProcessOnText1185" fill="#000000" font-size="17" x="79.0" y="17.425" font-family="微软雅黑" font-weight="normal" font-style="normal" text-decoration="none" family="微软雅黑" text-anchor="middle" size="17">Stage1</text></g></g></g></g></svg>