<svg xmlns="http://www.w3.org/2000/svg" xmlns:xlink="http://www.w3.org/1999/xlink" id="processonSvg1000" viewBox="224.0 96.0 387.0 420.0" width="387.0" height="420.0"><defs id="ProcessOnDefs1001"><marker id="ProcessOnMarker1064" markerUnits="userSpaceOnUse" orient="auto" markerWidth="16.23606797749979" markerHeight="10.550836550532098" viewBox="-1.0 -1.3763819204711736 16.23606797749979 10.550836550532098" refX="-1.0" refY="3.8990363547948754"><path id="ProcessOnPath1065" d="M12.0 3.8990363547948754L0.0 7.798072709589751V0.0Z" stroke="#323232" stroke-width="2.0" fill="#323232" transform="matrix(1.0,0.0,0.0,1.0,0.0,0.0)"/></marker><marker id="ProcessOnMarker1071" markerUnits="userSpaceOnUse" orient="auto" markerWidth="16.23606797749979" markerHeight="10.550836550532098" viewBox="-1.0 -1.3763819204711736 16.23606797749979 10.550836550532098" refX="-1.0" refY="3.8990363547948754"><path id="ProcessOnPath1072" d="M12.0 3.8990363547948754L0.0 7.798072709589751V0.0Z" stroke="#323232" stroke-width="2.0" fill="#323232" transform="matrix(1.0,0.0,0.0,1.0,0.0,0.0)"/></marker></defs><g id="ProcessOnG1002"><path id="ProcessOnPath1003" d="M224.0 96.0H611.0V516.0H224.0V96.0Z" fill="none"/><g id="ProcessOnG1004"><g id="ProcessOnG1005" transform="matrix(1.0,0.0,0.0,1.0,244.0,198.0)" opacity="1.0"><path id="ProcessOnPath1006" d="M0.0 0.0L179.0 0.0L179.0 44.0L0.0 44.0Z" stroke="#323232" stroke-width="2.0" stroke-dasharray="none" opacity="1.0" fill="#ccccff"/><g id="ProcessOnG1007" transform="matrix(1.0,0.0,0.0,1.0,10.0,13.875)"><text id="ProcessOnText1008" fill="#000000" font-size="13" x="78.5" y="13.325" font-family="微软雅黑" font-weight="normal" font-style="normal" text-decoration="none" family="微软雅黑" text-anchor="middle" size="13">Command-line shell</text></g></g><g id="ProcessOnG1009" transform="matrix(1.0,0.0,0.0,1.0,423.0,198.0)" opacity="1.0"><path id="ProcessOnPath1010" d="M0.0 0.0L168.0 0.0L168.0 44.0L0.0 44.0Z" stroke="#323232" stroke-width="2.0" stroke-dasharray="none" opacity="1.0" fill="#ccccff"/><g id="ProcessOnG1011" transform="matrix(1.0,0.0,0.0,1.0,10.0,13.875)"><text id="ProcessOnText1012" fill="#000000" font-size="13" x="73.0" y="13.325" font-family="微软雅黑" font-weight="normal" font-style="normal" text-decoration="none" family="微软雅黑" text-anchor="middle" size="13">Thrift/JDBC</text></g></g><g id="ProcessOnG1013" transform="matrix(1.0,0.0,0.0,1.0,244.0,258.0)" opacity="1.0"><path id="ProcessOnPath1014" d="M0.0 0.0L68.0 0.0L68.0 184.0L0.0 184.0Z" stroke="#323232" stroke-width="2.0" stroke-dasharray="none" opacity="1.0" fill="#ccccff"/><g id="ProcessOnG1015" transform="matrix(1.0,0.0,0.0,1.0,10.0,75.75)"><text id="ProcessOnText1016" fill="#000000" font-size="13" x="23.0" y="13.325" font-family="微软雅黑" font-weight="normal" font-style="normal" text-decoration="none" family="微软雅黑" text-anchor="middle" size="13">Meta</text><text id="ProcessOnText1017" fill="#000000" font-size="13" x="23.0" y="29.575" font-family="微软雅黑" font-weight="normal" font-style="normal" text-decoration="none" family="微软雅黑" text-anchor="middle" size="13">store</text></g></g><g id="ProcessOnG1018" transform="matrix(1.0,0.0,0.0,1.0,323.0,258.0)" opacity="1.0"><path id="ProcessOnPath1019" d="M0.0 0.0L265.0 0.0L265.0 143.0L0.0 143.0Z" stroke="#323232" stroke-width="2.0" stroke-dasharray="none" opacity="1.0" fill="#ffffff"/></g><g id="ProcessOnG1020" transform="matrix(1.0,0.0,0.0,1.0,323.0,258.0)" opacity="1.0"><path id="ProcessOnPath1021" d="M0.0 0.0L268.0 0.0L268.0 55.0L0.0 55.0Z" stroke="#000000" stroke-width="2.0" stroke-dasharray="none" opacity="1.0" fill="#ccccff"/><g id="ProcessOnG1022" transform="matrix(1.0,0.0,0.0,1.0,10.0,19.375)"><text id="ProcessOnText1023" fill="#000000" font-size="13" x="123.0" y="13.325" font-family="微软雅黑" font-weight="normal" font-style="normal" text-decoration="none" family="微软雅黑" text-anchor="middle" size="13">Driver</text></g></g><g id="ProcessOnG1024" transform="matrix(1.0,0.0,0.0,1.0,323.0,313.0)" opacity="1.0"><path id="ProcessOnPath1025" d="M0.0 0.0L72.0 0.0L72.0 88.0L0.0 88.0Z" stroke="#323232" stroke-width="2.0" stroke-dasharray="none" opacity="1.0" fill="#ccccff"/><g id="ProcessOnG1026" transform="matrix(1.0,0.0,0.0,1.0,10.0,27.75)"><text id="ProcessOnText1027" fill="#000000" font-size="13" x="25.0" y="13.325" font-family="微软雅黑" font-weight="normal" font-style="normal" text-decoration="none" family="微软雅黑" text-anchor="middle" size="13">SQL</text><text id="ProcessOnText1028" fill="#000000" font-size="13" x="25.0" y="29.575" font-family="微软雅黑" font-weight="normal" font-style="normal" text-decoration="none" family="微软雅黑" text-anchor="middle" size="13">Parser</text></g></g><g id="ProcessOnG1029" transform="matrix(1.0,0.0,0.0,1.0,386.0,313.0)" opacity="1.0"><path id="ProcessOnPath1030" d="M0.0 0.0L87.0 0.0L87.0 88.0L0.0 88.0Z" stroke="#323232" stroke-width="2.0" stroke-dasharray="none" opacity="1.0" fill="#ccccff"/><g id="ProcessOnG1031" transform="matrix(1.0,0.0,0.0,1.0,10.0,27.75)"><text id="ProcessOnText1032" fill="#000000" font-size="13" x="32.5" y="13.325" font-family="微软雅黑" font-weight="normal" font-style="normal" text-decoration="none" family="微软雅黑" text-anchor="middle" size="13">Query</text><text id="ProcessOnText1033" fill="#000000" font-size="13" x="32.5" y="29.575" font-family="微软雅黑" font-weight="normal" font-style="normal" text-decoration="none" family="微软雅黑" text-anchor="middle" size="13">Optimizer</text></g></g><g id="ProcessOnG1034" transform="matrix(1.0,0.0,0.0,1.0,473.0,313.0)" opacity="1.0"><path id="ProcessOnPath1035" d="M0.0 0.0L118.0 0.0L118.0 33.0L0.0 33.0Z" stroke="#000000" stroke-width="2.0" stroke-dasharray="none" opacity="1.0" fill="#ccccff"/><g id="ProcessOnG1036" transform="matrix(1.0,0.0,0.0,1.0,10.0,8.375)"><text id="ProcessOnText1037" fill="#000000" font-size="13" x="48.0" y="13.325" font-family="微软雅黑" font-weight="normal" font-style="normal" text-decoration="none" family="微软雅黑" text-anchor="middle" size="13">Physical Plan</text></g></g><g id="ProcessOnG1038" transform="matrix(1.0,0.0,0.0,1.0,323.0,409.0)" opacity="1.0"><path id="ProcessOnPath1039" d="M0.0 0.0L268.0 0.0L268.0 33.0L0.0 33.0Z" stroke="#323232" stroke-width="2.0" stroke-dasharray="none" opacity="1.0" fill="#009900"/><g id="ProcessOnG1040" transform="matrix(1.0,0.0,0.0,1.0,10.0,8.375)"><text id="ProcessOnText1041" fill="#000000" font-size="13" x="123.0" y="13.325" font-family="微软雅黑" font-weight="normal" font-style="normal" text-decoration="none" family="微软雅黑" text-anchor="middle" size="13">MapReduce</text></g></g><g id="ProcessOnG1042" transform="matrix(1.0,0.0,0.0,1.0,473.0,346.0)" opacity="1.0"><path id="ProcessOnPath1043" d="M0.0 0.0L118.0 0.0L118.0 28.0L0.0 28.0Z" stroke="#000000" stroke-width="2.0" stroke-dasharray="none" opacity="1.0" fill="#ccccff"/><g id="ProcessOnG1044" transform="matrix(1.0,0.0,0.0,1.0,10.0,5.875)"><text id="ProcessOnText1045" fill="#000000" font-size="13" x="48.0" y="13.325" font-family="微软雅黑" font-weight="normal" font-style="normal" text-decoration="none" family="微软雅黑" text-anchor="middle" size="13">SerDes, UDFs</text></g></g><g id="ProcessOnG1046" transform="matrix(1.0,0.0,0.0,1.0,473.0,374.0)" opacity="1.0"><path id="ProcessOnPath1047" d="M0.0 0.0L118.0 0.0L118.0 27.0L0.0 27.0Z" stroke="#000000" stroke-width="2.0" stroke-dasharray="none" opacity="1.0" fill="#ccccff"/><g id="ProcessOnG1048" transform="matrix(1.0,0.0,0.0,1.0,10.0,5.375)"><text id="ProcessOnText1049" fill="#000000" font-size="13" x="48.0" y="13.325" font-family="微软雅黑" font-weight="normal" font-style="normal" text-decoration="none" family="微软雅黑" text-anchor="middle" size="13">Execution</text></g></g><g id="ProcessOnG1050" transform="matrix(1.0,0.0,0.0,1.0,247.0,459.0)" opacity="1.0"><path id="ProcessOnPath1051" d="M0.0 0.0L344.0 0.0L344.0 37.0L0.0 37.0Z" stroke="#323232" stroke-width="2.0" stroke-dasharray="none" opacity="1.0" fill="#009900"/><g id="ProcessOnG1052" transform="matrix(1.0,0.0,0.0,1.0,10.0,10.375)"><text id="ProcessOnText1053" fill="#000000" font-size="13" x="161.0" y="13.325" font-family="微软雅黑" font-weight="normal" font-style="normal" text-decoration="none" family="微软雅黑" text-anchor="middle" size="13">Hadoop Storage</text></g></g><g id="ProcessOnG1054" transform="matrix(1.0,0.0,0.0,1.0,292.0,116.0)" opacity="1.0"><path id="ProcessOnPath1055" d="M0.0 0.0L103.0 0.0L103.0 38.0L0.0 38.0Z" stroke="#323232" stroke-width="2.0" stroke-dasharray="none" opacity="1.0" fill="#ffffff"/><g id="ProcessOnG1056" transform="matrix(1.0,0.0,0.0,1.0,10.0,10.875)"><text id="ProcessOnText1057" fill="#000000" font-size="13" x="40.5" y="13.325" font-family="微软雅黑" font-weight="normal" font-style="normal" text-decoration="none" family="微软雅黑" text-anchor="middle" size="13">Client</text></g></g><g id="ProcessOnG1058" transform="matrix(1.0,0.0,0.0,1.0,433.0,116.0)" opacity="1.0"><path id="ProcessOnPath1059" d="M0.0 0.0L103.0 0.0L103.0 38.0L0.0 38.0Z" stroke="#323232" stroke-width="2.0" stroke-dasharray="none" opacity="1.0" fill="#ffffff"/><g id="ProcessOnG1060" transform="matrix(1.0,0.0,0.0,1.0,10.0,10.875)"><text id="ProcessOnText1061" fill="#000000" font-size="13" x="40.5" y="13.325" font-family="微软雅黑" font-weight="normal" font-style="normal" text-decoration="none" family="微软雅黑" text-anchor="middle" size="13">Client</text></g></g><g id="ProcessOnG1062"><path id="ProcessOnPath1063" d="M343.5 154.0L336.87663419953003 183.1428095220678" stroke="#323232" stroke-width="2.0" stroke-dasharray="none" fill="none" marker-end="url(#ProcessOnMarker1064)"/><g id="ProcessOnG1066" transform="matrix(1.0,0.0,0.0,1.0,340.188317099765,160.4464047610339)"><path id="ProcessOnPath1067" d="M0 0H57.0V16.25H0Z" fill="#fff" transform="matrix(1.0,0.0,0.0,1.0,-28.5,0.0)"/><text id="ProcessOnText1068" fill="#000000" font-size="13" x="0.0" y="13.325" font-family="微软雅黑" font-weight="normal" font-style="normal" text-decoration="none" family="微软雅黑" text-anchor="middle" size="13">Hive SQL</text></g></g><g id="ProcessOnG1069"><path id="ProcessOnPath1070" d="M484.5 154.0L500.0631810340252 184.43466513320487" stroke="#323232" stroke-width="2.0" stroke-dasharray="none" fill="none" marker-end="url(#ProcessOnMarker1071)"/><g id="ProcessOnG1073" transform="matrix(1.0,0.0,0.0,1.0,492.2815905170126,161.09233256660244)"><path id="ProcessOnPath1074" d="M0 0H56.99999999999994V16.25H0Z" fill="#fff" transform="matrix(1.0,0.0,0.0,1.0,-28.49999999999997,0.0)"/><text id="ProcessOnText1075" fill="#000000" font-size="13" x="0.0" y="13.325" font-family="微软雅黑" font-weight="normal" font-style="normal" text-decoration="none" family="微软雅黑" text-anchor="middle" size="13">Hive SQL</text></g></g></g></g></svg>