<svg xmlns="http://www.w3.org/2000/svg" xmlns:xlink="http://www.w3.org/1999/xlink" id="processonSvg1000" viewBox="37.0 156.0 1113.0 317.0" width="1113.0" height="317.0"><defs id="ProcessOnDefs1001"><marker id="ProcessOnMarker1179" markerUnits="userSpaceOnUse" orient="auto" markerWidth="16.23606797749979" markerHeight="10.550836550532098" viewBox="-1.0 -1.3763819204711736 16.23606797749979 10.550836550532098" refX="-1.0" refY="3.8990363547948754"><path id="ProcessOnPath1180" d="M12.0 3.8990363547948754L0.0 7.798072709589751V0.0Z" stroke="#323232" stroke-width="2.0" fill="#323232" transform="matrix(1.0,0.0,0.0,1.0,0.0,0.0)"/></marker><marker id="ProcessOnMarker1183" markerUnits="userSpaceOnUse" orient="auto" markerWidth="16.23606797749979" markerHeight="10.550836550532098" viewBox="-1.0 -1.3763819204711736 16.23606797749979 10.550836550532098" refX="-1.0" refY="3.8990363547948754"><path id="ProcessOnPath1184" d="M12.0 3.8990363547948754L0.0 7.798072709589751V0.0Z" stroke="#323232" stroke-width="2.0" fill="#323232" transform="matrix(1.0,0.0,0.0,1.0,0.0,0.0)"/></marker><marker id="ProcessOnMarker1187" markerUnits="userSpaceOnUse" orient="auto" markerWidth="16.23606797749979" markerHeight="10.550836550532098" viewBox="-1.0 -1.3763819204711736 16.23606797749979 10.550836550532098" refX="-1.0" refY="3.8990363547948754"><path id="ProcessOnPath1188" d="M12.0 3.8990363547948754L0.0 7.798072709589751V0.0Z" stroke="#323232" stroke-width="2.0" fill="#323232" transform="matrix(1.0,0.0,0.0,1.0,0.0,0.0)"/></marker><marker id="ProcessOnMarker1191" markerUnits="userSpaceOnUse" orient="auto" markerWidth="16.23606797749979" markerHeight="10.550836550532098" viewBox="-1.0 -1.3763819204711736 16.23606797749979 10.550836550532098" refX="-1.0" refY="3.8990363547948754"><path id="ProcessOnPath1192" d="M12.0 3.8990363547948754L0.0 7.798072709589751V0.0Z" stroke="#323232" stroke-width="2.0" fill="#323232" transform="matrix(1.0,0.0,0.0,1.0,0.0,0.0)"/></marker></defs><g id="ProcessOnG1002"><path id="ProcessOnPath1003" d="M37.0 156.0H1150.0V473.0H37.0V156.0Z" fill="none"/><g id="ProcessOnG1004"><g id="ProcessOnG1005" transform="matrix(1.0,0.0,0.0,1.0,57.0,176.0)" opacity="1.0"><path id="ProcessOnPath1006" d="M0.0 0.0L176.0 0.0L176.0 83.0L0.0 83.0Z" stroke="none" stroke-width="0.0" stroke-dasharray="none" opacity="1.0" fill="#ffffff"/><path id="ProcessOnPath1007" d="M0.0 0.0L176.0 0.0L176.0 21.25L0.0 21.25Z" stroke="none" stroke-width="0.0" stroke-dasharray="none" opacity="1.0" fill="#dadada"/><path id="ProcessOnPath1008" d="M0.0 21.5L176.0 21.5M0.0 42.5L176.0 42.5M0.0 62.5L176.0 62.5M88.5 0.0L88.5 83.0" stroke="#8a8a8a" stroke-width="1.0" stroke-dasharray="none" opacity="1.0" fill="none"/><path id="ProcessOnPath1009" d="M0.0 0.0L176.0 0.0L176.0 83.0L0.0 83.0Z" stroke="#8a8a8a" stroke-width="2.0" stroke-dasharray="none" opacity="1.0" fill="none"/><g id="ProcessOnG1010" transform="matrix(1.0,0.0,0.0,1.0,5.0,1.625)"><text id="ProcessOnText1011" fill="#000000" font-size="14" x="38.0" y="14.350000000000001" font-family="微软雅黑" font-weight="normal" font-style="normal" text-decoration="none" family="微软雅黑" text-anchor="middle" size="14">id</text></g><g id="ProcessOnG1012" transform="matrix(1.0,0.0,0.0,1.0,93.0,1.625)"><text id="ProcessOnText1013" fill="#000000" font-size="14" x="38.0" y="14.350000000000001" font-family="微软雅黑" font-weight="normal" font-style="normal" text-decoration="none" family="微软雅黑" text-anchor="middle" size="14">name</text></g><g id="ProcessOnG1014" transform="matrix(1.0,0.0,0.0,1.0,5.0,22.375)"><text id="ProcessOnText1015" fill="#000000" font-size="14" x="38.0" y="14.350000000000001" font-family="微软雅黑" font-weight="normal" font-style="normal" text-decoration="none" family="微软雅黑" text-anchor="middle" size="14">1</text></g><g id="ProcessOnG1016" transform="matrix(1.0,0.0,0.0,1.0,93.0,22.375)"><text id="ProcessOnText1017" fill="#000000" font-size="14" x="38.0" y="14.350000000000001" font-family="微软雅黑" font-weight="normal" font-style="normal" text-decoration="none" family="微软雅黑" text-anchor="middle" size="14">zhangsa</text></g><g id="ProcessOnG1018" transform="matrix(1.0,0.0,0.0,1.0,5.0,43.125)"><text id="ProcessOnText1019" fill="#000000" font-size="14" x="38.0" y="14.350000000000001" font-family="微软雅黑" font-weight="normal" font-style="normal" text-decoration="none" family="微软雅黑" text-anchor="middle" size="14">2</text></g><g id="ProcessOnG1020" transform="matrix(1.0,0.0,0.0,1.0,93.0,43.125)"><text id="ProcessOnText1021" fill="#000000" font-size="14" x="38.0" y="14.350000000000001" font-family="微软雅黑" font-weight="normal" font-style="normal" text-decoration="none" family="微软雅黑" text-anchor="middle" size="14">lisi</text></g><g id="ProcessOnG1022" transform="matrix(1.0,0.0,0.0,1.0,5.0,63.875)"><text id="ProcessOnText1023" fill="#000000" font-size="14" x="38.0" y="14.350000000000001" font-family="微软雅黑" font-weight="normal" font-style="normal" text-decoration="none" family="微软雅黑" text-anchor="middle" size="14">3</text></g><g id="ProcessOnG1024" transform="matrix(1.0,0.0,0.0,1.0,93.0,63.875)"><text id="ProcessOnText1025" fill="#000000" font-size="14" x="38.0" y="14.350000000000001" font-family="微软雅黑" font-weight="normal" font-style="normal" text-decoration="none" family="微软雅黑" text-anchor="middle" size="14">wangwu</text></g></g><g id="ProcessOnG1026" transform="matrix(1.0,0.0,0.0,1.0,57.0,326.0)" opacity="1.0"><path id="ProcessOnPath1027" d="M0.0 0.0L176.0 0.0L176.0 83.0L0.0 83.0Z" stroke="none" stroke-width="0.0" stroke-dasharray="none" opacity="1.0" fill="#ffffff"/><path id="ProcessOnPath1028" d="M0.0 0.0L176.0 0.0L176.0 21.25L0.0 21.25Z" stroke="none" stroke-width="0.0" stroke-dasharray="none" opacity="1.0" fill="#dadada"/><path id="ProcessOnPath1029" d="M0.0 21.5L176.0 21.5M0.0 42.5L176.0 42.5M0.0 62.5L176.0 62.5M88.5 0.0L88.5 83.0" stroke="#8a8a8a" stroke-width="1.0" stroke-dasharray="none" opacity="1.0" fill="none"/><path id="ProcessOnPath1030" d="M0.0 0.0L176.0 0.0L176.0 83.0L0.0 83.0Z" stroke="#8a8a8a" stroke-width="2.0" stroke-dasharray="none" opacity="1.0" fill="none"/><g id="ProcessOnG1031" transform="matrix(1.0,0.0,0.0,1.0,5.0,1.625)"><text id="ProcessOnText1032" fill="#000000" font-size="14" x="38.0" y="14.350000000000001" font-family="微软雅黑" font-weight="normal" font-style="normal" text-decoration="none" family="微软雅黑" text-anchor="middle" size="14">id</text></g><g id="ProcessOnG1033" transform="matrix(1.0,0.0,0.0,1.0,93.0,1.625)"><text id="ProcessOnText1034" fill="#000000" font-size="14" x="38.0" y="14.350000000000001" font-family="微软雅黑" font-weight="normal" font-style="normal" text-decoration="none" family="微软雅黑" text-anchor="middle" size="14">age</text></g><g id="ProcessOnG1035" transform="matrix(1.0,0.0,0.0,1.0,5.0,22.375)"><text id="ProcessOnText1036" fill="#000000" font-size="14" x="38.0" y="14.350000000000001" font-family="微软雅黑" font-weight="normal" font-style="normal" text-decoration="none" family="微软雅黑" text-anchor="middle" size="14">1</text></g><g id="ProcessOnG1037" transform="matrix(1.0,0.0,0.0,1.0,93.0,22.375)"><text id="ProcessOnText1038" fill="#000000" font-size="14" x="38.0" y="14.350000000000001" font-family="微软雅黑" font-weight="normal" font-style="normal" text-decoration="none" family="微软雅黑" text-anchor="middle" size="14">28</text></g><g id="ProcessOnG1039" transform="matrix(1.0,0.0,0.0,1.0,5.0,43.125)"><text id="ProcessOnText1040" fill="#000000" font-size="14" x="38.0" y="14.350000000000001" font-family="微软雅黑" font-weight="normal" font-style="normal" text-decoration="none" family="微软雅黑" text-anchor="middle" size="14">2</text></g><g id="ProcessOnG1041" transform="matrix(1.0,0.0,0.0,1.0,93.0,43.125)"><text id="ProcessOnText1042" fill="#000000" font-size="14" x="38.0" y="14.350000000000001" font-family="微软雅黑" font-weight="normal" font-style="normal" text-decoration="none" family="微软雅黑" text-anchor="middle" size="14">19</text></g><g id="ProcessOnG1043" transform="matrix(1.0,0.0,0.0,1.0,5.0,63.875)"><text id="ProcessOnText1044" fill="#000000" font-size="14" x="38.0" y="14.350000000000001" font-family="微软雅黑" font-weight="normal" font-style="normal" text-decoration="none" family="微软雅黑" text-anchor="middle" size="14">4</text></g><g id="ProcessOnG1045" transform="matrix(1.0,0.0,0.0,1.0,93.0,63.875)"><text id="ProcessOnText1046" fill="#000000" font-size="14" x="38.0" y="14.350000000000001" font-family="微软雅黑" font-weight="normal" font-style="normal" text-decoration="none" family="微软雅黑" text-anchor="middle" size="14">21</text></g></g><g id="ProcessOnG1047" transform="matrix(1.0,0.0,0.0,1.0,329.0,176.0)" opacity="1.0"><path id="ProcessOnPath1048" d="M0.0 0.0L206.0 0.0L206.0 83.0L0.0 83.0Z" stroke="none" stroke-width="0.0" stroke-dasharray="none" opacity="1.0" fill="#ffffff"/><path id="ProcessOnPath1049" d="M0.0 0.0L206.0 0.0L206.0 28.166666666666668L0.0 28.166666666666668Z" stroke="none" stroke-width="0.0" stroke-dasharray="none" opacity="1.0" fill="#dadada"/><path id="ProcessOnPath1050" d="M0.0 28.5L206.0 28.5M0.0 55.5L206.0 55.5M103.5 0.0L103.5 83.0" stroke="#8a8a8a" stroke-width="1.0" stroke-dasharray="none" opacity="1.0" fill="none"/><path id="ProcessOnPath1051" d="M0.0 0.0L206.0 0.0L206.0 83.0L0.0 83.0Z" stroke="#8a8a8a" stroke-width="2.0" stroke-dasharray="none" opacity="1.0" fill="none"/><g id="ProcessOnG1052" transform="matrix(1.0,0.0,0.0,1.0,5.0,5.083333333333334)"><text id="ProcessOnText1053" fill="#000000" font-size="14" x="45.5" y="14.350000000000001" font-family="微软雅黑" font-weight="normal" font-style="normal" text-decoration="none" family="微软雅黑" text-anchor="middle" size="14">key</text></g><g id="ProcessOnG1054" transform="matrix(1.0,0.0,0.0,1.0,108.0,5.083333333333334)"><text id="ProcessOnText1055" fill="#000000" font-size="14" x="45.5" y="14.350000000000001" font-family="微软雅黑" font-weight="normal" font-style="normal" text-decoration="none" family="微软雅黑" text-anchor="middle" size="14">value</text></g><g id="ProcessOnG1056" transform="matrix(1.0,0.0,0.0,1.0,5.0,32.75)"><text id="ProcessOnText1057" fill="#000000" font-size="14" x="45.5" y="14.350000000000001" font-family="微软雅黑" font-weight="normal" font-style="normal" text-decoration="none" family="微软雅黑" text-anchor="middle" size="14">1</text></g><g id="ProcessOnG1058" transform="matrix(1.0,0.0,0.0,1.0,108.0,32.75)"><text id="ProcessOnText1059" fill="#000000" font-size="14" x="45.5" y="14.350000000000001" font-family="微软雅黑" font-weight="normal" font-style="normal" text-decoration="none" family="微软雅黑" text-anchor="middle" size="14">&lt;a, zhangsa&gt;</text></g><g id="ProcessOnG1060" transform="matrix(1.0,0.0,0.0,1.0,5.0,60.41666666666667)"><text id="ProcessOnText1061" fill="#000000" font-size="14" x="45.5" y="14.350000000000001" font-family="微软雅黑" font-weight="normal" font-style="normal" text-decoration="none" family="微软雅黑" text-anchor="middle" size="14">2</text></g><g id="ProcessOnG1062" transform="matrix(1.0,0.0,0.0,1.0,108.0,60.41666666666667)"><text id="ProcessOnText1063" fill="#000000" font-size="14" x="45.5" y="14.350000000000001" font-family="微软雅黑" font-weight="normal" font-style="normal" text-decoration="none" family="微软雅黑" text-anchor="middle" size="14">&lt;a, lisi&gt;</text></g></g><g id="ProcessOnG1064" transform="matrix(1.0,0.0,0.0,1.0,329.0,329.5)" opacity="1.0"><path id="ProcessOnPath1065" d="M0.0 0.0L206.0 0.0L206.0 76.0L0.0 76.0Z" stroke="none" stroke-width="0.0" stroke-dasharray="none" opacity="1.0" fill="#ffffff"/><path id="ProcessOnPath1066" d="M0.0 0.0L206.0 0.0L206.0 25.833333333333332L0.0 25.833333333333332Z" stroke="none" stroke-width="0.0" stroke-dasharray="none" opacity="1.0" fill="#dadada"/><path id="ProcessOnPath1067" d="M0.0 25.5L206.0 25.5M0.0 51.5L206.0 51.5M103.5 0.0L103.5 76.0" stroke="#8a8a8a" stroke-width="1.0" stroke-dasharray="none" opacity="1.0" fill="none"/><path id="ProcessOnPath1068" d="M0.0 0.0L206.0 0.0L206.0 76.0L0.0 76.0Z" stroke="#8a8a8a" stroke-width="2.0" stroke-dasharray="none" opacity="1.0" fill="none"/><g id="ProcessOnG1069" transform="matrix(1.0,0.0,0.0,1.0,5.0,3.916666666666666)"><text id="ProcessOnText1070" fill="#000000" font-size="14" x="45.5" y="14.350000000000001" font-family="微软雅黑" font-weight="normal" font-style="normal" text-decoration="none" family="微软雅黑" text-anchor="middle" size="14">key</text></g><g id="ProcessOnG1071" transform="matrix(1.0,0.0,0.0,1.0,108.0,3.916666666666666)"><text id="ProcessOnText1072" fill="#000000" font-size="14" x="45.5" y="14.350000000000001" font-family="微软雅黑" font-weight="normal" font-style="normal" text-decoration="none" family="微软雅黑" text-anchor="middle" size="14">value</text></g><g id="ProcessOnG1073" transform="matrix(1.0,0.0,0.0,1.0,5.0,29.25)"><text id="ProcessOnText1074" fill="#000000" font-size="14" x="45.5" y="14.350000000000001" font-family="微软雅黑" font-weight="normal" font-style="normal" text-decoration="none" family="微软雅黑" text-anchor="middle" size="14">1</text></g><g id="ProcessOnG1075" transform="matrix(1.0,0.0,0.0,1.0,108.0,29.25)"><text id="ProcessOnText1076" fill="#000000" font-size="14" x="45.5" y="14.350000000000001" font-family="微软雅黑" font-weight="normal" font-style="normal" text-decoration="none" family="微软雅黑" text-anchor="middle" size="14">&lt;b, 28&gt;</text></g><g id="ProcessOnG1077" transform="matrix(1.0,0.0,0.0,1.0,5.0,54.58333333333333)"><text id="ProcessOnText1078" fill="#000000" font-size="14" x="45.5" y="14.350000000000001" font-family="微软雅黑" font-weight="normal" font-style="normal" text-decoration="none" family="微软雅黑" text-anchor="middle" size="14">2</text></g><g id="ProcessOnG1079" transform="matrix(1.0,0.0,0.0,1.0,108.0,54.58333333333333)"><text id="ProcessOnText1080" fill="#000000" font-size="14" x="45.5" y="14.350000000000001" font-family="微软雅黑" font-weight="normal" font-style="normal" text-decoration="none" family="微软雅黑" text-anchor="middle" size="14">&lt;b, 19&gt;</text></g></g><g id="ProcessOnG1081" transform="matrix(1.0,0.0,0.0,1.0,624.0,176.0)" opacity="1.0"><path id="ProcessOnPath1082" d="M0.0 0.0L210.0 0.0L210.0 83.0L0.0 83.0Z" stroke="none" stroke-width="0.0" stroke-dasharray="none" opacity="1.0" fill="#ffffff"/><path id="ProcessOnPath1083" d="M0.0 0.0L210.0 0.0L210.0 28.166666666666668L0.0 28.166666666666668Z" stroke="none" stroke-width="0.0" stroke-dasharray="none" opacity="1.0" fill="#dadada"/><path id="ProcessOnPath1084" d="M0.0 28.5L210.0 28.5M0.0 55.5L210.0 55.5M105.5 0.0L105.5 83.0" stroke="#8a8a8a" stroke-width="1.0" stroke-dasharray="none" opacity="1.0" fill="none"/><path id="ProcessOnPath1085" d="M0.0 0.0L210.0 0.0L210.0 83.0L0.0 83.0Z" stroke="#8a8a8a" stroke-width="2.0" stroke-dasharray="none" opacity="1.0" fill="none"/><g id="ProcessOnG1086" transform="matrix(1.0,0.0,0.0,1.0,5.0,5.083333333333334)"><text id="ProcessOnText1087" fill="#000000" font-size="14" x="46.5" y="14.350000000000001" font-family="微软雅黑" font-weight="normal" font-style="normal" text-decoration="none" family="微软雅黑" text-anchor="middle" size="14">key</text></g><g id="ProcessOnG1088" transform="matrix(1.0,0.0,0.0,1.0,110.0,5.083333333333334)"><text id="ProcessOnText1089" fill="#000000" font-size="14" x="46.5" y="14.350000000000001" font-family="微软雅黑" font-weight="normal" font-style="normal" text-decoration="none" family="微软雅黑" text-anchor="middle" size="14">value</text></g><g id="ProcessOnG1090" transform="matrix(1.0,0.0,0.0,1.0,5.0,32.75)"><text id="ProcessOnText1091" fill="#000000" font-size="14" x="46.5" y="14.350000000000001" font-family="微软雅黑" font-weight="normal" font-style="normal" text-decoration="none" family="微软雅黑" text-anchor="middle" size="14">1</text></g><g id="ProcessOnG1092" transform="matrix(1.0,0.0,0.0,1.0,110.0,32.75)"><text id="ProcessOnText1093" fill="#000000" font-size="14" x="46.5" y="14.350000000000001" font-family="微软雅黑" font-weight="normal" font-style="normal" text-decoration="none" family="微软雅黑" text-anchor="middle" size="14">&lt;a, zhangsa&gt;</text></g><g id="ProcessOnG1094" transform="matrix(1.0,0.0,0.0,1.0,5.0,60.41666666666667)"><text id="ProcessOnText1095" fill="#000000" font-size="14" x="46.5" y="14.350000000000001" font-family="微软雅黑" font-weight="normal" font-style="normal" text-decoration="none" family="微软雅黑" text-anchor="middle" size="14">1</text></g><g id="ProcessOnG1096" transform="matrix(1.0,0.0,0.0,1.0,110.0,60.41666666666667)"><text id="ProcessOnText1097" fill="#000000" font-size="14" x="46.5" y="14.350000000000001" font-family="微软雅黑" font-weight="normal" font-style="normal" text-decoration="none" family="微软雅黑" text-anchor="middle" size="14">&lt;b, 28&gt;</text></g></g><g id="ProcessOnG1098" transform="matrix(1.0,0.0,0.0,1.0,624.0,326.0)" opacity="1.0"><path id="ProcessOnPath1099" d="M0.0 0.0L210.0 0.0L210.0 83.0L0.0 83.0Z" stroke="none" stroke-width="0.0" stroke-dasharray="none" opacity="1.0" fill="#ffffff"/><path id="ProcessOnPath1100" d="M0.0 0.0L210.0 0.0L210.0 28.166666666666668L0.0 28.166666666666668Z" stroke="none" stroke-width="0.0" stroke-dasharray="none" opacity="1.0" fill="#dadada"/><path id="ProcessOnPath1101" d="M0.0 28.5L210.0 28.5M0.0 55.5L210.0 55.5M105.5 0.0L105.5 83.0" stroke="#8a8a8a" stroke-width="1.0" stroke-dasharray="none" opacity="1.0" fill="none"/><path id="ProcessOnPath1102" d="M0.0 0.0L210.0 0.0L210.0 83.0L0.0 83.0Z" stroke="#8a8a8a" stroke-width="2.0" stroke-dasharray="none" opacity="1.0" fill="none"/><g id="ProcessOnG1103" transform="matrix(1.0,0.0,0.0,1.0,5.0,5.083333333333334)"><text id="ProcessOnText1104" fill="#000000" font-size="14" x="46.5" y="14.350000000000001" font-family="微软雅黑" font-weight="normal" font-style="normal" text-decoration="none" family="微软雅黑" text-anchor="middle" size="14">key</text></g><g id="ProcessOnG1105" transform="matrix(1.0,0.0,0.0,1.0,110.0,5.083333333333334)"><text id="ProcessOnText1106" fill="#000000" font-size="14" x="46.5" y="14.350000000000001" font-family="微软雅黑" font-weight="normal" font-style="normal" text-decoration="none" family="微软雅黑" text-anchor="middle" size="14">value</text></g><g id="ProcessOnG1107" transform="matrix(1.0,0.0,0.0,1.0,5.0,32.75)"><text id="ProcessOnText1108" fill="#000000" font-size="14" x="46.5" y="14.350000000000001" font-family="微软雅黑" font-weight="normal" font-style="normal" text-decoration="none" family="微软雅黑" text-anchor="middle" size="14">2</text></g><g id="ProcessOnG1109" transform="matrix(1.0,0.0,0.0,1.0,110.0,32.75)"><text id="ProcessOnText1110" fill="#000000" font-size="14" x="46.5" y="14.350000000000001" font-family="微软雅黑" font-weight="normal" font-style="normal" text-decoration="none" family="微软雅黑" text-anchor="middle" size="14">&lt;a, lisi&gt;</text></g><g id="ProcessOnG1111" transform="matrix(1.0,0.0,0.0,1.0,5.0,60.41666666666667)"><text id="ProcessOnText1112" fill="#000000" font-size="14" x="46.5" y="14.350000000000001" font-family="微软雅黑" font-weight="normal" font-style="normal" text-decoration="none" family="微软雅黑" text-anchor="middle" size="14">2</text></g><g id="ProcessOnG1113" transform="matrix(1.0,0.0,0.0,1.0,110.0,60.41666666666667)"><text id="ProcessOnText1114" fill="#000000" font-size="14" x="46.5" y="14.350000000000001" font-family="微软雅黑" font-weight="normal" font-style="normal" text-decoration="none" family="微软雅黑" text-anchor="middle" size="14">&lt;b, 19&gt;</text></g></g><g id="ProcessOnG1115" transform="matrix(1.0,0.0,0.0,1.0,926.0,176.0)" opacity="1.0"><path id="ProcessOnPath1116" d="M0.0 0.0L204.0 0.0L204.0 83.0L0.0 83.0Z" stroke="none" stroke-width="0.0" stroke-dasharray="none" opacity="1.0" fill="#ffffff"/><path id="ProcessOnPath1117" d="M0.0 0.0L204.0 0.0L204.0 42.0L0.0 42.0Z" stroke="none" stroke-width="0.0" stroke-dasharray="none" opacity="1.0" fill="#dadada"/><path id="ProcessOnPath1118" d="M0.0 42.5L204.0 42.5M68.5 0.0L68.5 83.0M136.5 0.0L136.5 83.0" stroke="#8a8a8a" stroke-width="1.0" stroke-dasharray="none" opacity="1.0" fill="none"/><path id="ProcessOnPath1119" d="M0.0 0.0L204.0 0.0L204.0 83.0L0.0 83.0Z" stroke="#8a8a8a" stroke-width="2.0" stroke-dasharray="none" opacity="1.0" fill="none"/><g id="ProcessOnG1120" transform="matrix(1.0,0.0,0.0,1.0,5.0,12.0)"><text id="ProcessOnText1121" fill="#000000" font-size="14" x="28.0" y="14.350000000000001" font-family="微软雅黑" font-weight="normal" font-style="normal" text-decoration="none" family="微软雅黑" text-anchor="middle" size="14">id</text></g><g id="ProcessOnG1122" transform="matrix(1.0,0.0,0.0,1.0,73.0,12.0)"><text id="ProcessOnText1123" fill="#000000" font-size="14" x="28.0" y="14.350000000000001" font-family="微软雅黑" font-weight="normal" font-style="normal" text-decoration="none" family="微软雅黑" text-anchor="middle" size="14">name</text></g><g id="ProcessOnG1124" transform="matrix(1.0,0.0,0.0,1.0,141.0,12.0)"><text id="ProcessOnText1125" fill="#000000" font-size="14" x="28.0" y="14.350000000000001" font-family="微软雅黑" font-weight="normal" font-style="normal" text-decoration="none" family="微软雅黑" text-anchor="middle" size="14">age</text></g><g id="ProcessOnG1126" transform="matrix(1.0,0.0,0.0,1.0,5.0,53.5)"><text id="ProcessOnText1127" fill="#000000" font-size="14" x="28.0" y="14.350000000000001" font-family="微软雅黑" font-weight="normal" font-style="normal" text-decoration="none" family="微软雅黑" text-anchor="middle" size="14">1</text></g><g id="ProcessOnG1128" transform="matrix(1.0,0.0,0.0,1.0,73.0,53.5)"><text id="ProcessOnText1129" fill="#000000" font-size="14" x="28.0" y="14.350000000000001" font-family="微软雅黑" font-weight="normal" font-style="normal" text-decoration="none" family="微软雅黑" text-anchor="middle" size="14">zhangsa</text></g><g id="ProcessOnG1130" transform="matrix(1.0,0.0,0.0,1.0,141.0,53.5)"><text id="ProcessOnText1131" fill="#000000" font-size="14" x="28.0" y="14.350000000000001" font-family="微软雅黑" font-weight="normal" font-style="normal" text-decoration="none" family="微软雅黑" text-anchor="middle" size="14">28</text></g></g><g id="ProcessOnG1132" transform="matrix(1.0,0.0,0.0,1.0,926.0,330.0)" opacity="1.0"><path id="ProcessOnPath1133" d="M0.0 0.0L204.0 0.0L204.0 79.0L0.0 79.0Z" stroke="none" stroke-width="0.0" stroke-dasharray="none" opacity="1.0" fill="#ffffff"/><path id="ProcessOnPath1134" d="M0.0 0.0L204.0 0.0L204.0 40.0L0.0 40.0Z" stroke="none" stroke-width="0.0" stroke-dasharray="none" opacity="1.0" fill="#dadada"/><path id="ProcessOnPath1135" d="M0.0 40.5L204.0 40.5M68.5 0.0L68.5 79.0M136.5 0.0L136.5 79.0" stroke="#8a8a8a" stroke-width="1.0" stroke-dasharray="none" opacity="1.0" fill="none"/><path id="ProcessOnPath1136" d="M0.0 0.0L204.0 0.0L204.0 79.0L0.0 79.0Z" stroke="#8a8a8a" stroke-width="2.0" stroke-dasharray="none" opacity="1.0" fill="none"/><g id="ProcessOnG1137" transform="matrix(1.0,0.0,0.0,1.0,5.0,11.0)"><text id="ProcessOnText1138" fill="#000000" font-size="14" x="28.0" y="14.350000000000001" font-family="微软雅黑" font-weight="normal" font-style="normal" text-decoration="none" family="微软雅黑" text-anchor="middle" size="14">id</text></g><g id="ProcessOnG1139" transform="matrix(1.0,0.0,0.0,1.0,73.0,11.0)"><text id="ProcessOnText1140" fill="#000000" font-size="14" x="28.0" y="14.350000000000001" font-family="微软雅黑" font-weight="normal" font-style="normal" text-decoration="none" family="微软雅黑" text-anchor="middle" size="14">name</text></g><g id="ProcessOnG1141" transform="matrix(1.0,0.0,0.0,1.0,141.0,11.0)"><text id="ProcessOnText1142" fill="#000000" font-size="14" x="28.0" y="14.350000000000001" font-family="微软雅黑" font-weight="normal" font-style="normal" text-decoration="none" family="微软雅黑" text-anchor="middle" size="14">age</text></g><g id="ProcessOnG1143" transform="matrix(1.0,0.0,0.0,1.0,5.0,50.5)"><text id="ProcessOnText1144" fill="#000000" font-size="14" x="28.0" y="14.350000000000001" font-family="微软雅黑" font-weight="normal" font-style="normal" text-decoration="none" family="微软雅黑" text-anchor="middle" size="14">2</text></g><g id="ProcessOnG1145" transform="matrix(1.0,0.0,0.0,1.0,73.0,50.5)"><text id="ProcessOnText1146" fill="#000000" font-size="14" x="28.0" y="14.350000000000001" font-family="微软雅黑" font-weight="normal" font-style="normal" text-decoration="none" family="微软雅黑" text-anchor="middle" size="14">lisi</text></g><g id="ProcessOnG1147" transform="matrix(1.0,0.0,0.0,1.0,141.0,50.5)"><text id="ProcessOnText1148" fill="#000000" font-size="14" x="28.0" y="14.350000000000001" font-family="微软雅黑" font-weight="normal" font-style="normal" text-decoration="none" family="微软雅黑" text-anchor="middle" size="14">19</text></g></g><g id="ProcessOnG1149" transform="matrix(1.0,0.0,0.0,1.0,61.0,259.0)" opacity="1.0"><path id="ProcessOnPath1150" d="M0.0 0.0L160.0 0.0L160.0 40.0L0.0 40.0Z" stroke="none" stroke-width="0.0" stroke-dasharray="none" opacity="1.0" fill="none"/><g id="ProcessOnG1151" transform="matrix(1.0,0.0,0.0,1.0,0.0,10.625)"><text id="ProcessOnText1152" fill="#000000" font-size="15" x="79.0" y="15.375" font-family="微软雅黑" font-weight="normal" font-style="normal" text-decoration="none" family="微软雅黑" text-anchor="middle" size="15">Table a</text></g></g><g id="ProcessOnG1153" transform="matrix(1.0,0.0,0.0,1.0,61.0,413.0)" opacity="1.0"><path id="ProcessOnPath1154" d="M0.0 0.0L160.0 0.0L160.0 40.0L0.0 40.0Z" stroke="none" stroke-width="0.0" stroke-dasharray="none" opacity="1.0" fill="none"/><g id="ProcessOnG1155" transform="matrix(1.0,0.0,0.0,1.0,0.0,10.625)"><text id="ProcessOnText1156" fill="#000000" font-size="15" x="79.0" y="15.375" font-family="微软雅黑" font-weight="normal" font-style="normal" text-decoration="none" family="微软雅黑" text-anchor="middle" size="15">Table b</text></g></g><g id="ProcessOnG1157" transform="matrix(1.0,0.0,0.0,1.0,247.0,194.75)" opacity="1.0"><path id="ProcessOnPath1158" d="M0.0 15.015L45.25 15.015L45.25 0.0L68.0 22.75L45.25 45.5L45.25 30.485000000000003L0.0 30.485000000000003L0.0 15.015Z" stroke="#323232" stroke-width="2.0" stroke-dasharray="none" opacity="1.0" fill="#ffffff"/></g><g id="ProcessOnG1159" transform="matrix(1.0,0.0,0.0,1.0,247.0,344.75)" opacity="1.0"><path id="ProcessOnPath1160" d="M0.0 15.015L45.25 15.015L45.25 0.0L68.0 22.75L45.25 45.5L45.25 30.485000000000003L0.0 30.485000000000003L0.0 15.015Z" stroke="#323232" stroke-width="2.0" stroke-dasharray="none" opacity="1.0" fill="#ffffff"/></g><g id="ProcessOnG1161" transform="matrix(1.0,0.0,0.0,1.0,845.0,194.75)" opacity="1.0"><path id="ProcessOnPath1162" d="M0.0 15.015L45.25 15.015L45.25 0.0L68.0 22.75L45.25 45.5L45.25 30.485000000000003L0.0 30.485000000000003L0.0 15.015Z" stroke="#323232" stroke-width="2.0" stroke-dasharray="none" opacity="1.0" fill="#ffffff"/></g><g id="ProcessOnG1163" transform="matrix(1.0,0.0,0.0,1.0,845.0,344.75)" opacity="1.0"><path id="ProcessOnPath1164" d="M0.0 15.015L45.25 15.015L45.25 0.0L68.0 22.75L45.25 45.5L45.25 30.485000000000003L0.0 30.485000000000003L0.0 15.015Z" stroke="#323232" stroke-width="2.0" stroke-dasharray="none" opacity="1.0" fill="#ffffff"/></g><g id="ProcessOnG1165" transform="matrix(1.0,0.0,0.0,1.0,195.0,413.0)" opacity="1.0"><path id="ProcessOnPath1166" d="M0.0 0.0L160.0 0.0L160.0 40.0L0.0 40.0Z" stroke="none" stroke-width="0.0" stroke-dasharray="none" opacity="1.0" fill="none"/><g id="ProcessOnG1167" transform="matrix(1.0,0.0,0.0,1.0,0.0,10.625)"><text id="ProcessOnText1168" fill="#000000" font-size="15" x="79.0" y="15.375" font-family="微软雅黑" font-weight="normal" font-style="normal" text-decoration="none" family="微软雅黑" text-anchor="middle" size="15">Map</text></g></g><g id="ProcessOnG1169" transform="matrix(1.0,0.0,0.0,1.0,493.0,413.0)" opacity="1.0"><path id="ProcessOnPath1170" d="M0.0 0.0L160.0 0.0L160.0 40.0L0.0 40.0Z" stroke="none" stroke-width="0.0" stroke-dasharray="none" opacity="1.0" fill="none"/><g id="ProcessOnG1171" transform="matrix(1.0,0.0,0.0,1.0,0.0,10.625)"><text id="ProcessOnText1172" fill="#ff3333" font-size="15" x="79.0" y="15.375" font-family="微软雅黑" font-weight="normal" font-style="normal" text-decoration="none" family="微软雅黑" text-anchor="middle" size="15">Shuffle</text></g></g><g id="ProcessOnG1173" transform="matrix(1.0,0.0,0.0,1.0,796.0,413.0)" opacity="1.0"><path id="ProcessOnPath1174" d="M0.0 0.0L160.0 0.0L160.0 40.0L0.0 40.0Z" stroke="none" stroke-width="0.0" stroke-dasharray="none" opacity="1.0" fill="none"/><g id="ProcessOnG1175" transform="matrix(1.0,0.0,0.0,1.0,0.0,10.625)"><text id="ProcessOnText1176" fill="#000000" font-size="15" x="79.0" y="15.375" font-family="微软雅黑" font-weight="normal" font-style="normal" text-decoration="none" family="微软雅黑" text-anchor="middle" size="15">Reduce</text></g></g><g id="ProcessOnG1177"><path id="ProcessOnPath1178" d="M535.0 229.0L616.2636133669523 366.87422043157073" stroke="#323232" stroke-width="2.0" stroke-dasharray="none" fill="none" marker-end="url(#ProcessOnMarker1179)"/></g><g id="ProcessOnG1181"><path id="ProcessOnPath1182" d="M535.0 230.0L608.7648936829914 230.82881903014598" stroke="#323232" stroke-width="2.0" stroke-dasharray="none" fill="none" marker-end="url(#ProcessOnMarker1183)"/></g><g id="ProcessOnG1185"><path id="ProcessOnPath1186" d="M535.0 379.0L616.2254338117588 242.103201440856" stroke="#323232" stroke-width="2.0" stroke-dasharray="none" fill="none" marker-end="url(#ProcessOnMarker1187)"/></g><g id="ProcessOnG1189"><path id="ProcessOnPath1190" d="M535.0 382.0L608.7648936829914 381.17118096985405" stroke="#323232" stroke-width="2.0" stroke-dasharray="none" fill="none" marker-end="url(#ProcessOnMarker1191)"/></g></g></g></svg>