<svg xmlns="http://www.w3.org/2000/svg" xmlns:xlink="http://www.w3.org/1999/xlink" id="processonSvg1000" viewBox="101.0 46.0 876.5 443.0" width="876.5" height="443.0"><defs id="ProcessOnDefs1001"><marker id="ProcessOnMarker1027" markerUnits="userSpaceOnUse" orient="auto" markerWidth="16.23606797749979" markerHeight="10.550836550532098" viewBox="-1.0 -1.3763819204711736 16.23606797749979 10.550836550532098" refX="-1.0" refY="3.8990363547948754"><path id="ProcessOnPath1028" d="M12.0 3.8990363547948754L0.0 7.798072709589751V0.0Z" stroke="#323232" stroke-width="2.0" fill="#323232" transform="matrix(1.0,0.0,0.0,1.0,0.0,0.0)"/></marker><marker id="ProcessOnMarker1041" markerUnits="userSpaceOnUse" orient="auto" markerWidth="16.23606797749979" markerHeight="10.550836550532098" viewBox="-1.0 -1.3763819204711736 16.23606797749979 10.550836550532098" refX="-1.0" refY="3.8990363547948754"><path id="ProcessOnPath1042" d="M12.0 3.8990363547948754L0.0 7.798072709589751V0.0Z" stroke="#323232" stroke-width="2.0" fill="#323232" transform="matrix(1.0,0.0,0.0,1.0,0.0,0.0)"/></marker><marker id="ProcessOnMarker1057" markerUnits="userSpaceOnUse" orient="auto" markerWidth="16.23606797749979" markerHeight="10.550836550532098" viewBox="-1.0 -1.3763819204711736 16.23606797749979 10.550836550532098" refX="-1.0" refY="3.8990363547948754"><path id="ProcessOnPath1058" d="M12.0 3.8990363547948754L0.0 7.798072709589751V0.0Z" stroke="#323232" stroke-width="2.0" fill="#323232" transform="matrix(1.0,0.0,0.0,1.0,0.0,0.0)"/></marker><marker id="ProcessOnMarker1068" markerUnits="userSpaceOnUse" orient="auto" markerWidth="16.23606797749979" markerHeight="10.550836550532098" viewBox="-1.0 -1.3763819204711736 16.23606797749979 10.550836550532098" refX="-1.0" refY="3.8990363547948754"><path id="ProcessOnPath1069" d="M12.0 3.8990363547948754L0.0 7.798072709589751V0.0Z" stroke="#323232" stroke-width="2.0" fill="#323232" transform="matrix(1.0,0.0,0.0,1.0,0.0,0.0)"/></marker><marker id="ProcessOnMarker1084" markerUnits="userSpaceOnUse" orient="auto" markerWidth="16.23606797749979" markerHeight="10.550836550532098" viewBox="-1.0 -1.3763819204711736 16.23606797749979 10.550836550532098" refX="-1.0" refY="3.8990363547948754"><path id="ProcessOnPath1085" d="M12.0 3.8990363547948754L0.0 7.798072709589751V0.0Z" stroke="#323232" stroke-width="2.0" fill="#323232" transform="matrix(1.0,0.0,0.0,1.0,0.0,0.0)"/></marker></defs><g id="ProcessOnG1002"><path id="ProcessOnPath1003" d="M101.0 46.0H977.5V489.0H101.0V46.0Z" fill="none"/><g id="ProcessOnG1004"><g id="ProcessOnG1005" transform="matrix(1.0,0.0,0.0,1.0,207.5,66.0)" opacity="1.0"><path id="ProcessOnPath1006" d="M0.0 0.0L250.0 0.0L250.0 403.0L0.0 403.0Z" stroke="#323232" stroke-width="2.0" stroke-dasharray="none" opacity="1.0" fill="none"/><path id="ProcessOnPath1007" d="M0.0 0.0L250.0 0.0L250.0 40.0L0.0 40.0Z" stroke="#323232" stroke-width="2.0" stroke-dasharray="none" opacity="1.0" fill="#ffffff"/><g id="ProcessOnG1008" transform="matrix(1.0,0.0,0.0,1.0,10.0,10.0)"><text id="ProcessOnText1009" fill="#000000" font-size="16" x="114.0" y="16.4" font-family="微软雅黑" font-weight="normal" font-style="normal" text-decoration="none" family="微软雅黑" text-anchor="middle" size="16">HDFS Client</text></g></g><g id="ProcessOnG1010" transform="matrix(1.0,0.0,0.0,1.0,457.5,66.0)" opacity="1.0"><path id="ProcessOnPath1011" d="M0.0 0.0L250.0 0.0L250.0 403.0L0.0 403.0Z" stroke="#323232" stroke-width="2.0" stroke-dasharray="none" opacity="1.0" fill="none"/><path id="ProcessOnPath1012" d="M0.0 0.0L250.0 0.0L250.0 40.0L0.0 40.0Z" stroke="#323232" stroke-width="2.0" stroke-dasharray="none" opacity="1.0" fill="#ffffff"/><g id="ProcessOnG1013" transform="matrix(1.0,0.0,0.0,1.0,10.0,10.0)"><text id="ProcessOnText1014" fill="#000000" font-size="16" x="114.0" y="16.4" font-family="微软雅黑" font-weight="normal" font-style="normal" text-decoration="none" family="微软雅黑" text-anchor="middle" size="16">NameNode</text></g></g><g id="ProcessOnG1015" transform="matrix(1.0,0.0,0.0,1.0,707.5,66.0)" opacity="1.0"><path id="ProcessOnPath1016" d="M0.0 0.0L250.0 0.0L250.0 403.0L0.0 403.0Z" stroke="#323232" stroke-width="2.0" stroke-dasharray="none" opacity="1.0" fill="none"/><path id="ProcessOnPath1017" d="M0.0 0.0L250.0 0.0L250.0 40.0L0.0 40.0Z" stroke="#323232" stroke-width="2.0" stroke-dasharray="none" opacity="1.0" fill="#ffffff"/><g id="ProcessOnG1018" transform="matrix(1.0,0.0,0.0,1.0,10.0,10.0)"><text id="ProcessOnText1019" fill="#000000" font-size="16" x="114.0" y="16.4" font-family="微软雅黑" font-weight="normal" font-style="normal" text-decoration="none" family="微软雅黑" text-anchor="middle" size="16">DataNodes</text></g></g><g id="ProcessOnG1020" transform="matrix(1.0,0.0,0.0,1.0,253.5,132.0)" opacity="1.0"><path id="ProcessOnPath1021" d="M0.0 0.0L147.5 0.0L147.5 47.0L0.0 47.0Z" stroke="#323232" stroke-width="2.0" stroke-dasharray="none" opacity="1.0" fill="#ffffff"/><g id="ProcessOnG1022" transform="matrix(1.0,0.0,0.0,1.0,10.0,7.25)"><text id="ProcessOnText1023" fill="#000000" font-size="13" x="62.75" y="13.325" font-family="微软雅黑" font-weight="normal" font-style="normal" text-decoration="none" family="微软雅黑" text-anchor="middle" size="13">調用FileSystem對象</text><text id="ProcessOnText1024" fill="#000000" font-size="13" x="62.75" y="29.575" font-family="微软雅黑" font-weight="normal" font-style="normal" text-decoration="none" family="微软雅黑" text-anchor="middle" size="13">的靜態方法open()</text></g></g><g id="ProcessOnG1025"><path id="ProcessOnPath1026" d="M401.0 155.5L456.5 155.5L456.5 157.75L496.7639320225002 157.75" stroke="#323232" stroke-width="2.0" stroke-dasharray="none" fill="none" marker-end="url(#ProcessOnMarker1027)"/><g id="ProcessOnG1029" transform="matrix(1.0,0.0,0.0,1.0,450.00696601125014,147.375)"><path id="ProcessOnPath1030" d="M0 0H25.0V16.25H0Z" fill="#fff" transform="matrix(1.0,0.0,0.0,1.0,-12.5,0.0)"/><text id="ProcessOnText1031" fill="#000000" font-size="13" x="0.0" y="13.325" font-family="微软雅黑" font-weight="normal" font-style="normal" text-decoration="none" family="微软雅黑" text-anchor="middle" size="13">RPC</text></g></g><g id="ProcessOnG1032" transform="matrix(1.0,0.0,0.0,1.0,512.0,125.5)" opacity="1.0"><path id="ProcessOnPath1033" d="M0.0 0.0L168.0 0.0L168.0 64.5L0.0 64.5Z" stroke="#323232" stroke-width="2.0" stroke-dasharray="none" opacity="1.0" fill="#ffffff"/><g id="ProcessOnG1034" transform="matrix(1.0,0.0,0.0,1.0,10.0,-0.25)"><text id="ProcessOnText1035" fill="#000000" font-size="13" x="73.0" y="13.325" font-family="微软雅黑" font-weight="normal" font-style="normal" text-decoration="none" family="微软雅黑" text-anchor="middle" size="13">根據Metadata準備Block</text><text id="ProcessOnText1036" fill="#000000" font-size="13" x="73.0" y="29.575" font-family="微软雅黑" font-weight="normal" font-style="normal" text-decoration="none" family="微软雅黑" text-anchor="middle" size="13">列表，包含目標文件的部</text><text id="ProcessOnText1037" fill="#000000" font-size="13" x="73.0" y="45.825" font-family="微软雅黑" font-weight="normal" font-style="normal" text-decoration="none" family="微软雅黑" text-anchor="middle" size="13">分Block所在的DataNod</text><text id="ProcessOnText1038" fill="#000000" font-size="13" x="73.0" y="62.075" font-family="微软雅黑" font-weight="normal" font-style="normal" text-decoration="none" family="微软雅黑" text-anchor="middle" size="13">e地址</text></g></g><g id="ProcessOnG1039"><path id="ProcessOnPath1040" d="M596.0 190.0L596.0 232.5L426.7360679774998 232.5" stroke="#323232" stroke-width="2.0" stroke-dasharray="none" fill="none" marker-end="url(#ProcessOnMarker1041)"/><g id="ProcessOnG1043" transform="matrix(1.0,0.0,0.0,1.0,532.6180339887499,224.375)"><path id="ProcessOnPath1044" d="M0 0H25.0V16.25H0Z" fill="#fff" transform="matrix(1.0,0.0,0.0,1.0,-12.5,0.0)"/><text id="ProcessOnText1045" fill="#000000" font-size="13" x="0.0" y="13.325" font-family="微软雅黑" font-weight="normal" font-style="normal" text-decoration="none" family="微软雅黑" text-anchor="middle" size="13">RPC</text></g></g><g id="ProcessOnG1046" transform="matrix(1.0,0.0,0.0,1.0,253.5,209.0)" opacity="1.0"><path id="ProcessOnPath1047" d="M0.0 0.0L158.0 0.0L158.0 47.0L0.0 47.0Z" stroke="#323232" stroke-width="2.0" stroke-dasharray="none" opacity="1.0" fill="#ffffff"/><g id="ProcessOnG1048" transform="matrix(1.0,0.0,0.0,1.0,10.0,7.25)"><text id="ProcessOnText1049" fill="#ff0000" font-size="13" x="68.0" y="13.325" font-family="微软雅黑" font-weight="normal" font-style="normal" text-decoration="none" family="微软雅黑" text-anchor="middle" size="13">獲得object: </text><text id="ProcessOnText1050" fill="#ff0000" font-size="13" x="68.0" y="29.575" font-family="微软雅黑" font-weight="normal" font-style="normal" text-decoration="none" family="微软雅黑" text-anchor="middle" size="13">FSData inputstream</text></g></g><g id="ProcessOnG1051" transform="matrix(1.0,0.0,0.0,1.0,782.5,294.0)" opacity="1.0"><path id="ProcessOnPath1052" d="M0.0 0.0L112.0 0.0L112.0 51.0L0.0 51.0Z" stroke="#323232" stroke-width="2.0" stroke-dasharray="none" opacity="1.0" fill="#ffffff"/><g id="ProcessOnG1053" transform="matrix(1.0,0.0,0.0,1.0,10.0,17.375)"><text id="ProcessOnText1054" fill="#000000" font-size="13" x="45.0" y="13.325" font-family="微软雅黑" font-weight="normal" font-style="normal" text-decoration="none" family="微软雅黑" text-anchor="middle" size="13">DataNode A</text></g></g><g id="ProcessOnG1055"><path id="ProcessOnPath1056" d="M332.5 256.0L332.5 275.0L838.5 275.0L838.5 278.7639320225002" stroke="#323232" stroke-width="2.0" stroke-dasharray="none" fill="none" marker-end="url(#ProcessOnMarker1057)"/><g id="ProcessOnG1059" transform="matrix(1.0,0.0,0.0,1.0,577.8819660112501,266.875)"><path id="ProcessOnPath1060" d="M0 0H71.0V16.25H0Z" fill="#fff" transform="matrix(1.0,0.0,0.0,1.0,-35.5,0.0)"/><text id="ProcessOnText1061" fill="#000000" font-size="13" x="0.0" y="13.325" font-family="微软雅黑" font-weight="normal" font-style="normal" text-decoration="none" family="微软雅黑" text-anchor="middle" size="13">read socket</text></g></g><g id="ProcessOnG1062" transform="matrix(1.0,0.0,0.0,1.0,258.75,325.5)" opacity="1.0"><path id="ProcessOnPath1063" d="M0.0 0.0L147.5 0.0L147.5 53.5L0.0 53.5Z" stroke="#323232" stroke-width="2.0" stroke-dasharray="none" opacity="1.0" fill="#ffffff"/><g id="ProcessOnG1064" transform="matrix(1.0,0.0,0.0,1.0,10.0,18.625)"><text id="ProcessOnText1065" fill="#000000" font-size="13" x="62.75" y="13.325" font-family="微软雅黑" font-weight="normal" font-style="normal" text-decoration="none" family="微软雅黑" text-anchor="middle" size="13">所有Blocks讀取完畢</text></g></g><g id="ProcessOnG1066"><path id="ProcessOnPath1067" d="M332.5 379.0L332.5 402.0L474.7639320225002 402.0" stroke="#323232" stroke-width="2.0" stroke-dasharray="none" fill="none" marker-end="url(#ProcessOnMarker1068)"/><g id="ProcessOnG1070" transform="matrix(1.0,0.0,0.0,1.0,392.13196601125014,393.875)"><path id="ProcessOnPath1071" d="M0 0H25.0V16.25H0Z" fill="#fff" transform="matrix(1.0,0.0,0.0,1.0,-12.5,0.0)"/><text id="ProcessOnText1072" fill="#000000" font-size="13" x="0.0" y="13.325" font-family="微软雅黑" font-weight="normal" font-style="normal" text-decoration="none" family="微软雅黑" text-anchor="middle" size="13">RPC</text></g></g><g id="ProcessOnG1073" transform="matrix(1.0,0.0,0.0,1.0,490.0,379.0)" opacity="1.0"><path id="ProcessOnPath1074" d="M0.0 0.0L176.0 0.0L176.0 46.0L0.0 46.0Z" stroke="#323232" stroke-width="2.0" stroke-dasharray="none" opacity="1.0" fill="#ffffff"/><g id="ProcessOnG1075" transform="matrix(1.0,0.0,0.0,1.0,10.0,14.875)"><text id="ProcessOnText1076" fill="#000000" font-size="13" x="77.0" y="13.325" font-family="微软雅黑" font-weight="normal" font-style="normal" text-decoration="none" family="微软雅黑" text-anchor="middle" size="13">讀取完畢</text></g></g><g id="ProcessOnG1077" transform="matrix(1.0,0.0,0.0,1.0,121.0,203.25)" opacity="1.0"><path id="ProcessOnPath1078" d="M0.0 68.08333333333333L0.0 0.0L116.0 0.0L116.0 68.08333333333333Q87.0 48.75 58.0 68.08333333333333Q29.0 87.41666666666667 0.0 68.08333333333333Z" stroke="#323232" stroke-width="2.0" stroke-dasharray="none" opacity="1.0" fill="#ffffff"/><g id="ProcessOnG1079" transform="matrix(1.0,0.0,0.0,1.0,0.0,18.737500000000004)"><text id="ProcessOnText1080" fill="#000000" font-size="13" x="57.0" y="13.325" font-family="微软雅黑" font-weight="normal" font-style="normal" text-decoration="none" family="微软雅黑" text-anchor="middle" size="13">Block列表:</text><text id="ProcessOnText1081" fill="#000000" font-size="13" x="57.0" y="29.575" font-family="微软雅黑" font-weight="normal" font-style="normal" text-decoration="none" family="微软雅黑" text-anchor="middle" size="13">b01:{DN A, DN B}</text></g></g><g id="ProcessOnG1082"><path id="ProcessOnPath1083" d="M332.5 256.0L332.5 290.75L332.5 290.75L332.5 310.2639320225002" stroke="#323232" stroke-width="2.0" stroke-dasharray="none" fill="none" marker-end="url(#ProcessOnMarker1084)"/></g></g></g></svg>