<svg xmlns="http://www.w3.org/2000/svg" xmlns:xlink="http://www.w3.org/1999/xlink" id="processonSvg1000" viewBox="159.5 211.5 844.5 522.5" width="844.5" height="522.5"><defs id="ProcessOnDefs1001"/><g id="ProcessOnG1002"><path id="ProcessOnPath1003" d="M159.5 211.5H1004.0V734.0H159.5V211.5Z" fill="none"/><g id="ProcessOnG1004"><g id="ProcessOnG1005" transform="matrix(1.0,0.0,0.0,1.0,367.875,293.6248665727339)" opacity="1.0"><path id="ProcessOnPath1006" d="M192.125 0.0L0.0 135.08630203663378L69.16499999999999 346.3751334272661L315.085 346.3751334272661L384.25 135.08630203663378Z" stroke="#000000" stroke-width="2.0" stroke-dasharray="none" opacity="1.0" fill="#004c99"/></g><g id="ProcessOnG1007" transform="matrix(1.0,0.0,0.0,1.0,509.0,429.0)" opacity="1.0"><path id="ProcessOnPath1008" d="M51.0 0.0L0.0 37.62972972972973L18.36 96.48648648648648L83.64 96.48648648648648L102.0 37.62972972972973Z" stroke="#000000" stroke-width="2.0" stroke-dasharray="none" opacity="1.0" fill="#ffffff"/><g id="ProcessOnG1009" transform="matrix(1.0,0.0,0.0,1.0,10.0,47.354729729729726)"><text id="ProcessOnText1010" fill="#000000" font-size="13" x="40.0" y="13.325" font-family="微软雅黑" font-weight="normal" font-style="normal" text-decoration="none" family="微软雅黑" text-anchor="middle" size="13">Why Spark</text></g></g><g id="ProcessOnG1011" transform="matrix(1.0,0.0,0.0,1.0,484.0,348.0)" opacity="1.0"><path id="ProcessOnPath1012" d="M0.0 0.0L160.0 0.0L160.0 40.0L0.0 40.0Z" stroke="none" stroke-width="0.0" stroke-dasharray="none" opacity="1.0" fill="none"/><g id="ProcessOnG1013" transform="matrix(1.0,0.0,0.0,1.0,0.0,7.5)"><text id="ProcessOnText1014" fill="#ffffff" font-size="20" x="79.0" y="20.5" font-family="微软雅黑" font-weight="normal" font-style="normal" text-decoration="none" family="微软雅黑" text-anchor="middle" size="20">Ease of Use</text></g></g><g id="ProcessOnG1015" transform="matrix(1.0,0.0,0.0,1.0,362.0,419.0)" opacity="1.0"><path id="ProcessOnPath1016" d="M0.0 0.0L160.0 0.0L160.0 40.0L0.0 40.0Z" stroke="none" stroke-width="0.0" stroke-dasharray="none" opacity="1.0" fill="none"/><g id="ProcessOnG1017" transform="matrix(1.0,0.0,0.0,1.0,0.0,7.5)"><text id="ProcessOnText1018" fill="#ffffff" font-size="20" x="79.0" y="20.5" font-family="微软雅黑" font-weight="normal" font-style="normal" text-decoration="none" family="微软雅黑" text-anchor="middle" size="20">Speed</text></g></g><g id="ProcessOnG1019" transform="matrix(1.0,0.0,0.0,1.0,408.0,558.0)" opacity="1.0"><path id="ProcessOnPath1020" d="M0.0 0.0L160.0 0.0L160.0 40.0L0.0 40.0Z" stroke="none" stroke-width="0.0" stroke-dasharray="none" opacity="1.0" fill="none"/><g id="ProcessOnG1021" transform="matrix(1.0,0.0,0.0,1.0,0.0,-17.5)"><text id="ProcessOnText1022" fill="#ffffff" font-size="20" x="79.0" y="20.5" font-family="微软雅黑" font-weight="normal" font-style="normal" text-decoration="none" family="微软雅黑" text-anchor="middle" size="20">Multiple </text><text id="ProcessOnText1023" fill="#ffffff" font-size="20" x="79.0" y="45.5" font-family="微软雅黑" font-weight="normal" font-style="normal" text-decoration="none" family="微软雅黑" text-anchor="middle" size="20">Languages </text><text id="ProcessOnText1024" fill="#ffffff" font-size="20" x="79.0" y="70.5" font-family="微软雅黑" font-weight="normal" font-style="normal" text-decoration="none" family="微软雅黑" text-anchor="middle" size="20">Supported</text></g></g><g id="ProcessOnG1025" transform="matrix(1.0,0.0,0.0,1.0,562.125,558.0)" opacity="1.0"><path id="ProcessOnPath1026" d="M0.0 0.0L160.0 0.0L160.0 40.0L0.0 40.0Z" stroke="none" stroke-width="0.0" stroke-dasharray="none" opacity="1.0" fill="none"/><g id="ProcessOnG1027" transform="matrix(1.0,0.0,0.0,1.0,0.0,-5.0)"><text id="ProcessOnText1028" fill="#ffffff" font-size="20" x="79.0" y="20.5" font-family="微软雅黑" font-weight="normal" font-style="normal" text-decoration="none" family="微软雅黑" text-anchor="middle" size="20">Deployment</text><text id="ProcessOnText1029" fill="#ffffff" font-size="20" x="79.0" y="45.5" font-family="微软雅黑" font-weight="normal" font-style="normal" text-decoration="none" family="微软雅黑" text-anchor="middle" size="20">Flexibility</text></g></g><g id="ProcessOnG1030" transform="matrix(1.0,0.0,0.0,1.0,604.0,425.48648648648646)" opacity="1.0"><path id="ProcessOnPath1031" d="M0.0 0.0L160.0 0.0L160.0 40.0L0.0 40.0Z" stroke="none" stroke-width="0.0" stroke-dasharray="none" opacity="1.0" fill="none"/><g id="ProcessOnG1032" transform="matrix(1.0,0.0,0.0,1.0,0.0,-5.0)"><text id="ProcessOnText1033" fill="#ffffff" font-size="20" x="79.0" y="20.5" font-family="微软雅黑" font-weight="normal" font-style="normal" text-decoration="none" family="微软雅黑" text-anchor="middle" size="20">Unified </text><text id="ProcessOnText1034" fill="#ffffff" font-size="20" x="79.0" y="45.5" font-family="微软雅黑" font-weight="normal" font-style="normal" text-decoration="none" family="微软雅黑" text-anchor="middle" size="20">Stack</text></g></g><g id="ProcessOnG1035" transform="matrix(1.0,0.0,0.0,1.0,468.5,240.0)" opacity="1.0"><path id="ProcessOnPath1036" d="M0.0 0.0L191.0 0.0L191.0 38.0L0.0 38.0Z" stroke="none" stroke-width="0.0" stroke-dasharray="none" opacity="1.0" fill="none"/><g id="ProcessOnG1037" transform="matrix(1.0,0.0,0.0,1.0,0.0,-8.5)"><text id="ProcessOnText1038" fill="#000000" font-size="22" x="94.5" y="22.55" font-family="微软雅黑" font-weight="normal" font-style="normal" text-decoration="none" family="微软雅黑" text-anchor="middle" size="22">Easy to program </text><text id="ProcessOnText1039" fill="#000000" font-size="22" x="94.5" y="50.05" font-family="微软雅黑" font-weight="normal" font-style="normal" text-decoration="none" family="微软雅黑" text-anchor="middle" size="22">Interactive shell</text></g></g><g id="ProcessOnG1040" transform="matrix(1.0,0.0,0.0,1.0,722.125,410.0)" opacity="1.0"><path id="ProcessOnPath1041" d="M0.0 0.0L191.0 0.0L191.0 38.0L0.0 38.0Z" stroke="none" stroke-width="0.0" stroke-dasharray="none" opacity="1.0" fill="none"/><g id="ProcessOnG1042" transform="matrix(1.0,0.0,0.0,1.0,0.0,-49.75)"><text id="ProcessOnText1043" fill="#000000" font-size="22" x="94.5" y="22.55" font-family="微软雅黑" font-weight="normal" font-style="normal" text-decoration="none" family="微软雅黑" text-anchor="middle" size="22"></text><text id="ProcessOnText1044" fill="#000000" font-size="22" x="94.5" y="50.05" font-family="微软雅黑" font-weight="normal" font-style="normal" text-decoration="none" family="微软雅黑" text-anchor="middle" size="22">Batch</text><text id="ProcessOnText1045" fill="#000000" font-size="22" x="94.5" y="77.55" font-family="微软雅黑" font-weight="normal" font-style="normal" text-decoration="none" family="微软雅黑" text-anchor="middle" size="22">Streaming</text><text id="ProcessOnText1046" fill="#000000" font-size="22" x="94.5" y="105.05" font-family="微软雅黑" font-weight="normal" font-style="normal" text-decoration="none" family="微软雅黑" text-anchor="middle" size="22">MLlib</text><text id="ProcessOnText1047" fill="#000000" font-size="22" x="94.5" y="132.55" font-family="微软雅黑" font-weight="normal" font-style="normal" text-decoration="none" family="微软雅黑" text-anchor="middle" size="22">Graphx</text></g></g><g id="ProcessOnG1048" transform="matrix(1.0,0.0,0.0,1.0,179.5,410.0)" opacity="1.0"><path id="ProcessOnPath1049" d="M0.0 0.0L191.0 0.0L191.0 38.0L0.0 38.0Z" stroke="none" stroke-width="0.0" stroke-dasharray="none" opacity="1.0" fill="none"/><g id="ProcessOnG1050" transform="matrix(1.0,0.0,0.0,1.0,0.0,-8.5)"><text id="ProcessOnText1051" fill="#000000" font-size="22" x="94.5" y="22.55" font-family="微软雅黑" font-weight="normal" font-style="normal" text-decoration="none" family="微软雅黑" text-anchor="middle" size="22">10x faster on disk</text><text id="ProcessOnText1052" fill="#000000" font-size="22" x="94.5" y="50.05" font-family="微软雅黑" font-weight="normal" font-style="normal" text-decoration="none" family="微软雅黑" text-anchor="middle" size="22">100x in memory</text></g></g><g id="ProcessOnG1053" transform="matrix(1.0,0.0,0.0,1.0,497.0,651.5)" opacity="1.0"><path id="ProcessOnPath1054" d="M0.0 0.0L487.0 0.0L487.0 53.0L0.0 53.0Z" stroke="none" stroke-width="0.0" stroke-dasharray="none" opacity="1.0" fill="none"/><g id="ProcessOnG1055" transform="matrix(1.0,0.0,0.0,1.0,0.0,-1.0)"><text id="ProcessOnText1056" fill="#000000" font-size="22" x="242.5" y="22.55" font-family="微软雅黑" font-weight="normal" font-style="normal" text-decoration="none" family="微软雅黑" text-anchor="middle" size="22">Deployment: Mesos/YARN/Standalone/local</text><text id="ProcessOnText1057" fill="#000000" font-size="22" x="242.5" y="50.05" font-family="微软雅黑" font-weight="normal" font-style="normal" text-decoration="none" family="微软雅黑" text-anchor="middle" size="22">Storage: HDFS/S3/Local FS</text></g></g><g id="ProcessOnG1058" transform="matrix(1.0,0.0,0.0,1.0,277.5,640.0)" opacity="1.0"><path id="ProcessOnPath1059" d="M0.0 0.0L191.0 0.0L191.0 38.0L0.0 38.0Z" stroke="none" stroke-width="0.0" stroke-dasharray="none" opacity="1.0" fill="none"/><g id="ProcessOnG1060" transform="matrix(1.0,0.0,0.0,1.0,0.0,-36.0)"><text id="ProcessOnText1061" fill="#000000" font-size="22" x="94.5" y="22.55" font-family="微软雅黑" font-weight="normal" font-style="normal" text-decoration="none" family="微软雅黑" text-anchor="middle" size="22">Scala</text><text id="ProcessOnText1062" fill="#000000" font-size="22" x="94.5" y="50.05" font-family="微软雅黑" font-weight="normal" font-style="normal" text-decoration="none" family="微软雅黑" text-anchor="middle" size="22">Python</text><text id="ProcessOnText1063" fill="#000000" font-size="22" x="94.5" y="77.55" font-family="微软雅黑" font-weight="normal" font-style="normal" text-decoration="none" family="微软雅黑" text-anchor="middle" size="22">R</text><text id="ProcessOnText1064" fill="#000000" font-size="22" x="94.5" y="105.05" font-family="微软雅黑" font-weight="normal" font-style="normal" text-decoration="none" family="微软雅黑" text-anchor="middle" size="22">Java</text></g></g></g></g></svg>