<svg xmlns="http://www.w3.org/2000/svg" xmlns:xlink="http://www.w3.org/1999/xlink" id="processonSvg1000" viewBox="52.0 26.0 479.0 464.0" width="479.0" height="464.0"><defs id="ProcessOnDefs1001"/><g id="ProcessOnG1002"><path id="ProcessOnPath1003" d="M52.0 26.0H531.0V490.0H52.0V26.0Z" fill="none"/><g id="ProcessOnG1004"><g id="ProcessOnG1005" transform="matrix(1.0,0.0,0.0,1.0,72.0,115.0)" opacity="1.0"><path id="ProcessOnPath1006" d="M0.0 0.0L180.0 0.0L180.0 300.0L0.0 300.0Z" stroke="#323232" stroke-width="2.0" stroke-dasharray="none" opacity="1.0" fill="#ffb366"/></g><g id="ProcessOnG1007" transform="matrix(1.0,0.0,0.0,1.0,72.0,115.0)" opacity="1.0"><path id="ProcessOnPath1008" d="M0.0 0.0L180.0 0.0L180.0 50.0L0.0 50.0Z" stroke="#323232" stroke-width="2.0" stroke-dasharray="none" opacity="1.0" fill="#ffb366"/><g id="ProcessOnG1009" transform="matrix(1.0,0.0,0.0,1.0,10.0,16.875)"><text id="ProcessOnText1010" fill="#000000" font-size="13" x="79.0" y="13.325" font-family="微软雅黑" font-weight="normal" font-style="normal" text-decoration="none" family="微软雅黑" text-anchor="middle" size="13">Animal</text></g></g><g id="ProcessOnG1011" transform="matrix(1.0,0.0,0.0,1.0,72.0,165.0)" opacity="1.0"><path id="ProcessOnPath1012" d="M0.0 0.0L180.0 0.0L180.0 50.0L0.0 50.0Z" stroke="#323232" stroke-width="2.0" stroke-dasharray="none" opacity="1.0" fill="#ffb366"/><g id="ProcessOnG1013" transform="matrix(1.0,0.0,0.0,1.0,10.0,16.875)"><text id="ProcessOnText1014" fill="#000000" font-size="13" x="79.0" y="13.325" font-family="微软雅黑" font-weight="normal" font-style="normal" text-decoration="none" family="微软雅黑" text-anchor="middle" size="13">Animal</text></g></g><g id="ProcessOnG1015" transform="matrix(1.0,0.0,0.0,1.0,72.0,215.0)" opacity="1.0"><path id="ProcessOnPath1016" d="M0.0 0.0L180.0 0.0L180.0 50.0L0.0 50.0Z" stroke="#323232" stroke-width="2.0" stroke-dasharray="none" opacity="1.0" fill="#ffb366"/><g id="ProcessOnG1017" transform="matrix(1.0,0.0,0.0,1.0,10.0,16.875)"><text id="ProcessOnText1018" fill="#000000" font-size="13" x="79.0" y="13.325" font-family="微软雅黑" font-weight="normal" font-style="normal" text-decoration="none" family="微软雅黑" text-anchor="middle" size="13">Animal</text></g></g><g id="ProcessOnG1019" transform="matrix(1.0,0.0,0.0,1.0,72.0,265.0)" opacity="1.0"><path id="ProcessOnPath1020" d="M0.0 0.0L180.0 0.0L180.0 50.0L0.0 50.0Z" stroke="#323232" stroke-width="2.0" stroke-dasharray="none" opacity="1.0" fill="#ffb366"/><g id="ProcessOnG1021" transform="matrix(1.0,0.0,0.0,1.0,10.0,16.875)"><text id="ProcessOnText1022" fill="#000000" font-size="13" x="79.0" y="13.325" font-family="微软雅黑" font-weight="normal" font-style="normal" text-decoration="none" family="微软雅黑" text-anchor="middle" size="13">Animal</text></g></g><g id="ProcessOnG1023" transform="matrix(1.0,0.0,0.0,1.0,72.0,315.0)" opacity="1.0"><path id="ProcessOnPath1024" d="M0.0 0.0L180.0 0.0L180.0 50.0L0.0 50.0Z" stroke="#323232" stroke-width="2.0" stroke-dasharray="none" opacity="1.0" fill="#ffb366"/><g id="ProcessOnG1025" transform="matrix(1.0,0.0,0.0,1.0,10.0,16.875)"><text id="ProcessOnText1026" fill="#000000" font-size="13" x="79.0" y="13.325" font-family="微软雅黑" font-weight="normal" font-style="normal" text-decoration="none" family="微软雅黑" text-anchor="middle" size="13">Animal</text></g></g><g id="ProcessOnG1027" transform="matrix(1.0,0.0,0.0,1.0,72.0,365.0)" opacity="1.0"><path id="ProcessOnPath1028" d="M0.0 0.0L180.0 0.0L180.0 50.0L0.0 50.0Z" stroke="#323232" stroke-width="2.0" stroke-dasharray="none" opacity="1.0" fill="#ffb366"/><g id="ProcessOnG1029" transform="matrix(1.0,0.0,0.0,1.0,10.0,16.875)"><text id="ProcessOnText1030" fill="#000000" font-size="13" x="79.0" y="13.325" font-family="微软雅黑" font-weight="normal" font-style="normal" text-decoration="none" family="微软雅黑" text-anchor="middle" size="13">Animal</text></g></g><g id="ProcessOnG1031" transform="matrix(1.0,0.0,0.0,1.0,309.0,115.0)" opacity="1.0"><path id="ProcessOnPath1032" d="M0.0 0.0L202.0 0.0L202.0 300.0L0.0 300.0Z" stroke="#323232" stroke-width="2.0" stroke-dasharray="none" opacity="1.0" fill="#9999ff"/></g><g id="ProcessOnG1033" transform="matrix(1.0,0.0,0.0,1.0,309.0,115.0)" opacity="1.0"><path id="ProcessOnPath1034" d="M0.0 0.0L202.0 0.0L202.0 50.0L0.0 50.0Z" stroke="#323232" stroke-width="2.0" stroke-dasharray="none" opacity="1.0" fill="#9999ff"/><g id="ProcessOnG1035" transform="matrix(1.0,0.0,0.0,1.0,10.0,16.875)"><text id="ProcessOnText1036" fill="#000000" font-size="13" x="90.0" y="13.325" font-family="微软雅黑" font-weight="normal" font-style="normal" text-decoration="none" family="微软雅黑" text-anchor="middle" size="13">Int</text></g></g><g id="ProcessOnG1037" transform="matrix(1.0,0.0,0.0,1.0,309.0,165.0)" opacity="1.0"><path id="ProcessOnPath1038" d="M0.0 0.0L202.0 0.0L202.0 50.0L0.0 50.0Z" stroke="#323232" stroke-width="2.0" stroke-dasharray="none" opacity="1.0" fill="#9999ff"/><g id="ProcessOnG1039" transform="matrix(1.0,0.0,0.0,1.0,10.0,16.875)"><text id="ProcessOnText1040" fill="#000000" font-size="13" x="90.0" y="13.325" font-family="微软雅黑" font-weight="normal" font-style="normal" text-decoration="none" family="微软雅黑" text-anchor="middle" size="13">Int</text></g></g><g id="ProcessOnG1041" transform="matrix(1.0,0.0,0.0,1.0,309.0,215.0)" opacity="1.0"><path id="ProcessOnPath1042" d="M0.0 0.0L202.0 0.0L202.0 50.0L0.0 50.0Z" stroke="#323232" stroke-width="2.0" stroke-dasharray="none" opacity="1.0" fill="#9999ff"/><g id="ProcessOnG1043" transform="matrix(1.0,0.0,0.0,1.0,10.0,16.875)"><text id="ProcessOnText1044" fill="#000000" font-size="13" x="90.0" y="13.325" font-family="微软雅黑" font-weight="normal" font-style="normal" text-decoration="none" family="微软雅黑" text-anchor="middle" size="13">Int</text></g></g><g id="ProcessOnG1045" transform="matrix(1.0,0.0,0.0,1.0,309.0,265.0)" opacity="1.0"><path id="ProcessOnPath1046" d="M0.0 0.0L202.0 0.0L202.0 50.0L0.0 50.0Z" stroke="#323232" stroke-width="2.0" stroke-dasharray="none" opacity="1.0" fill="#9999ff"/><g id="ProcessOnG1047" transform="matrix(1.0,0.0,0.0,1.0,10.0,16.875)"><text id="ProcessOnText1048" fill="#000000" font-size="13" x="90.0" y="13.325" font-family="微软雅黑" font-weight="normal" font-style="normal" text-decoration="none" family="微软雅黑" text-anchor="middle" size="13">Int</text></g></g><g id="ProcessOnG1049" transform="matrix(1.0,0.0,0.0,1.0,309.0,315.0)" opacity="1.0"><path id="ProcessOnPath1050" d="M0.0 0.0L202.0 0.0L202.0 50.0L0.0 50.0Z" stroke="#323232" stroke-width="2.0" stroke-dasharray="none" opacity="1.0" fill="#9999ff"/><g id="ProcessOnG1051" transform="matrix(1.0,0.0,0.0,1.0,10.0,16.875)"><text id="ProcessOnText1052" fill="#000000" font-size="13" x="90.0" y="13.325" font-family="微软雅黑" font-weight="normal" font-style="normal" text-decoration="none" family="微软雅黑" text-anchor="middle" size="13">Int</text></g></g><g id="ProcessOnG1053" transform="matrix(1.0,0.0,0.0,1.0,309.0,365.0)" opacity="1.0"><path id="ProcessOnPath1054" d="M0.0 0.0L202.0 0.0L202.0 50.0L0.0 50.0Z" stroke="#323232" stroke-width="2.0" stroke-dasharray="none" opacity="1.0" fill="#9999ff"/><g id="ProcessOnG1055" transform="matrix(1.0,0.0,0.0,1.0,10.0,16.875)"><text id="ProcessOnText1056" fill="#000000" font-size="13" x="90.0" y="13.325" font-family="微软雅黑" font-weight="normal" font-style="normal" text-decoration="none" family="微软雅黑" text-anchor="middle" size="13">Int</text></g></g><g id="ProcessOnG1057" transform="matrix(1.0,0.0,0.0,1.0,309.0,115.0)" opacity="1.0"><path id="ProcessOnPath1058" d="M0.0 0.0L74.0 0.0L74.0 50.0L0.0 50.0Z" stroke="#323232" stroke-width="2.0" stroke-dasharray="none" opacity="1.0" fill="#00cc66"/><g id="ProcessOnG1059" transform="matrix(1.0,0.0,0.0,1.0,10.0,16.875)"><text id="ProcessOnText1060" fill="#000000" font-size="13" x="26.0" y="13.325" font-family="微软雅黑" font-weight="normal" font-style="normal" text-decoration="none" family="微软雅黑" text-anchor="middle" size="13">String</text></g></g><g id="ProcessOnG1061" transform="matrix(1.0,0.0,0.0,1.0,309.0,165.0)" opacity="1.0"><path id="ProcessOnPath1062" d="M0.0 0.0L74.0 0.0L74.0 50.0L0.0 50.0Z" stroke="#323232" stroke-width="2.0" stroke-dasharray="none" opacity="1.0" fill="#00cc66"/><g id="ProcessOnG1063" transform="matrix(1.0,0.0,0.0,1.0,10.0,16.875)"><text id="ProcessOnText1064" fill="#000000" font-size="13" x="26.0" y="13.325" font-family="微软雅黑" font-weight="normal" font-style="normal" text-decoration="none" family="微软雅黑" text-anchor="middle" size="13">String</text></g></g><g id="ProcessOnG1065" transform="matrix(1.0,0.0,0.0,1.0,437.0,165.0)" opacity="1.0"><path id="ProcessOnPath1066" d="M0.0 0.0L74.0 0.0L74.0 50.0L0.0 50.0Z" stroke="#323232" stroke-width="2.0" stroke-dasharray="none" opacity="1.0" fill="#ffccff"/><g id="ProcessOnG1067" transform="matrix(1.0,0.0,0.0,1.0,10.0,16.875)"><text id="ProcessOnText1068" fill="#000000" font-size="13" x="26.0" y="13.325" font-family="微软雅黑" font-weight="normal" font-style="normal" text-decoration="none" family="微软雅黑" text-anchor="middle" size="13">Double</text></g></g><g id="ProcessOnG1069" transform="matrix(1.0,0.0,0.0,1.0,437.0,115.0)" opacity="1.0"><path id="ProcessOnPath1070" d="M0.0 0.0L74.0 0.0L74.0 50.0L0.0 50.0Z" stroke="#323232" stroke-width="2.0" stroke-dasharray="none" opacity="1.0" fill="#ffccff"/><g id="ProcessOnG1071" transform="matrix(1.0,0.0,0.0,1.0,10.0,16.875)"><text id="ProcessOnText1072" fill="#000000" font-size="13" x="26.0" y="13.325" font-family="微软雅黑" font-weight="normal" font-style="normal" text-decoration="none" family="微软雅黑" text-anchor="middle" size="13">Double</text></g></g><g id="ProcessOnG1073" transform="matrix(1.0,0.0,0.0,1.0,309.0,215.0)" opacity="1.0"><path id="ProcessOnPath1074" d="M0.0 0.0L74.0 0.0L74.0 50.0L0.0 50.0Z" stroke="#323232" stroke-width="2.0" stroke-dasharray="none" opacity="1.0" fill="#00cc66"/><g id="ProcessOnG1075" transform="matrix(1.0,0.0,0.0,1.0,10.0,16.875)"><text id="ProcessOnText1076" fill="#000000" font-size="13" x="26.0" y="13.325" font-family="微软雅黑" font-weight="normal" font-style="normal" text-decoration="none" family="微软雅黑" text-anchor="middle" size="13">String</text></g></g><g id="ProcessOnG1077" transform="matrix(1.0,0.0,0.0,1.0,309.0,265.0)" opacity="1.0"><path id="ProcessOnPath1078" d="M0.0 0.0L74.0 0.0L74.0 50.0L0.0 50.0Z" stroke="#323232" stroke-width="2.0" stroke-dasharray="none" opacity="1.0" fill="#00cc66"/><g id="ProcessOnG1079" transform="matrix(1.0,0.0,0.0,1.0,10.0,16.875)"><text id="ProcessOnText1080" fill="#000000" font-size="13" x="26.0" y="13.325" font-family="微软雅黑" font-weight="normal" font-style="normal" text-decoration="none" family="微软雅黑" text-anchor="middle" size="13">String</text></g></g><g id="ProcessOnG1081" transform="matrix(1.0,0.0,0.0,1.0,437.0,215.0)" opacity="1.0"><path id="ProcessOnPath1082" d="M0.0 0.0L74.0 0.0L74.0 50.0L0.0 50.0Z" stroke="#323232" stroke-width="2.0" stroke-dasharray="none" opacity="1.0" fill="#ffccff"/><g id="ProcessOnG1083" transform="matrix(1.0,0.0,0.0,1.0,10.0,16.875)"><text id="ProcessOnText1084" fill="#000000" font-size="13" x="26.0" y="13.325" font-family="微软雅黑" font-weight="normal" font-style="normal" text-decoration="none" family="微软雅黑" text-anchor="middle" size="13">Double</text></g></g><g id="ProcessOnG1085" transform="matrix(1.0,0.0,0.0,1.0,437.0,265.0)" opacity="1.0"><path id="ProcessOnPath1086" d="M0.0 0.0L74.0 0.0L74.0 50.0L0.0 50.0Z" stroke="#323232" stroke-width="2.0" stroke-dasharray="none" opacity="1.0" fill="#ffccff"/><g id="ProcessOnG1087" transform="matrix(1.0,0.0,0.0,1.0,10.0,16.875)"><text id="ProcessOnText1088" fill="#000000" font-size="13" x="26.0" y="13.325" font-family="微软雅黑" font-weight="normal" font-style="normal" text-decoration="none" family="微软雅黑" text-anchor="middle" size="13">Double</text></g></g><g id="ProcessOnG1089" transform="matrix(1.0,0.0,0.0,1.0,309.0,315.0)" opacity="1.0"><path id="ProcessOnPath1090" d="M0.0 0.0L74.0 0.0L74.0 50.0L0.0 50.0Z" stroke="#323232" stroke-width="2.0" stroke-dasharray="none" opacity="1.0" fill="#00cc66"/><g id="ProcessOnG1091" transform="matrix(1.0,0.0,0.0,1.0,10.0,16.875)"><text id="ProcessOnText1092" fill="#000000" font-size="13" x="26.0" y="13.325" font-family="微软雅黑" font-weight="normal" font-style="normal" text-decoration="none" family="微软雅黑" text-anchor="middle" size="13">String</text></g></g><g id="ProcessOnG1093" transform="matrix(1.0,0.0,0.0,1.0,320.0,46.0)" opacity="1.0"><path id="ProcessOnPath1094" d="M0.0 0.0L180.0 0.0L180.0 51.0L0.0 51.0Z" stroke="#323232" stroke-width="2.0" stroke-dasharray="none" opacity="1.0" fill="#6666ff"/><g id="ProcessOnG1095" transform="matrix(1.0,0.0,0.0,1.0,10.0,17.375)"><text id="ProcessOnText1096" fill="#000000" font-size="13" x="79.0" y="13.325" font-family="微软雅黑" font-weight="normal" font-style="normal" text-decoration="none" family="微软雅黑" text-anchor="middle" size="13">Legs</text></g></g><g id="ProcessOnG1097" transform="matrix(1.0,0.0,0.0,1.0,437.0,315.0)" opacity="1.0"><path id="ProcessOnPath1098" d="M0.0 0.0L74.0 0.0L74.0 50.0L0.0 50.0Z" stroke="#323232" stroke-width="2.0" stroke-dasharray="none" opacity="1.0" fill="#ffccff"/><g id="ProcessOnG1099" transform="matrix(1.0,0.0,0.0,1.0,10.0,16.875)"><text id="ProcessOnText1100" fill="#000000" font-size="13" x="26.0" y="13.325" font-family="微软雅黑" font-weight="normal" font-style="normal" text-decoration="none" family="微软雅黑" text-anchor="middle" size="13">Double</text></g></g><g id="ProcessOnG1101" transform="matrix(1.0,0.0,0.0,1.0,309.0,365.0)" opacity="1.0"><path id="ProcessOnPath1102" d="M0.0 0.0L74.0 0.0L74.0 50.0L0.0 50.0Z" stroke="#323232" stroke-width="2.0" stroke-dasharray="none" opacity="1.0" fill="#00cc66"/><g id="ProcessOnG1103" transform="matrix(1.0,0.0,0.0,1.0,10.0,16.875)"><text id="ProcessOnText1104" fill="#000000" font-size="13" x="26.0" y="13.325" font-family="微软雅黑" font-weight="normal" font-style="normal" text-decoration="none" family="微软雅黑" text-anchor="middle" size="13">String</text></g></g><g id="ProcessOnG1105" transform="matrix(1.0,0.0,0.0,1.0,437.0,365.0)" opacity="1.0"><path id="ProcessOnPath1106" d="M0.0 0.0L74.0 0.0L74.0 50.0L0.0 50.0Z" stroke="#323232" stroke-width="2.0" stroke-dasharray="none" opacity="1.0" fill="#ffccff"/><g id="ProcessOnG1107" transform="matrix(1.0,0.0,0.0,1.0,10.0,16.875)"><text id="ProcessOnText1108" fill="#000000" font-size="13" x="26.0" y="13.325" font-family="微软雅黑" font-weight="normal" font-style="normal" text-decoration="none" family="微软雅黑" text-anchor="middle" size="13">Double</text></g></g><g id="ProcessOnG1109" transform="matrix(1.0,0.0,0.0,1.0,309.0,46.5)" opacity="1.0"><path id="ProcessOnPath1110" d="M0.0 0.0L74.0 0.0L74.0 50.0L0.0 50.0Z" stroke="#323232" stroke-width="2.0" stroke-dasharray="none" opacity="1.0" fill="#00994d"/><g id="ProcessOnG1111" transform="matrix(1.0,0.0,0.0,1.0,10.0,16.875)"><text id="ProcessOnText1112" fill="#000000" font-size="13" x="26.0" y="13.325" font-family="微软雅黑" font-weight="normal" font-style="normal" text-decoration="none" family="微软雅黑" text-anchor="middle" size="13">Name</text></g></g><g id="ProcessOnG1113" transform="matrix(1.0,0.0,0.0,1.0,437.0,46.5)" opacity="1.0"><path id="ProcessOnPath1114" d="M0.0 0.0L74.0 0.0L74.0 50.0L0.0 50.0Z" stroke="#323232" stroke-width="2.0" stroke-dasharray="none" opacity="1.0" fill="#ff99cc"/><g id="ProcessOnG1115" transform="matrix(1.0,0.0,0.0,1.0,10.0,16.875)"><text id="ProcessOnText1116" fill="#000000" font-size="13" x="26.0" y="13.325" font-family="微软雅黑" font-weight="normal" font-style="normal" text-decoration="none" family="微软雅黑" text-anchor="middle" size="13">Size</text></g></g><g id="ProcessOnG1117" transform="matrix(1.0,0.0,0.0,1.0,82.0,430.0)" opacity="1.0"><path id="ProcessOnPath1118" d="M0.0 0.0L160.0 0.0L160.0 40.0L0.0 40.0Z" stroke="none" stroke-width="0.0" stroke-dasharray="none" opacity="1.0" fill="none"/><g id="ProcessOnG1119" transform="matrix(1.0,0.0,0.0,1.0,0.0,11.875)"><text id="ProcessOnText1120" fill="#000000" font-size="13" x="79.0" y="13.325" font-family="微软雅黑" font-weight="normal" font-style="normal" text-decoration="none" family="微软雅黑" text-anchor="middle" size="13">RDD[Animal]</text></g></g><g id="ProcessOnG1121" transform="matrix(1.0,0.0,0.0,1.0,330.0,430.0)" opacity="1.0"><path id="ProcessOnPath1122" d="M0.0 0.0L160.0 0.0L160.0 40.0L0.0 40.0Z" stroke="none" stroke-width="0.0" stroke-dasharray="none" opacity="1.0" fill="none"/><g id="ProcessOnG1123" transform="matrix(1.0,0.0,0.0,1.0,0.0,11.875)"><text id="ProcessOnText1124" fill="#000000" font-size="13" x="79.0" y="13.325" font-family="微软雅黑" font-weight="normal" font-style="normal" text-decoration="none" family="微软雅黑" text-anchor="middle" size="13">DataFrame</text></g></g></g></g></svg>