<svg xmlns="http://www.w3.org/2000/svg" xmlns:xlink="http://www.w3.org/1999/xlink" id="processonSvg1000" viewBox="112.0 11.0 864.0 626.0" width="864.0" height="626.0"><defs id="ProcessOnDefs1001"><marker id="ProcessOnMarker1045" markerUnits="userSpaceOnUse" orient="auto" markerWidth="16.23606797749979" markerHeight="10.550836550532098" viewBox="-1.0 -1.3763819204711736 16.23606797749979 10.550836550532098" refX="-1.0" refY="3.8990363547948754"><path id="ProcessOnPath1046" d="M12.0 3.8990363547948754L0.0 7.798072709589751V0.0Z" stroke="#323232" stroke-width="2.0" fill="#323232" transform="matrix(1.0,0.0,0.0,1.0,0.0,0.0)"/></marker><marker id="ProcessOnMarker1052" markerUnits="userSpaceOnUse" orient="auto" markerWidth="16.23606797749979" markerHeight="10.550836550532098" viewBox="-1.0 -1.3763819204711736 16.23606797749979 10.550836550532098" refX="-1.0" refY="3.8990363547948754"><path id="ProcessOnPath1053" d="M12.0 3.8990363547948754L0.0 7.798072709589751V0.0Z" stroke="#323232" stroke-width="2.0" fill="#323232" transform="matrix(1.0,0.0,0.0,1.0,0.0,0.0)"/></marker><marker id="ProcessOnMarker1059" markerUnits="userSpaceOnUse" orient="auto" markerWidth="16.23606797749979" markerHeight="10.550836550532098" viewBox="-1.0 -1.3763819204711736 16.23606797749979 10.550836550532098" refX="-1.0" refY="3.8990363547948754"><path id="ProcessOnPath1060" d="M12.0 3.8990363547948754L0.0 7.798072709589751V0.0Z" stroke="#323232" stroke-width="2.0" fill="#323232" transform="matrix(1.0,0.0,0.0,1.0,0.0,0.0)"/></marker><marker id="ProcessOnMarker1066" markerUnits="userSpaceOnUse" orient="auto" markerWidth="16.23606797749979" markerHeight="10.550836550532098" viewBox="-1.0 -1.3763819204711736 16.23606797749979 10.550836550532098" refX="15.23606797749979" refY="3.8990363547948754"><path id="ProcessOnPath1067" d="M12.0 3.8990363547948754L0.0 7.798072709589751V0.0Z" stroke="#323232" stroke-width="2.0" fill="#323232" transform="matrix(-1.0,1.2246467991473532E-16,-1.2246467991473532E-16,-1.0,14.23606797749979,7.798072709589751)"/></marker><marker id="ProcessOnMarker1068" markerUnits="userSpaceOnUse" orient="auto" markerWidth="16.23606797749979" markerHeight="10.550836550532098" viewBox="-1.0 -1.3763819204711736 16.23606797749979 10.550836550532098" refX="-1.0" refY="3.8990363547948754"><path id="ProcessOnPath1069" d="M12.0 3.8990363547948754L0.0 7.798072709589751V0.0Z" stroke="#323232" stroke-width="2.0" fill="#323232" transform="matrix(1.0,0.0,0.0,1.0,0.0,0.0)"/></marker><marker id="ProcessOnMarker1075" markerUnits="userSpaceOnUse" orient="auto" markerWidth="16.23606797749979" markerHeight="10.550836550532098" viewBox="-1.0 -1.3763819204711736 16.23606797749979 10.550836550532098" refX="-1.0" refY="3.8990363547948754"><path id="ProcessOnPath1076" d="M12.0 3.8990363547948754L0.0 7.798072709589751V0.0Z" stroke="#323232" stroke-width="2.0" fill="#323232" transform="matrix(1.0,0.0,0.0,1.0,0.0,0.0)"/></marker><marker id="ProcessOnMarker1082" markerUnits="userSpaceOnUse" orient="auto" markerWidth="16.23606797749979" markerHeight="10.550836550532098" viewBox="-1.0 -1.3763819204711736 16.23606797749979 10.550836550532098" refX="-1.0" refY="3.8990363547948754"><path id="ProcessOnPath1083" d="M12.0 3.8990363547948754L0.0 7.798072709589751V0.0Z" stroke="#323232" stroke-width="2.0" fill="#323232" transform="matrix(1.0,0.0,0.0,1.0,0.0,0.0)"/></marker><marker id="ProcessOnMarker1089" markerUnits="userSpaceOnUse" orient="auto" markerWidth="16.23606797749979" markerHeight="10.550836550532098" viewBox="-1.0 -1.3763819204711736 16.23606797749979 10.550836550532098" refX="-1.0" refY="3.8990363547948754"><path id="ProcessOnPath1090" d="M12.0 3.8990363547948754L0.0 7.798072709589751V0.0Z" stroke="#323232" stroke-width="2.0" fill="#323232" transform="matrix(1.0,0.0,0.0,1.0,0.0,0.0)"/></marker><marker id="ProcessOnMarker1104" markerUnits="userSpaceOnUse" orient="auto" markerWidth="16.23606797749979" markerHeight="10.550836550532098" viewBox="-1.0 -1.3763819204711736 16.23606797749979 10.550836550532098" refX="-1.0" refY="3.8990363547948754"><path id="ProcessOnPath1105" d="M12.0 3.8990363547948754L0.0 7.798072709589751V0.0Z" stroke="#323232" stroke-width="2.0" fill="#323232" transform="matrix(1.0,0.0,0.0,1.0,0.0,0.0)"/></marker><marker id="ProcessOnMarker1119" markerUnits="userSpaceOnUse" orient="auto" markerWidth="16.23606797749979" markerHeight="10.550836550532098" viewBox="-1.0 -1.3763819204711736 16.23606797749979 10.550836550532098" refX="-1.0" refY="3.8990363547948754"><path id="ProcessOnPath1120" d="M12.0 3.8990363547948754L0.0 7.798072709589751V0.0Z" stroke="#323232" stroke-width="2.0" fill="#323232" transform="matrix(1.0,0.0,0.0,1.0,0.0,0.0)"/></marker></defs><g id="ProcessOnG1002"><path id="ProcessOnPath1003" d="M112.0 11.0H976.0V637.0H112.0V11.0Z" fill="none"/><g id="ProcessOnG1004"><g id="ProcessOnG1005" transform="matrix(1.0,0.0,0.0,1.0,562.0,412.0)" opacity="1.0"><path id="ProcessOnPath1006" d="M0.0 0.0L355.0 0.0L355.0 205.0L0.0 205.0Z" stroke="#323232" stroke-width="2.0" stroke-dasharray="10.0 4.0" opacity="1.0" fill="#ffffff"/></g><g id="ProcessOnG1007" transform="matrix(1.0,0.0,0.0,1.0,555.0,232.5)" opacity="1.0"><path id="ProcessOnPath1008" d="M0.0 0.0L401.0 0.0L401.0 136.75L0.0 136.75Z" stroke="#323232" stroke-width="2.0" stroke-dasharray="10.0 4.0" opacity="1.0" fill="#ffffff"/></g><g id="ProcessOnG1009" transform="matrix(1.0,0.0,0.0,1.0,562.0,31.0)" opacity="1.0"><path id="ProcessOnPath1010" d="M0.0 0.0L350.0 0.0L350.0 143.0L0.0 143.0Z" stroke="#323232" stroke-width="2.0" stroke-dasharray="10.0 4.0" opacity="1.0" fill="#ffffff"/></g><g id="ProcessOnG1011" transform="matrix(1.0,0.0,0.0,1.0,132.0,254.0)" opacity="1.0"><path id="ProcessOnPath1012" d="M0.0 0.0L112.0 0.0L112.0 63.0L0.0 63.0Z" stroke="#323232" stroke-width="2.0" stroke-dasharray="none" opacity="1.0" fill="#ffffff"/><g id="ProcessOnG1013" transform="matrix(1.0,0.0,0.0,1.0,10.0,23.375)"><text id="ProcessOnText1014" fill="#000000" font-size="13" x="45.0" y="13.325" font-family="微软雅黑" font-weight="normal" font-style="normal" text-decoration="none" family="微软雅黑" text-anchor="middle" size="13">Client</text></g></g><g id="ProcessOnG1015" transform="matrix(1.0,0.0,0.0,1.0,313.0,240.5)" opacity="1.0"><path id="ProcessOnPath1016" d="M0.0 0.0L179.0 0.0L179.0 90.0L0.0 90.0Z" stroke="#323232" stroke-width="2.0" stroke-dasharray="none" opacity="1.0" fill="#ffffff"/><g id="ProcessOnG1017" transform="matrix(1.0,0.0,0.0,1.0,10.0,36.875)"><text id="ProcessOnText1018" fill="#000000" font-size="13" x="78.5" y="13.325" font-family="微软雅黑" font-weight="normal" font-style="normal" text-decoration="none" family="微软雅黑" text-anchor="middle" size="13">ResourceManager</text></g></g><g id="ProcessOnG1019" transform="matrix(1.0,0.0,0.0,1.0,580.0,69.0)" opacity="1.0"><path id="ProcessOnPath1020" d="M0.0 0.0L150.0 0.0L150.0 84.75L0.0 84.75Z" stroke="#323232" stroke-width="2.0" stroke-dasharray="none" opacity="1.0" fill="#ffffff"/><g id="ProcessOnG1021" transform="matrix(1.0,0.0,0.0,1.0,10.0,34.25)"><text id="ProcessOnText1022" fill="#000000" font-size="13" x="64.0" y="13.325" font-family="微软雅黑" font-weight="normal" font-style="normal" text-decoration="none" family="微软雅黑" text-anchor="middle" size="13">NodeManager</text></g></g><g id="ProcessOnG1023" transform="matrix(1.0,0.0,0.0,1.0,792.0,262.25)" opacity="1.0"><path id="ProcessOnPath1024" d="M0.0 0.0L135.0 0.0L135.0 71.25L0.0 71.25Z" stroke="#323232" stroke-width="2.0" stroke-dasharray="none" opacity="1.0" fill="#ffffff"/><g id="ProcessOnG1025" transform="matrix(1.0,0.0,0.0,1.0,10.0,27.5)"><text id="ProcessOnText1026" fill="#000000" font-size="13" x="56.5" y="13.325" font-family="微软雅黑" font-weight="normal" font-style="normal" text-decoration="none" family="微软雅黑" text-anchor="middle" size="13">ApplicationMaster</text></g></g><g id="ProcessOnG1027" transform="matrix(1.0,0.0,0.0,1.0,574.5,255.5)" opacity="1.0"><path id="ProcessOnPath1028" d="M0.0 0.0L150.0 0.0L150.0 84.75L0.0 84.75Z" stroke="#323232" stroke-width="2.0" stroke-dasharray="none" opacity="1.0" fill="#ffffff"/><g id="ProcessOnG1029" transform="matrix(1.0,0.0,0.0,1.0,10.0,34.25)"><text id="ProcessOnText1030" fill="#000000" font-size="13" x="64.0" y="13.325" font-family="微软雅黑" font-weight="normal" font-style="normal" text-decoration="none" family="微软雅黑" text-anchor="middle" size="13">NodeManager</text></g></g><g id="ProcessOnG1031" transform="matrix(1.0,0.0,0.0,1.0,574.5,458.5)" opacity="1.0"><path id="ProcessOnPath1032" d="M0.0 0.0L150.0 0.0L150.0 84.75L0.0 84.75Z" stroke="#323232" stroke-width="2.0" stroke-dasharray="none" opacity="1.0" fill="#ffffff"/><g id="ProcessOnG1033" transform="matrix(1.0,0.0,0.0,1.0,10.0,34.25)"><text id="ProcessOnText1034" fill="#000000" font-size="13" x="64.0" y="13.325" font-family="微软雅黑" font-weight="normal" font-style="normal" text-decoration="none" family="微软雅黑" text-anchor="middle" size="13">NodeManager</text></g></g><g id="ProcessOnG1035" transform="matrix(1.0,0.0,0.0,1.0,792.0,86.375)" opacity="1.0"><path id="ProcessOnPath1036" d="M16.666666666666668 0.0L83.33333333333333 0.0C105.55555555555556 0.0 105.55555555555556 50.0 83.33333333333333 50.0L16.666666666666668 50.0C-5.555555555555556 50.0 -5.555555555555556 0.0 16.666666666666668 0.0Z" stroke="#323232" stroke-width="2.0" stroke-dasharray="none" opacity="1.0" fill="#ffffff"/><g id="ProcessOnG1037" transform="matrix(1.0,0.0,0.0,1.0,10.0,16.875)"><text id="ProcessOnText1038" fill="#000000" font-size="13" x="39.0" y="13.325" font-family="微软雅黑" font-weight="normal" font-style="normal" text-decoration="none" family="微软雅黑" text-anchor="middle" size="13">Task</text></g></g><g id="ProcessOnG1039" transform="matrix(1.0,0.0,0.0,1.0,762.0,54.5)" opacity="1.0"><path id="ProcessOnPath1040" d="M0.0 0.0L160.0 0.0L160.0 40.0L0.0 40.0Z" stroke="none" stroke-width="0.0" stroke-dasharray="none" opacity="1.0" fill="none"/><g id="ProcessOnG1041" transform="matrix(1.0,0.0,0.0,1.0,0.0,11.875)"><text id="ProcessOnText1042" fill="#000000" font-size="13" x="79.0" y="13.325" font-family="微软雅黑" font-weight="normal" font-style="normal" text-decoration="none" family="微软雅黑" text-anchor="middle" size="13">Container</text></g></g><g id="ProcessOnG1043"><path id="ProcessOnPath1044" d="M244.0 285.5L297.7639320225002 285.5" stroke="#323232" stroke-width="2.0" stroke-dasharray="none" fill="none" marker-end="url(#ProcessOnMarker1045)"/><g id="ProcessOnG1047" transform="matrix(1.0,0.0,0.0,1.0,270.88196601125014,277.375)"><path id="ProcessOnPath1048" d="M0 0H13.0V16.25H0Z" fill="#fff" transform="matrix(1.0,0.0,0.0,1.0,-6.5,0.0)"/><text id="ProcessOnText1049" fill="#000000" font-size="13" x="0.0" y="13.325" font-family="微软雅黑" font-weight="normal" font-style="normal" text-decoration="none" family="微软雅黑" text-anchor="middle" size="13">①</text></g></g><g id="ProcessOnG1050"><path id="ProcessOnPath1051" d="M492.0 285.5L559.4324985022779 295.61487477534166" stroke="#323232" stroke-width="2.0" stroke-dasharray="none" fill="none" marker-end="url(#ProcessOnMarker1052)"/><g id="ProcessOnG1054" transform="matrix(1.0,0.0,0.0,1.0,525.716249251139,282.4324373876708)"><path id="ProcessOnPath1055" d="M0 0H13.0V16.25H0Z" fill="#fff" transform="matrix(1.0,0.0,0.0,1.0,-6.5,0.0)"/><text id="ProcessOnText1056" fill="#000000" font-size="13" x="0.0" y="13.325" font-family="微软雅黑" font-weight="normal" font-style="normal" text-decoration="none" family="微软雅黑" text-anchor="middle" size="13">②</text></g></g><g id="ProcessOnG1057"><path id="ProcessOnPath1058" d="M724.5 297.875L758.25 297.875L758.25 297.875L776.7639320225002 297.875" stroke="#323232" stroke-width="2.0" stroke-dasharray="none" fill="none" marker-end="url(#ProcessOnMarker1059)"/><g id="ProcessOnG1061" transform="matrix(1.0,0.0,0.0,1.0,750.6319660112501,289.75)"><path id="ProcessOnPath1062" d="M0 0H13.0V16.25H0Z" fill="#fff" transform="matrix(1.0,0.0,0.0,1.0,-6.5,0.0)"/><text id="ProcessOnText1063" fill="#000000" font-size="13" x="0.0" y="13.325" font-family="微软雅黑" font-weight="normal" font-style="normal" text-decoration="none" family="微软雅黑" text-anchor="middle" size="13">③</text></g></g><g id="ProcessOnG1064"><path id="ProcessOnPath1065" d="M793.1471528727021 247.40223611107817L793.1471528727021 210.5L402.5 210.5L402.5 225.2639320225002" stroke="#323232" stroke-width="2.0" stroke-dasharray="none" fill="none" marker-start="url(#ProcessOnMarker1066)" marker-end="url(#ProcessOnMarker1068)"/><g id="ProcessOnG1070" transform="matrix(1.0,0.0,0.0,1.0,608.89272848064,202.375)"><path id="ProcessOnPath1071" d="M0 0H13.0V16.25H0Z" fill="#fff" transform="matrix(1.0,0.0,0.0,1.0,-6.5,0.0)"/><text id="ProcessOnText1072" fill="#000000" font-size="13" x="0.0" y="13.325" font-family="微软雅黑" font-weight="normal" font-style="normal" text-decoration="none" family="微软雅黑" text-anchor="middle" size="13">④</text></g></g><g id="ProcessOnG1073"><path id="ProcessOnPath1074" d="M859.5 262.25L739.9233875252608 122.93632118049203" stroke="#323232" stroke-width="2.0" stroke-dasharray="none" fill="none" marker-end="url(#ProcessOnMarker1075)"/><g id="ProcessOnG1077" transform="matrix(1.0,0.0,0.0,1.0,799.7116937626304,184.46816059024601)"><path id="ProcessOnPath1078" d="M0 0H13.0V16.25H0Z" fill="#fff" transform="matrix(1.0,0.0,0.0,1.0,-6.5,0.0)"/><text id="ProcessOnText1079" fill="#000000" font-size="13" x="0.0" y="13.325" font-family="微软雅黑" font-weight="normal" font-style="normal" text-decoration="none" family="微软雅黑" text-anchor="middle" size="13">⑤</text></g></g><g id="ProcessOnG1080"><path id="ProcessOnPath1081" d="M859.5 333.5L734.065344570241 489.01574409300673" stroke="#323232" stroke-width="2.0" stroke-dasharray="none" fill="none" marker-end="url(#ProcessOnMarker1082)"/><g id="ProcessOnG1084" transform="matrix(1.0,0.0,0.0,1.0,796.7826722851205,403.1328720465034)"><path id="ProcessOnPath1085" d="M0 0H13.0V16.25H0Z" fill="#fff" transform="matrix(1.0,0.0,0.0,1.0,-6.5,0.0)"/><text id="ProcessOnText1086" fill="#000000" font-size="13" x="0.0" y="13.325" font-family="微软雅黑" font-weight="normal" font-style="normal" text-decoration="none" family="微软雅黑" text-anchor="middle" size="13">⑤</text></g></g><g id="ProcessOnG1087"><path id="ProcessOnPath1088" d="M730.0 111.375L776.7639320225002 111.375" stroke="#323232" stroke-width="2.0" stroke-dasharray="none" fill="none" marker-end="url(#ProcessOnMarker1089)"/><g id="ProcessOnG1091" transform="matrix(1.0,0.0,0.0,1.0,753.3819660112501,103.25)"><path id="ProcessOnPath1092" d="M0 0H13.0V16.25H0Z" fill="#fff" transform="matrix(1.0,0.0,0.0,1.0,-6.5,0.0)"/><text id="ProcessOnText1093" fill="#000000" font-size="13" x="0.0" y="13.325" font-family="微软雅黑" font-weight="normal" font-style="normal" text-decoration="none" family="微软雅黑" text-anchor="middle" size="13">⑥</text></g></g><g id="ProcessOnG1094" transform="matrix(1.0,0.0,0.0,1.0,787.0,458.5)" opacity="1.0"><path id="ProcessOnPath1095" d="M16.666666666666668 0.0L83.33333333333333 0.0C105.55555555555556 0.0 105.55555555555556 50.0 83.33333333333333 50.0L16.666666666666668 50.0C-5.555555555555556 50.0 -5.555555555555556 0.0 16.666666666666668 0.0Z" stroke="#323232" stroke-width="2.0" stroke-dasharray="none" opacity="1.0" fill="#ffffff"/><g id="ProcessOnG1096" transform="matrix(1.0,0.0,0.0,1.0,10.0,16.875)"><text id="ProcessOnText1097" fill="#000000" font-size="13" x="39.0" y="13.325" font-family="微软雅黑" font-weight="normal" font-style="normal" text-decoration="none" family="微软雅黑" text-anchor="middle" size="13">Task</text></g></g><g id="ProcessOnG1098" transform="matrix(1.0,0.0,0.0,1.0,757.0,426.0)" opacity="1.0"><path id="ProcessOnPath1099" d="M0.0 0.0L160.0 0.0L160.0 40.0L0.0 40.0Z" stroke="none" stroke-width="0.0" stroke-dasharray="none" opacity="1.0" fill="none"/><g id="ProcessOnG1100" transform="matrix(1.0,0.0,0.0,1.0,0.0,11.875)"><text id="ProcessOnText1101" fill="#000000" font-size="13" x="79.0" y="13.325" font-family="微软雅黑" font-weight="normal" font-style="normal" text-decoration="none" family="微软雅黑" text-anchor="middle" size="13">Container</text></g></g><g id="ProcessOnG1102"><path id="ProcessOnPath1103" d="M724.5 500.875L772.3206171690853 487.5808684269943" stroke="#323232" stroke-width="2.0" stroke-dasharray="none" fill="none" marker-end="url(#ProcessOnMarker1104)"/><g id="ProcessOnG1106" transform="matrix(1.0,0.0,0.0,1.0,748.4103085845427,486.1029342134972)"><path id="ProcessOnPath1107" d="M0 0H13.0V16.25H0Z" fill="#fff" transform="matrix(1.0,0.0,0.0,1.0,-6.5,0.0)"/><text id="ProcessOnText1108" fill="#000000" font-size="13" x="0.0" y="13.325" font-family="微软雅黑" font-weight="normal" font-style="normal" text-decoration="none" family="微软雅黑" text-anchor="middle" size="13">⑥</text></g></g><g id="ProcessOnG1109" transform="matrix(1.0,0.0,0.0,1.0,792.0,548.5)" opacity="1.0"><path id="ProcessOnPath1110" d="M16.666666666666668 0.0L83.33333333333333 0.0C105.55555555555556 0.0 105.55555555555556 50.0 83.33333333333333 50.0L16.666666666666668 50.0C-5.555555555555556 50.0 -5.555555555555556 0.0 16.666666666666668 0.0Z" stroke="#323232" stroke-width="2.0" stroke-dasharray="none" opacity="1.0" fill="#ffffff"/><g id="ProcessOnG1111" transform="matrix(1.0,0.0,0.0,1.0,10.0,16.875)"><text id="ProcessOnText1112" fill="#000000" font-size="13" x="39.0" y="13.325" font-family="微软雅黑" font-weight="normal" font-style="normal" text-decoration="none" family="微软雅黑" text-anchor="middle" size="13">Task</text></g></g><g id="ProcessOnG1113" transform="matrix(1.0,0.0,0.0,1.0,762.0,516.5)" opacity="1.0"><path id="ProcessOnPath1114" d="M0.0 0.0L160.0 0.0L160.0 40.0L0.0 40.0Z" stroke="none" stroke-width="0.0" stroke-dasharray="none" opacity="1.0" fill="none"/><g id="ProcessOnG1115" transform="matrix(1.0,0.0,0.0,1.0,0.0,11.875)"><text id="ProcessOnText1116" fill="#000000" font-size="13" x="79.0" y="13.325" font-family="微软雅黑" font-weight="normal" font-style="normal" text-decoration="none" family="微软雅黑" text-anchor="middle" size="13">Container</text></g></g><g id="ProcessOnG1117"><path id="ProcessOnPath1118" d="M724.5 500.875L781.6274445672445 562.3398986917946" stroke="#323232" stroke-width="2.0" stroke-dasharray="none" fill="none" marker-end="url(#ProcessOnMarker1119)"/><g id="ProcessOnG1121" transform="matrix(1.0,0.0,0.0,1.0,753.0637222836223,523.4824493458973)"><path id="ProcessOnPath1122" d="M0 0H13.0V16.25H0Z" fill="#fff" transform="matrix(1.0,0.0,0.0,1.0,-6.5,0.0)"/><text id="ProcessOnText1123" fill="#000000" font-size="13" x="0.0" y="13.325" font-family="微软雅黑" font-weight="normal" font-style="normal" text-decoration="none" family="微软雅黑" text-anchor="middle" size="13">⑥</text></g></g></g></g></svg>